<?xml version="1.0" standalone="no"?>
<!DOCTYPE svg PUBLIC "-//W3C//DTD SVG 1.1//EN" "http://www.w3.org/Graphics/SVG/1.1/DTD/svg11.dtd" >
<svg>
<metadata>
Created by FontForge 20090914 at Wed Nov 12 13:09:50 2014
 By www-data
Copyright (c) 2011 by Ania Kruk (hello@aniakruk.com), with Reserved Font Name Cookie.
</metadata>
<defs>
<font id="Cookie-Regular" horiz-adv-x="501" >
  <font-face 
    font-family="Cookie"
    font-weight="400"
    font-stretch="normal"
    units-per-em="1000"
    panose-1="2 0 0 0 0 0 0 0 0 0"
    ascent="800"
    descent="-200"
    x-height="353.999"
    cap-height="616.001"
    bbox="-162.999 -320.001 946.997 789.002"
    underline-thickness="50"
    underline-position="-50"
    unicode-range="U+0020-U+2265"
  />
<missing-glyph horiz-adv-x="355" 
 />
    <glyph glyph-name="f_f" unicode="ff" horiz-adv-x="424" 
d="M233 243l7.00195 38.0039c-27.333 5.33301 -41 20.5 -41 45.5s18 37.5 54 37.5c34 170.667 76.333 256 127 256c10 0 18.667 -8.33301 26 -25s11 -41 11 -73s-7.33301 -70.167 -22 -114.5s-32.334 -79.5 -53.001 -105.5l3 -7c19.333 -8.66699 39.166 -13 59.499 -13
s36.333 1.16699 48 3.5s18.167 3.5 19.5 3.5c8 0 12 -4.33301 12 -13c0 -7.33301 -6.83301 -12.833 -20.5 -16.5s-29.5 -5.5 -47.5 -5.5s-39 3.66699 -63 11c20 -56 30 -128.833 30 -218.5s-10 -161.167 -30 -214.5s-46.333 -80 -79 -80
c-18.667 0 -35.334 6.33301 -50.001 19s-22 34 -22 64c0 105.333 8.66699 228 26 368c-19.333 -10 -38.666 -18 -57.999 -24c10.667 -46.667 16 -90.334 16 -131.001s-0.666992 -73.834 -2 -99.501s-4.33301 -55.334 -9 -89.001s-10.667 -63.167 -18 -88.5
s-18 -46.833 -32 -64.5s-31.5 -26.5 -52.5 -26.5s-38.333 7 -52 21s-20.5 42 -20.5 84c0 118.667 6.66699 247.667 20 387c-38 15.333 -57 42.666 -57 81.999c0 24 6.16699 44 18.5 60s27.833 24 46.5 24c5.33301 0 9.33301 -0.333008 12 -1
c9.33301 59.333 18.166 108 26.499 146s22.333 70.333 42 97s38.834 40 57.501 40c21.333 0 32 -23.667 32 -71c0 -73.333 -27.333 -157 -82 -251c16.667 -18 31.667 -46 45 -84c22.667 6 46.667 15.667 72 29zM85.002 164.004c-6.66699 -91.333 -10 -174.332 -10 -248.999
s1 -126 3 -154s6.66699 -42 14 -42c20 0 36.333 29.167 49 87.5s19 121.166 19 188.499s-7 126 -21 176c-16 -4.66699 -34 -7 -54 -7zM274.002 -24.9951c0 -122.667 5.66699 -184 17 -184c16 0 30.167 23.667 42.5 71s18.5 101 18.5 161c0 126.667 -12.667 208 -38 244
l-18 -18c-14.667 -112 -22 -203.333 -22 -274zM369.002 402.505c16 42.333 24 74.834 24 97.501c0 43.333 -4 65 -12 65c-24.667 0 -48.334 -72 -71.001 -216c6.66699 -5.33301 13.334 -13.333 20.001 -24c10 9.33301 23 35.166 39 77.499zM176.002 538.006
c0 26.667 -3 40 -9 40c-10.667 0 -22.167 -24 -34.5 -72s-23.5 -112 -33.5 -192c51.333 89.333 77 164 77 224zM22.002 307.006c-18.667 0 -28 -10 -28 -30s10.667 -37.333 32 -52l9 80c-4.66699 1.33301 -9 2 -13 2zM88.002 206.006c10 0 23.001 0.666992 39.001 2
c-9.33301 24.667 -20 43.667 -32 57l-2 -4c-2.66699 -24 -4.33398 -42.333 -5.00098 -55z" />
    <glyph glyph-name=".notdef" horiz-adv-x="355" 
 />
    <glyph glyph-name="space" unicode=" " horiz-adv-x="199" 
 />
    <glyph glyph-name="exclam" unicode="!" horiz-adv-x="253" 
d="M79 -8.5c-9.33301 6.33301 -13.833 16.832 -13.5 31.499s7 26.167 20 34.5s25.167 12.5 36.5 12.5s20.833 -3.16699 28.5 -9.5s11.5 -14.166 11.5 -23.499c0 -36.667 -18 -55 -54 -55c-10 0 -19.667 3.16699 -29 9.5zM194 569.499
c7.33301 -7 11.002 -15.3311 11.002 -24.998s-0.666992 -19 -2 -28s-3.5 -19.667 -6.5 -32s-6.33301 -28.833 -10 -49.5s-10.834 -65.334 -21.501 -134.001s-18.334 -116.334 -23.001 -143.001c-1.33301 -6 -4.5 -11.667 -9.5 -17s-10.167 -8 -15.5 -8
c-14.667 0 -22 13 -22 39c0 42 1 77.5 3 106.5s3.33301 56.167 4 81.5c0.666992 55.333 4.16699 96.5 10.5 123.5s15.333 49.833 27 68.5s23.167 28 34.5 28c6 0 12.667 -3.5 20 -10.5z" />
    <glyph glyph-name="quotedbl" unicode="&#x22;" horiz-adv-x="248" 
d="M48 580c14 0 24 -2.16602 30 -6.49902s9 -13.5 9 -27.5s-3.5 -38.333 -10.5 -73s-13.5 -59 -19.5 -73c-3.33301 -6 -9.5 -9 -18.5 -9s-14.167 3.66699 -15.5 11c-5.33301 23.333 -8 71.666 -8 144.999c0 22 11 33 33 33zM160 580.001c14 0 24 -2.16602 30 -6.49902
s9 -13.5 9 -27.5s-3.5 -38.333 -10.5 -73s-13.5 -59 -19.5 -73c-3.33301 -6 -9.5 -9 -18.5 -9s-14.167 3.66699 -15.5 11c-5.33301 23.333 -8 71.666 -8 144.999c0 22 11 33 33 33z" />
    <glyph glyph-name="numbersign" unicode="#" horiz-adv-x="572" 
d="M289 240l-88.998 -2.99805c-7.33301 -52 -17.666 -107.667 -30.999 -167c-13.333 -53.333 -31 -80 -53 -80c-10 0 -20.167 1.66699 -30.5 5s-15.833 8.33301 -16.5 15c0 17.333 10.167 48.166 30.5 92.499s32.166 73.166 35.499 86.499l12 47
c-6.66699 -0.666992 -19.167 -2.83398 -37.5 -6.50098s-33.166 -5.5 -44.499 -5.5c-21.333 0 -32 6 -32 18c0 4.66699 7.5 9 22.5 13s29.5 6.66699 43.5 8l56 5c7.33301 36 14.666 79 21.999 129l-88 -11c-20 0 -30 5.33301 -30 16c0 4.66699 7.66699 9.16699 23 13.5
s29.666 7.16602 42.999 8.49902l56 6c10 72.667 18.333 119 25 139c5.33301 20.667 12.333 31 21 31c5.33301 0 9.83301 -1.66699 13.5 -5s5.5 -8.66602 5.5 -15.999s-1.33301 -15.333 -4 -24s-5.5 -15.667 -8.5 -21s-5.16699 -13.5 -6.5 -24.5s-4 -36.5 -8 -76.5
c47.333 4.66699 94 8.33398 140 11.001c9.33301 60 17.166 101 23.499 123s13.666 33 21.999 33s12.5 -4.16699 12.5 -12.5s-2 -17.166 -6 -26.499c-4 -28.667 -8.33301 -67 -13 -115c52 3.33301 88.833 5 110.5 5s32.5 -4.66699 32.5 -14c0 -3.33301 -2 -8.83301 -6 -16.5
s-11.167 -15.5 -21.5 -23.5s-24.333 -12 -42 -12s-44.5 3 -80.5 9c-5.33301 -48 -10 -84.333 -14 -109c50 3.33301 85.5 5 106.5 5s31.5 -4.66699 31.5 -14c0 -3.33301 -2.16699 -8.33301 -6.5 -15s-11.666 -13.334 -21.999 -20.001s-25.833 -10 -46.5 -10
s-44 1.33301 -70 4c-8 -52 -17.667 -105.833 -29 -161.5s-27 -83.5 -47 -83.5c-9.33301 0 -18.5 1.66699 -27.5 5s-13.833 8.33301 -14.5 15c0 18 9 49.667 27 95s28.333 73.333 31 84l12 50c-8.66699 0.666992 -19.667 1 -33 1zM317.002 401.002l-99.999 -3
c-4.66699 -56.667 -8.66699 -98.667 -12 -126l126 10c1.33301 8.66699 3.66602 21 6.99902 37l14 80c-6 1.33301 -17.667 2 -35 2z" />
    <glyph glyph-name="dollar" unicode="$" horiz-adv-x="481" 
d="M337 459l4.99609 25.999c-1.33301 34.667 -24 52.667 -68 54c-1.33301 -39.333 -4 -105.666 -8 -198.999c80 -42.667 127.667 -79 143 -109c8 -15.333 12 -32 12 -50c0 -48.667 -16.667 -88.334 -50 -119.001s-74.666 -50.667 -123.999 -60c-4.66699 -46 -14 -69 -28 -69
s-21.333 21 -22 63c-53.333 0 -97.166 9.33301 -131.499 28s-51.5 49 -51.5 91c0 21.333 6.83301 40.666 20.5 57.999s34.167 26 61.5 26c10.667 0 20.334 -3.16699 29.001 -9.5s13.667 -14.166 15 -23.499c0 -10 -6 -15 -18 -15c-22.667 0 -34 -9.66699 -34 -29
c0 -21.333 9.5 -41 28.5 -59s45.833 -27.333 80.5 -28c0 6 6.33301 93 19 261c-68 36 -108.667 67.333 -122 94c-6.66699 13.333 -10 28 -10 44c0 36 14.833 67 44.5 93s64.834 42.667 105.501 50c0 37.333 8.66699 56 26 56c10 0 15 -17.333 15 -52
c32 0 60.667 -6.66699 86 -20s38 -33.666 38 -60.999c0 -37.333 -14 -56 -42 -56c-13.333 0 -20 5 -20 15zM347.996 158.999c0 39.333 -28.333 76.334 -85 111.001c-8.66699 -132.667 -13 -208.667 -13 -228c28 8 51.333 22.667 70 44s28 45.666 28 72.999zM154.996 446
c0 -26.667 22 -53.333 66 -80l11 166c-21.333 -8 -39.5 -20 -54.5 -36s-22.5 -32.667 -22.5 -50z" />
    <glyph glyph-name="percent" unicode="%" horiz-adv-x="521" 
d="M51 18c0 10 5.50391 21.5 16.5039 34.5l50 59c22.333 26.333 42.5 55.5 60.5 87.5c61.333 107.333 111.333 191 150 251c-26 -8 -49.333 -13 -70 -15c-2.66699 -32 -15.334 -59.667 -38.001 -83s-51.334 -35 -86.001 -35s-60 9.66699 -76 29s-24 42.333 -24 69
s9.33301 50.667 28 72s43.667 32 75 32c3.33301 0 6 -0.333008 8 -1c11.333 9.33301 25.666 14 42.999 14s32.5 -6.5 45.5 -19.5s21.167 -29.5 24.5 -49.5c29.333 2 61 10 95 24c9.33301 14 20.833 29.833 34.5 47.5s29.5 26.5 47.5 26.5s27 -6.66699 27 -20
c0 -20 -11.667 -35 -35 -45c-26.667 -12 -81.667 -99.333 -165 -262c-72.667 -142.667 -121.334 -220 -146.001 -232c-8 -4 -18 -6 -30 -6c-23.333 0 -35 7.33301 -35 22zM328.504 69.5c13 -15 29.333 -22.502 49 -22.502s35.334 8 47.001 24s17.5 33.333 17.5 52
s-1.83301 32.5 -5.5 41.5s-7.33398 15 -11.001 18s-6 4.5 -7 4.5s-3.5 -1 -7.5 -3s-8.66699 -3 -14 -3c-12.667 0 -19 4.66699 -19 14c0 18 13 27 39 27c16.667 0 31.5 -7 44.5 -21s19.5 -36.333 19.5 -67s-11.333 -58.5 -34 -83.5s-55 -37.5 -97 -37.5
c-28.667 0 -51.5 9.83301 -68.5 29.5s-25.5 43.834 -25.5 72.501s9.33301 55.834 28 81.501s43.667 38.5 75 38.5c9.33301 0 14 -3.33301 14 -10c0 -4.66699 -5.16699 -8.16699 -15.5 -10.5s-21 -13 -32 -32s-16.5 -38.833 -16.5 -59.5s6.5 -38.5 19.5 -53.5z
M142.004 348.998c24.667 0 43.168 8.5 55.501 25.5s19.166 36.5 20.499 58.5c-27.333 0.666992 -49 6 -65 16s-24 22 -24 36c0 6.66699 1.33301 12.667 4 18c-33.333 -6 -50 -32 -50 -78c0 -20 6 -37.667 18 -53s25.667 -23 41 -23zM176.005 506.998
c-6 0 -9.00098 -3.49902 -9.00098 -10.499s4.33301 -13.333 13 -19s20.334 -9.83398 35.001 -12.501c-6.66699 28 -19.667 42 -39 42z" />
    <glyph glyph-name="ampersand" unicode="&#x26;" horiz-adv-x="532" 
d="M140 312c-34 62.667 -51 113.335 -51 152.002s14.333 73 43 103s65.5 45 110.5 45s80.167 -9.83301 105.5 -29.5s38 -46.834 38 -81.501s-15 -66.334 -45 -95.001c-31.333 -28.667 -59.166 -50.667 -83.499 -66s-37.833 -24 -40.5 -26
c45.333 -65.333 101.333 -127 168 -185c11.333 24 17 46.167 17 66.5s-4 36.333 -12 48s-17.167 18.167 -27.5 19.5s-15.5 5.66602 -15.5 12.999c0 9.33301 4.66699 16.666 14 21.999s23.166 8 41.499 8s33.666 -7.33301 45.999 -22s18.5 -32.667 18.5 -54
c0 -46.667 -15 -90.667 -45 -132c46.667 -36.667 90.667 -62.667 132 -78l19 -6.5c4.66699 -1.66699 9 -3.5 13 -5.5c8 -3.33301 12 -8.16602 12 -14.499s-7.16699 -13.666 -21.5 -21.999s-27.166 -12.5 -38.499 -12.5c-52 0 -111.333 26.667 -178 80
c-50 -34.667 -107.5 -52 -172.5 -52s-112.5 13.833 -142.5 41.5s-45 60.667 -45 99s12.167 71.333 36.5 99s58.833 56.167 103.5 85.5zM85 155.001c0 -35.333 13 -65.332 39 -89.999s58.667 -37 98 -37s75.666 12.333 108.999 37
c-65.333 59.333 -122.666 129.666 -171.999 210.999c-49.333 -36.667 -74 -77 -74 -121zM282.5 416.502c19.667 21 29.499 44.333 29.499 70s-7.33301 46.5 -22 62.5s-35.167 24 -61.5 24s-45.666 -9.5 -57.999 -28.5s-18.5 -44 -18.5 -75s14.667 -71.5 44 -121.5
c38 24.667 66.833 47.5 86.5 68.5z" />
    <glyph glyph-name="quotesingle" unicode="'" horiz-adv-x="130" 
d="M41 580c14 0 23.999 -2.16602 29.999 -6.49902s9 -13.5 9 -27.5s-3.5 -38.333 -10.5 -73s-13.5 -59 -19.5 -73c-2.66699 -6 -8.66699 -9 -18 -9s-14.666 3.66699 -15.999 11c-5.33301 23.333 -8 71.666 -8 144.999c0 22 11 33 33 33z" />
    <glyph glyph-name="parenleft" unicode="(" horiz-adv-x="274" 
d="M238.5 -73.5c5 -7.66699 7.50098 -13.3311 7.50098 -16.998s-4 -6.5 -12 -8.5s-15.333 -3 -22 -3c-22.667 0 -39.667 6 -51 18c-32.667 32.667 -56.834 75.334 -72.501 128.001s-23.5 108 -23.5 166c0 120.667 46 240.667 138 360c24.667 32 45 48 61 48
c6 0 9 -4.33301 9 -13s-9.33301 -23.334 -28 -44.001c-72.667 -86.667 -109 -188.834 -109 -306.501s21.333 -209.5 64 -275.5c4 -6 10.167 -14.333 18.5 -25s15 -19.834 20 -27.501z" />
    <glyph glyph-name="parenright" unicode=")" horiz-adv-x="258" 
d="M40.5 589.5c-5 7.66699 -7.50098 13.3311 -7.50098 16.998s4 6.5 12 8.5s15.333 3 22 3c22.667 0 39.667 -6 51 -18c32.667 -32.667 56.834 -75.334 72.501 -128.001s23.5 -108 23.5 -166c0 -120.667 -46 -240.667 -138 -360c-24.667 -32 -45 -48 -61 -48
c-6 0 -9 4.33301 -9 13s9.33301 23.334 28 44.001c72.667 86.667 109 188.834 109 306.501s-21.333 209.5 -64 275.5c-4 6 -10.167 14.333 -18.5 25s-15 19.834 -20 27.501z" />
    <glyph glyph-name="asterisk" unicode="*" horiz-adv-x="373" 
d="M132 320c-22.667 0 -33.9932 9.99609 -33.9932 29.9961c0 9.33301 6.83301 22.333 20.5 39s22.5 29.334 26.5 38.001c-26.667 -5.33301 -52.334 -8 -77.001 -8s-37.334 5.33301 -38.001 16c0 8 7.33301 12 22 12c43.333 0 79 5.33301 107 16
c-24.667 27.333 -38.834 42.5 -42.501 45.5s-8.83398 7 -15.501 12s-11 8.33301 -13 10s-5.33301 4.66699 -10 9s-7.66699 7.83301 -9 10.5c-4.66699 9.33301 -7 17.333 -7 24c0 15.333 9.33301 23 28 23c8 0 14.667 -2.66699 20 -8s10.166 -10.666 14.499 -15.999
s8.16602 -10.333 11.499 -15c12.667 -15.333 26 -33 40 -53c8.66699 30.667 13.834 61.334 15.501 92.001s8.16699 46 19.5 46c10 0 15 -15 15 -45s-4.33301 -65.667 -13 -107c6 4 16.333 12 31 24s28.5 22 41.5 30s24.5 12 34.5 12s15 -7.83301 15 -23.5
s-8 -27.834 -24 -36.501c-30 -18 -60 -33 -90 -45c4 -4 13 -11.333 27 -22c34.667 -24.667 52 -42.667 52 -54c0 -7.33301 -4 -11 -12 -11c-25.333 0 -56 19.333 -92 58c-1.33301 -3.33301 -3.83301 -11.666 -7.5 -24.999s-6.83398 -23.166 -9.50098 -29.499
s-6.33398 -13.833 -11.001 -22.5c-8.66699 -17.333 -20.667 -26 -36 -26z" />
    <glyph glyph-name="plus" unicode="+" horiz-adv-x="402" 
d="M187 72c-8.66699 0 -15.667 2.83398 -21 8.50098s-8 12 -8 19s2.66699 18.5 8 34.5c9.33301 27.333 15.666 60.666 18.999 99.999c-8 0.666992 -21.667 1 -41 1s-35.5 -1 -48.5 -3s-20.167 -3 -21.5 -3c-16 0 -24 6 -24 18c0 8.66699 3.66699 16.667 11 24
s13.333 11 18 11s9.66699 -0.333008 15 -1c21.333 -2.66699 53.333 -4 96 -4c6 54 9 88.333 9 103s3.33301 25.5 10 32.5s12 10.5 16 10.5c6 0 9 -27.667 9 -83c0 -15.333 -0.666992 -36.333 -2 -63c48.667 0 79.667 2 93 6l27 9c7.33301 0 11 -5.16699 11 -15.5
s-3.5 -20.833 -10.5 -31.5s-15.5 -16 -25.5 -16c-35.333 0 -67.666 0.666992 -96.999 2c-8 -86 -15 -134 -21 -144s-13.333 -15 -22 -15z" />
    <glyph glyph-name="comma" unicode="," horiz-adv-x="152" 
d="M49 58.5c12.667 11.667 24 17.501 34 17.501s19 -6.16699 27 -18.5s12 -26.833 12 -43.5s-12.167 -42.167 -36.5 -76.5s-44.833 -51.5 -61.5 -51.5c-5.33301 0 -8 3.66699 -8 11s6.66699 19.666 20 36.999s20 30.833 20 40.5s-4.33301 19.5 -13 29.5s-13 18.667 -13 26
s6.33301 16.833 19 28.5z" />
    <glyph glyph-name="hyphen" unicode="-" horiz-adv-x="287" 
d="M244 267c-2 -46 -30.333 -69.001 -85 -69.001c-8.66699 0 -22 1.5 -40 4.5s-35.833 4.5 -53.5 4.5s-31.667 -0.666992 -42 -2s-16.166 -2 -17.499 -2c-14 0.666992 -20.833 7.83398 -20.5 21.501s7.16602 23.167 20.499 28.5c9.33301 4.66699 40.5 7 93.5 7s87 3 102 9
s25.833 9 32.5 9s10 -3.66699 10 -11z" />
    <glyph glyph-name="period" unicode="." horiz-adv-x="178" 
d="M42 -8.5c-9.33301 6.33301 -13.999 16.832 -13.999 31.499s6.66699 26.167 20 34.5s25.666 12.5 36.999 12.5s20.833 -3.16699 28.5 -9.5s11.5 -14.166 11.5 -23.499c0 -36.667 -18 -55 -54 -55c-10 0 -19.667 3.16699 -29 9.5z" />
    <glyph glyph-name="slash" unicode="/" horiz-adv-x="274" 
d="M-19 -137.5c-6 9 -9 18.6699 -9 29.0029s4.33301 26.666 13 48.999s17.667 42.833 27 61.5l61 111c27.333 54 55 134 83 240s47 169.833 57 191.5s21.667 32.5 35 32.5c4.66699 0 7 -4 7 -12s-2 -20 -6 -36c-60.667 -260.667 -116 -454.334 -166 -581.001
c-10.667 -26.667 -24 -49.834 -40 -69.501s-28.833 -29.5 -38.5 -29.5s-17.5 4.5 -23.5 13.5z" />
    <glyph glyph-name="zero" unicode="0" horiz-adv-x="467" 
d="M251 504l-52 -5.00195c-5.33301 0 -8 3.33301 -8 10c0 11.333 9 21 27 29s39 12 63 12c42 0 77.667 -20 107 -60s44 -98 44 -174c0 -74 -18.333 -144.333 -55 -211c-18 -32.667 -43 -59.167 -75 -79.5s-68.333 -30.5 -109 -30.5c-56.667 0 -98.167 19.5 -124.5 58.5
s-39.5 88.5 -39.5 148.5c0 112.667 27 204.334 81 275.001c22.667 30 42 45 58 45c4.66699 0 7 -2.33301 7 -7c0 -4 -3 -10 -9 -18c-28 -40 -45 -78.667 -51 -116s-9 -84.666 -9 -141.999s10.333 -104.166 31 -140.499s45.667 -54.5 75 -54.5s53.5 7.5 72.5 22.5
s33.167 34.833 42.5 59.5c18 48.667 27 100.667 27 156s-8.66699 106.166 -26 152.499s-43 69.5 -77 69.5z" />
    <glyph glyph-name="one" unicode="1" horiz-adv-x="313" 
d="M169 503c22.667 38 45.334 57.002 68.001 57.002s34 -44.667 34 -134c0 -26 -2.16699 -60.333 -6.5 -103s-7.16602 -73.334 -8.49902 -92.001c0 -50 -1.83301 -93.5 -5.5 -130.5s-6.16699 -58.833 -7.5 -65.5s-4 -14.334 -8 -23.001
c-6.66699 -14.667 -23.334 -22 -50.001 -22c-14.667 0 -22 16 -22 48s6.16699 90.167 18.5 174.5s18.5 148.833 18.5 193.5s-2.5 67 -7.5 67s-18.5 -21.667 -40.5 -65s-38.167 -77 -48.5 -101s-17.833 -45.833 -22.5 -65.5s-9.33398 -34.167 -14.001 -43.5s-11 -14 -19 -14
c-12.667 0 -19 6.83301 -19 20.5s15.167 53.167 45.5 118.5s61.833 125.333 94.5 180z" />
    <glyph glyph-name="two" unicode="2" horiz-adv-x="415" 
d="M108 455c0 -9.33301 3.16504 -21.499 9.49805 -36.499s9.5 -26.667 9.5 -35s-2.83301 -16.5 -8.5 -24.5s-13.167 -12 -22.5 -12s-17.166 7.66699 -23.499 23s-9.5 30.666 -9.5 45.999c0 42.667 17 77.334 51 104.001s71 40 111 40s74.5 -11 103.5 -33
s43.5 -51.167 43.5 -87.5s-6.83301 -67.5 -20.5 -93.5s-29.5 -47 -47.5 -63l-80.5 -71c-35.667 -31.333 -66.834 -61.333 -93.501 -90c24 -4 57.167 -12.167 99.5 -24.5s67.166 -18.5 74.499 -18.5c24.667 0 48 18 70 54c11.333 19.333 19.333 29 24 29c6 0 9 -4 9 -12
c0 -18.667 -9.5 -43.334 -28.5 -74.001s-36.167 -51.834 -51.5 -63.501s-38.333 -17.5 -69 -17.5c-9.33301 0 -33.666 11 -72.999 33s-71 33 -95 33c-18.667 -40.667 -35.667 -61 -51 -61c-11.333 0 -20.5 3.33301 -27.5 10s-10.5 17.334 -10.5 32.001s7.66699 31.667 23 51
s33 30.333 53 33c22.667 24 48.334 49.667 77.001 77s49.167 47.333 61.5 60s25 27.667 38 45s21.667 34.333 26 51s6.5 37.667 6.5 63s-7.66699 47.5 -23 66.5s-35.666 28.5 -60.999 28.5s-47.333 -4.66699 -66 -14s-28 -25.333 -28 -48z" />
    <glyph glyph-name="three" unicode="3" horiz-adv-x="404" 
d="M94 492l5.00293 -25.002c0 -5.33301 -4.16699 -8 -12.5 -8s-15.333 6.16699 -21 18.5s-8.5 25.833 -8.5 40.5s5 28 15 40s22.333 18 37 18s41.667 -6.66699 81 -20s73.666 -20.333 102.999 -21c14 16.667 28 25 42 25c27.333 0 41 -20 41 -60
c0 -12.667 -8.33301 -23 -25 -31s-33 -12 -49 -12c-10 -12 -24.833 -28.833 -44.5 -50.5s-37.5 -42.167 -53.5 -61.5c16 2.66699 32 4 48 4c38 0 68 -15.833 90 -47.5s33 -65.167 33 -100.5c0 -66.667 -24.333 -118.5 -73 -155.5s-106 -55.5 -172 -55.5
c-27.333 0 -53.833 9.33301 -79.5 28s-38.5 37.334 -38.5 56.001c0 8.66699 2.16699 15.834 6.5 21.501s11.333 8.5 21 8.5s19.5 -4 29.5 -12s17.667 -16.833 23 -26.5s13.166 -18.5 23.499 -26.5s22.166 -12 35.499 -12c45.333 0 81.166 16.5 107.499 49.5
s39.5 71.5 39.5 115.5c0 25.333 -8.66699 51 -26 77s-39.333 39 -66 39c-10.667 0 -22.667 -1.33301 -36 -4s-23.833 -4 -31.5 -4s-11.5 3 -11.5 9s2.66699 11.667 8 17c49.333 46.667 89.333 92 120 136c-24 5.33301 -51.667 15.333 -83 30s-49.666 22 -54.999 22
c-15.333 0 -23 -7.33301 -23 -22z" />
    <glyph glyph-name="four" unicode="4" horiz-adv-x="440" 
d="M239 161l-195.003 -11.001c-11.333 0 -20.333 3 -27 9s-10 12.5 -10 19.5s9 13.167 27 18.5c5.33301 17.333 26.166 69 62.499 155s56 134.5 59 145.5s6.16699 23.833 9.5 38.5s6.33301 25.667 9 33s8.33398 15 17.001 23s18 12 28 12s17.167 -4.33301 21.5 -13
s6.5 -18 6.5 -28c0 -25.333 -8.66699 -51.166 -26 -77.499s-40.666 -67.5 -69.999 -123.5s-53.666 -109.333 -72.999 -160c32 0 65.5 3.83301 100.5 11.5s58.833 12.5 71.5 14.5c10 116 22.667 174 38 174c7.33301 0 14.833 -5 22.5 -15s11.5 -20 11.5 -30l-8 -123
c26 0 48.833 -6 68.5 -18s29.5 -25 29.5 -39c0 -17.333 -11 -26 -33 -26c-9.33301 0 -21.166 1.83301 -35.499 5.5s-26.5 5.5 -36.5 5.5c-1.33301 -28 -2 -71.333 -2 -130c0 -12 -5.16699 -22 -15.5 -30s-24.833 -12 -43.5 -12c-13.333 0 -20 11 -20 33
c0 35.333 4.33301 81.333 13 138z" />
    <glyph glyph-name="five" unicode="5" horiz-adv-x="391" 
d="M119 348c23.333 7.33301 54.667 11.0049 94 11.0049s72.333 -15.667 99 -47s40 -66.166 40 -104.499s-7.33301 -72.5 -22 -102.5s-33.334 -53 -56.001 -69c-46 -30.667 -88.333 -46 -127 -46s-72.334 8.66699 -101.001 26s-43 35.666 -43 54.999
c0 9.33301 3 18.166 9 26.499s13.667 12.5 23 12.5s18.5 -4.33301 27.5 -13s16.167 -18.334 21.5 -29.001s14.333 -20.334 27 -29.001s28 -13 46 -13c30 0 57.333 13.833 82 41.5s37 63.167 37 106.5s-12.167 78.166 -36.5 104.499s-53.833 39.5 -88.5 39.5
c-13.333 0 -26.166 -2 -38.499 -6s-23.5 -6 -33.5 -6s-15 4.33301 -15 13s4.33301 14.667 13 18c10 47.333 15 87.333 15 120c-12.667 2.66699 -23.5 8 -32.5 16s-13.5 17.5 -13.5 28.5s4.5 21.333 13.5 31s17.833 14.5 26.5 14.5s16.667 -3.16699 24 -9.5
s12.333 -14.5 15 -24.5c26.667 0 52.834 4.33301 78.501 13s46.167 18 61.5 28l42.5 28c13 8.66699 21.833 13 26.5 13c12.667 0 19 -14.333 19 -43c0 -16 -7.16699 -31 -21.5 -45s-38.333 -26.167 -72 -36.5s-76.5 -15.5 -128.5 -15.5c0 -22.667 -4 -58.334 -12 -107.001z
" />
    <glyph glyph-name="six" unicode="6" horiz-adv-x="447" 
d="M278 560c36 0 64.6699 -9.33301 86.0029 -28s32 -43.667 32 -75c0 -12.667 -3 -25.667 -9 -39s-16.333 -20 -31 -20c-20 0 -30 9.33301 -30 28c0 4.66699 1.83301 11.5 5.5 20.5s5.5 16.167 5.5 21.5c-0.666992 35.333 -21.834 53 -63.501 53
s-76.834 -22.167 -105.501 -66.5s-46 -108.166 -52 -191.499c32.667 39.333 80 59 142 59c37.333 0 68.833 -14.167 94.5 -42.5s38.5 -65.333 38.5 -111s-15.833 -86.834 -47.5 -123.501s-74.834 -55 -129.501 -55c-117.333 0 -176 69 -176 207c0 128.667 30.333 227 91 295
c40 45.333 89.667 68 149 68zM307.503 246c-15 26.667 -35.666 40 -61.999 40s-50.166 -5.33301 -71.499 -16c-30.667 -16.667 -50.334 -34.667 -59.001 -54c0 -39.333 6 -78.333 18 -117c6.66699 -21.333 17.667 -38.5 33 -51.5s33.666 -19.5 54.999 -19.5
c34 0 60.667 13.5 80 40.5s29 56.667 29 89s-7.5 61.833 -22.5 88.5z" />
    <glyph glyph-name="seven" unicode="7" horiz-adv-x="354" 
d="M167 225c-8.66699 0 -18.666 -1.83203 -29.999 -5.49902s-20.333 -5.5 -27 -5.5c-13.333 0 -20 5.33301 -20 16c0 26 32.333 39 97 39c31.333 69.333 55.333 126.666 72 171.999c-30.667 6.66699 -70 18.667 -118 36s-74.667 26 -80 26c-14 0 -21 -7.33301 -21 -22
c0 -5.33301 1.5 -11.833 4.5 -19.5s4.5 -12.834 4.5 -15.501c0 -5.33301 -2.33301 -8 -7 -8c-10.667 0 -20.167 7.83301 -28.5 23.5s-12.5 30.834 -12.5 45.501s4.66699 28 14 40s21.333 18 36 18s49.167 -8.16699 103.5 -24.5s96.166 -24.833 125.499 -25.5
c4 6 11.333 12.833 22 20.5s20.167 11.5 28.5 11.5s16.166 -6.16699 23.499 -18.5s11 -28.5 11 -48.5c0 -12 -6.83301 -21.667 -20.5 -29s-28.834 -12 -45.501 -14c-15.333 -46 -36 -103.667 -62 -173c20.667 -2 42.834 -3 66.501 -3s35.5 -5.33301 35.5 -16
c0 -8.66699 -9 -13.667 -27 -15c-6 -0.666992 -35.667 -1.66699 -89 -3c-28.667 -76.667 -44.667 -120.667 -48 -132s-6.33301 -23.666 -9 -36.999s-5.5 -24 -8.5 -32s-9.16699 -16 -18.5 -24s-19.833 -12 -31.5 -12s-20 4.33301 -25 13s-7.5 18 -7.5 28
c0 24 12 52.333 36 85c10.667 15.333 29.334 51.666 56.001 108.999z" />
    <glyph glyph-name="eight" unicode="8" horiz-adv-x="405" 
d="M135 542c16.667 12 27.834 17.998 33.501 17.998s8.5 -2.83301 8.5 -8.5s-6.33301 -16.167 -19 -31.5c-20.667 -24.667 -31 -50.334 -31 -77.001c0 -41.333 28.333 -78.666 85 -111.999c67.333 42.667 101 82.667 101 120c0 22 -5.83301 39.167 -17.5 51.5
s-23.834 18.5 -36.501 18.5s-24.334 -2 -35.001 -6s-17.667 -6 -21 -6c-6 0 -9 4.66699 -9 14s7.66699 17.833 23 25.5s34.5 11.5 57.5 11.5s45.167 -7.33301 66.5 -22s32 -34 32 -58c0 -24.667 -4 -43 -12 -55l-18 -27c-8 -12 -26.167 -28 -54.5 -48
s-44.5 -31.667 -48.5 -35c89.333 -52 134 -109.333 134 -172c0 -51.333 -19 -89.666 -57 -114.999s-89.333 -38 -154 -38c-39.333 0 -74.166 9.33301 -104.499 28s-45.5 47.334 -45.5 86.001c0 71.333 52 138 156 200c-21.333 14 -38 25.5 -50 34.5s-23.667 22 -35 39
s-17 34.833 -17 53.5c0 42 22.667 79 68 111zM295 133.998c0 53.333 -31.6689 103.333 -95.002 150c-76.667 -64.667 -115 -123.667 -115 -177c0 -24.667 9.33301 -45.667 28 -63s43.834 -26 75.501 -26s57.334 11.333 77.001 34s29.5 50 29.5 82z" />
    <glyph glyph-name="nine" unicode="9" horiz-adv-x="428" 
d="M174 27c28 0 51.833 10 71.5 30s33.834 46.333 42.501 79c16 56 24 115.333 24 178c0 141.333 -31.667 212 -95 212c-27.333 0 -51.5 -15.167 -72.5 -45.5s-31.5 -64.166 -31.5 -101.499c0 -47.333 9 -83 27 -107c12 -14.667 28.5 -22 49.5 -22s42 4.66699 63 14
s33.333 14 37 14s5.5 -2.66699 5.5 -8c0 -12.667 -11.333 -25.334 -34 -38.001s-52.667 -19 -90 -19s-66.833 15.667 -88.5 47s-32.5 66.666 -32.5 105.999c0 51.333 17.167 96.5 51.5 135.5s75.166 58.5 122.499 58.5c26 0 49 -5 69 -15s35.833 -22.667 47.5 -38
s21.5 -33.666 29.5 -54.999c12.667 -36 19 -77.333 19 -124c0 -225.333 -77.667 -338 -233 -338c-28.667 0 -54.5 8.5 -77.5 25.5s-34.667 36 -35 57s6.16699 31.5 19.5 31.5s24.666 -4 33.999 -12s16.333 -16.833 21 -26.5s11.834 -18.5 21.501 -26.5s21.167 -12 34.5 -12z
" />
    <glyph glyph-name="colon" unicode=":" horiz-adv-x="205" 
d="M83 -8.5c-9.33301 6.33301 -13.999 16.832 -13.999 31.499s6.66699 26.167 20 34.5s25.666 12.5 36.999 12.5s20.833 -3.16699 28.5 -9.5s11.5 -14.166 11.5 -23.499c0 -36.667 -18 -55 -54 -55c-10 0 -19.667 3.16699 -29 9.5zM83.001 276.499
c-9.33301 6.33301 -13.999 16.832 -13.999 31.499s6.66699 26.167 20 34.5s25.666 12.5 36.999 12.5s20.833 -3.16699 28.5 -9.5s11.5 -14.166 11.5 -23.499c0 -36.667 -18 -55 -54 -55c-10 0 -19.667 3.16699 -29 9.5z" />
    <glyph glyph-name="semicolon" unicode=";" horiz-adv-x="203" 
d="M87 58.5c12.667 11.667 24 17.501 34 17.501s19 -6.16699 27 -18.5s12 -26.833 12 -43.5s-12.167 -42.167 -36.5 -76.5s-44.833 -51.5 -61.5 -51.5c-5.33301 0 -8 3.66699 -8 11s6.66699 19.666 20 36.999s20 30.833 20 40.5s-4.33301 19.5 -13 29.5s-13 18.667 -13 26
s6.33301 16.833 19 28.5zM83 276.501c-9.33301 6.33301 -13.999 16.832 -13.999 31.499s6.66699 26.167 20 34.5s25.666 12.5 36.999 12.5s20.833 -3.16699 28.5 -9.5s11.5 -14.166 11.5 -23.499c0 -36.667 -18 -55 -54 -55c-10 0 -19.667 3.16699 -29 9.5z" />
    <glyph glyph-name="less" unicode="&#x3c;" horiz-adv-x="443" 
d="M388 409c14 0 21 -5.66699 21 -17c0 -16.667 -16.333 -33.667 -49 -51c-14 -8 -46.667 -21.5 -98 -40.5s-94.333 -36.5 -129 -52.5c56.667 -16 113.5 -37.5 170.5 -64.5s85.5 -46.5 85.5 -58.5c0 -22 -6.33301 -33 -19 -33c-10 0 -52 16.667 -126 50s-127 54.5 -159 63.5
s-48 19.833 -48 32.5c0 6.66699 3 12.334 9 17.001s15.667 7 29 7s92.333 35 237 105c15.333 7.33301 31.5 16.166 48.5 26.499s26.167 15.5 27.5 15.5z" />
    <glyph glyph-name="equal" unicode="=" horiz-adv-x="511" 
d="M365 138c-24.667 0 -55.167 3 -91.5 9s-62 9 -77 9s-27.667 -1.16699 -38 -3.5s-22.5 -3.5 -36.5 -3.5c-25.333 0 -38 9 -38 27c0 19.333 23.667 29 71 29c22.667 0 44.667 -1.66699 66 -5c32.667 -6 61 -9 85 -9c30 0 59.667 9 89 27c2.66699 2 5.5 3 8.5 3
s4.5 -5.33301 4.5 -16s-4 -24.5 -12 -41.5s-18.333 -25.5 -31 -25.5zM183 287l-72.998 -4.00098c-14 0.666992 -20.833 7.83398 -20.5 21.501s7.16602 23.167 20.499 28.5c9.33301 4.66699 54.166 7 134.499 7s128 3 143 9s25.833 9 32.5 9s10 -3.66699 10 -11
c-2 -46 -30.333 -69 -85 -69z" />
    <glyph glyph-name="greater" unicode="&#x3e;" horiz-adv-x="453" 
d="M56 88c-14 0 -21.001 5.66602 -21.001 16.999c0 16.667 16.333 33.667 49 51c14 8 46.667 21.5 98 40.5s94.333 36.5 129 52.5c-55.333 12 -111.833 32.333 -169.5 61s-86.5 49.334 -86.5 62.001c0 24.667 7 37 21 37c8.66699 0 48.834 -18.333 120.501 -55
s120.667 -58 147 -64s43.833 -10.667 52.5 -14s13 -8 13 -14s-3.5 -12 -10.5 -18s-17.5 -9.33301 -31.5 -10s-92.333 -35.334 -235 -104.001c-15.333 -7.33301 -31.5 -16.166 -48.5 -26.499s-26.167 -15.5 -27.5 -15.5z" />
    <glyph glyph-name="question" unicode="?" horiz-adv-x="386" 
d="M160 133c-16 0 -29.001 6.33301 -39.001 19s-15 27.834 -15 45.501s5.16699 33.334 15.5 47.001s22.833 25.167 37.5 34.5s29.5 19.333 44.5 30s27.667 25.667 38 45s15.5 43.166 15.5 71.499s-7.83301 51.833 -23.5 70.5s-37.5 28 -65.5 28
c-12 0 -23.333 -5.33301 -34 -16c-13.333 -14 -24 -32 -32 -54c-8 -17.333 -19 -26 -33 -26c-8 0 -14.167 3 -18.5 9s-6.5 12.333 -6.5 19c0.666992 28.667 18.167 53.167 52.5 73.5s68.833 30.5 103.5 30.5s66.167 -10.167 94.5 -30.5s42.5 -47.333 42.5 -81
s-6 -62.334 -18 -86.001s-26.667 -42 -44 -55s-34.833 -24.5 -52.5 -34.5s-32.5 -19.833 -44.5 -29.5s-18 -19 -18 -28s5 -17.833 15 -26.5s15 -15.167 15 -19.5s-3.66699 -11.5 -11 -21.5s-13.666 -15 -18.999 -15zM103.999 -8.5
c-9.33301 6.33301 -13.833 16.832 -13.5 31.499s7 26.167 20 34.5s25.167 12.5 36.5 12.5s20.833 -3.16699 28.5 -9.5s11.5 -14.166 11.5 -23.499c0 -36.667 -18 -55 -54 -55c-10 0 -19.667 3.16699 -29 9.5z" />
    <glyph glyph-name="at" unicode="@" horiz-adv-x="727" 
d="M406 11c-4.66699 4.66699 -7.00098 16.834 -7.00098 36.501s0.666992 48.167 2 85.5c-18.667 -47.333 -36.5 -82.166 -53.5 -104.499s-39.167 -33.5 -66.5 -33.5s-51 12.5 -71 37.5s-30 64.333 -30 118s15.167 101.167 45.5 142.5s70.166 62 119.499 62
c21.333 0 45.333 -14 72 -42c6 8.66699 16 19.5 30 32.5s25.833 19.5 35.5 19.5s14.5 -14.333 14.5 -43s-5 -54 -15 -76s-15 -59.333 -15 -112s2 -82.667 6 -90s11.333 -11 22 -11c22 0 41.833 10.667 59.5 32s30.667 45.5 39 72.5s12.5 52.167 12.5 75.5
c0 76.667 -18.167 140.5 -54.5 191.5s-87.666 76.5 -153.999 76.5s-124 -17.5 -173 -52.5s-85.833 -78.833 -110.5 -131.5s-37 -107.334 -37 -164.001c0 -79.333 25.667 -142 77 -188s112.333 -69 183 -69c57.333 0 116 15 176 45c33.333 16.667 52.5 25 57.5 25
s7.5 -4.66699 7.5 -14c0 -13.333 -21 -31.333 -63 -54c-72.667 -39.333 -150.167 -59 -232.5 -59s-150 25.167 -203 75.5s-79.5 117.166 -79.5 200.499c0 124 37.667 225.667 113 305s175 119 299 119c54.667 0 103.5 -14.5 146.5 -43.5s74.667 -63.167 95 -102.5
s30.5 -78 30.5 -116c0 -78 -18.333 -141.167 -55 -189.5s-89.667 -72.5 -159 -72.5c-29.333 0 -50.666 5.33301 -63.999 16zM338.999 315c-18.667 0 -38.501 -13.833 -59.501 -41.5s-31.5 -60.167 -31.5 -97.5s5.5 -68 16.5 -92s25.5 -36 43.5 -36
c22.667 0 55.667 57 99 171l4 50c-6 10.667 -16.667 21 -32 31s-28.666 15 -39.999 15z" />
    <glyph glyph-name="A" unicode="A" 
d="M396 46c12 0 28.001 13.835 48.001 41.502s39.833 63.334 59.5 107.001s31.667 65.5 36 65.5s6.5 -2.66699 6.5 -8c0 -18.667 -9.66699 -48.334 -29 -89.001c-52.667 -112 -97.334 -168 -134.001 -168c-30.667 0 -52.667 5.33301 -66 16c-6 6 -9 69.333 -9 190l-164 -12
c-12.667 -34.667 -24 -69.334 -34 -104.001s-16.667 -56 -20 -64c-7.33301 -17.333 -25 -26 -53 -26c-18.667 0 -28 8 -28 24s12.667 39.333 38 70c4.66699 6 20 38.333 46 97c-9.33301 -0.666992 -18.333 -1 -27 -1c-23.333 0 -35 10 -35 30c0 18 9.33301 27 28 27
c1.33301 0 20.333 -1.66699 57 -5c10 23.333 20.667 46.333 32 69c87.333 182.667 147.333 274 180 274c24.667 0 41.667 -114.333 51 -343h9c4.66699 0 7 -3.33301 7 -10s-5 -12.334 -15 -17.001c4 -109.333 9.33301 -164 16 -164zM159.001 232.002
c78 0 127.67 0.331055 149.003 0.998047c-0.666992 10.667 -1.33398 29.334 -2.00098 56.001s-1.33398 49.834 -2.00098 69.501l-2 61.5c-2.66699 46 -6.66699 69 -12 69c-7.33301 0 -22.333 -21.667 -45 -65s-40.334 -80 -53.001 -110z" />
    <glyph glyph-name="B" unicode="B" horiz-adv-x="506" 
d="M255 26c36 0 67.833 12.6699 95.5 38.0029s41.5 54.5 41.5 87.5s-10.333 63.5 -31 91.5c-22.667 -11.333 -45 -17 -67 -17c-51.333 0 -77 16 -77 48c0 9.33301 6.33301 17.833 19 25.5s30.834 11.5 54.501 11.5s49.5 -7 77.5 -21c26.667 28.667 40 61 40 97
c0 44.667 -19.5 80.167 -58.5 106.5s-80.833 39.5 -125.5 39.5c-9.33301 0 -16.333 -0.333008 -21 -1c-0.666992 -19.333 -2.33398 -50.333 -5.00098 -93c-4 -64 -6 -161.667 -6 -293c0 -50.667 -3.66699 -76 -11 -76c-28.667 0 -47 4 -55 12s-12 31 -12 69
c0 9.33301 1.83301 47.666 5.5 114.999s5.5 121.666 5.5 162.999s1.33301 71.666 4 90.999c-35.333 -12 -54.333 -31.333 -57 -58c-2.66699 -22 -7.5 -37.333 -14.5 -46s-16.333 -13 -28 -13s-19.5 3.16699 -23.5 9.5s-6 12.833 -6 19.5c0 58 45 98 135 120
c11.333 45.333 29.333 68 54 68c10 0 15 -18.667 15 -56c17.333 2 38.833 3 64.5 3s55.167 -4.83301 88.5 -14.5s62.333 -26.667 87 -51s37 -51.5 37 -81.5c0 -56 -27 -106.333 -81 -151c37.333 -29.333 56 -64.333 56 -105s-12.667 -74.334 -38 -101.001
c-47.333 -48.667 -110.666 -73 -189.999 -73c-54 0 -92.667 3.66699 -116 11c-4.66699 1.33301 -9.5 4.83301 -14.5 10.5s-7.5 12.834 -7.5 21.501c0 14 13.667 21 41 21c8.66699 0 27.667 -4.66699 57 -14s51.666 -14 66.999 -14zM340 265.003
c-20 16.667 -38.833 25 -56.5 25s-26.5 -3.66699 -26.5 -11c0 -15.333 16.333 -23 49 -23c12 0 23.333 3 34 9z" />
    <glyph glyph-name="C" unicode="C" horiz-adv-x="412" 
d="M410 165c4.66699 6.66699 11.334 18.332 20.001 34.999c21.333 38 34.166 57 38.499 57s6.5 -2.66699 6.5 -8c0 -32.667 -17 -74 -51 -124c-61.333 -90 -143 -135 -245 -135c-28.667 0 -55 6.66699 -79 20s-43 30.333 -57 51c-28.667 42 -43 86 -43 132
c0 116 30.167 209.5 90.5 280.5s131.833 106.5 214.5 106.5c31.333 0 57 -9.16699 77 -27.5s30 -41.5 30 -69.5s-7 -54 -21 -78s-30.833 -36 -50.5 -36s-29.5 5.33301 -29.5 16c0 12 6.5 25.667 19.5 41s19.5 30.666 19.5 45.999c0 47.333 -25.167 71 -75.5 71
s-95.833 -33.667 -136.5 -101s-61 -136.666 -61 -207.999c0 -49.333 14 -93.166 42 -131.499s67.333 -57.5 118 -57.5c60 0 117.667 40 173 120z" />
    <glyph glyph-name="D" unicode="D" horiz-adv-x="654" 
d="M78 359l5.99707 -63.999c0 -6.66699 -3.5 -12 -10.5 -16s-12.833 -6 -17.5 -6c-9.33301 0 -17.5 7.5 -24.5 22.5s-10.5 28.833 -10.5 41.5c0 49.333 17.167 91.166 51.5 125.499s77.833 60.166 130.5 77.499c0 22.667 4.83301 44.167 14.5 64.5s24.834 30.5 45.501 30.5
c8.66699 0 13 -12.333 13 -37v-42c21.333 2.66699 37 4 47 4c88.667 0 158.834 -24.833 210.501 -74.5s77.5 -112.167 77.5 -187.5c0 -52 -9.33301 -98 -28 -138s-44 -71.667 -76 -95c-64 -46.667 -140.667 -70 -230 -70h-21c-2 -19.333 -4.66699 -29 -8 -29
c-31.333 0 -52.333 4.33301 -63 13c-4.66699 4.66699 -7.33398 12.667 -8.00098 24c-59.333 16.667 -89 35 -89 55c0 6.66699 2.33301 11.834 7 15.501s9.83398 5.5 15.501 5.5s27.834 -8 66.501 -24c6 174.667 13.667 324.667 23 450
c-36.667 -12.667 -66.167 -31.667 -88.5 -57s-33.5 -55 -33.5 -89zM295.997 521.001c-9.33301 0 -16.334 -0.333984 -21.001 -1.00098c-2.66699 -116.667 -6 -214.667 -10 -294c-3.33301 -103.333 -5.66602 -168.333 -6.99902 -195c13.333 -2 27.333 -3 42 -3
c63.333 0 118.333 23.5 165 70.5s70 104.833 70 173.5s-22.333 127.334 -67 176.001s-102 73 -172 73z" />
    <glyph glyph-name="E" unicode="E" horiz-adv-x="436" 
d="M271 335.5c-10.667 5.66699 -23 8.5 -37 8.5s-27.667 -3.33301 -41 -10c22.667 -20.667 47.667 -31 75 -31c6 0 10.667 1.5 14 4.5s5 5.5 5 7.5c0 8 -5.33301 14.833 -16 20.5zM334 482l1.99902 27.001c0 14.667 -5.5 28.5 -16.5 41.5s-25.833 19.5 -44.5 19.5
c-32 0 -61 -14.333 -87 -43s-39 -59.167 -39 -91.5s8.33301 -59.5 25 -81.5c28.667 12.667 55.334 19 80.001 19s44.5 -4.16699 59.5 -12.5s22.5 -20.833 22.5 -37.5s-8.16699 -29 -24.5 -37s-34.5 -12 -54.5 -12c-37.333 0 -71.333 10.333 -102 31
c-16 -16.667 -28.833 -36.334 -38.5 -59.001s-14.5 -43.667 -14.5 -63c0 -39.333 12.667 -75.333 38 -108s59 -49 101 -49c88 0 159.667 58 215 174c18.667 38 30.5 57 35.5 57s7.5 -2.66699 7.5 -8c0 -26.667 -16.5 -66.834 -49.5 -120.501s-68.667 -91 -107 -112
s-85.333 -31.5 -141 -31.5s-99.5 16.333 -131.5 49s-48 73.334 -48 122.001c0 32 9.5 62.833 28.5 92.5s43.5 55.167 73.5 76.5c-31.333 26 -47 57.333 -47 94c0 50.667 19.667 93.5 59 128.5s87 52.5 143 52.5c36.667 0 67.5 -9.5 92.5 -28.5s37.5 -41.5 37.5 -67.5
c0 -14.667 -4.33301 -26.667 -13 -36s-19.667 -14 -33 -14c-19.333 0 -29 9.33301 -29 28z" />
    <glyph glyph-name="F" unicode="F" horiz-adv-x="409" 
d="M69 401l9.99805 -47.001c0 -11.333 -4 -20.666 -12 -27.999s-17.333 -11 -28 -11s-18.5 5 -23.5 15s-7.5 21 -7.5 33c0 36 15.5 68.5 46.5 97.5s66.167 43.5 105.5 43.5h6c13.333 50.667 33.333 76 60 76c8 0 12 -10.667 12 -32c0 -4 -1 -20 -3 -48
c10 -1.33301 21.667 -3 35 -5c31.333 -4.66699 57.5 -7 78.5 -7s42.333 3.5 64 10.5s36.167 10.5 43.5 10.5c18.667 0 28 -9.5 28 -28.5s-10 -33.333 -30 -43s-49 -14.5 -87 -14.5s-84.333 8.66699 -139 26c-8 -46 -12.667 -80.667 -14 -104s-2.66602 -58 -3.99902 -104
c28 1.33301 66.667 2 116 2c8.66699 0 16.167 -3.33301 22.5 -10s9.5 -13.667 9.5 -21s-2.33301 -13.333 -7 -18s-9.66699 -7 -15 -7l-127 7c-2.66699 -65.333 -4.83398 -109.666 -6.50098 -132.999s-8.16699 -45 -19.5 -65s-24.666 -30 -39.999 -30
c-8.66699 0 -18.167 4.5 -28.5 13.5s-15.5 17.5 -15.5 25.5s1.16699 14.167 3.5 18.5s5 8.66602 8 12.999s5.16699 7.83301 6.5 10.5c8 17.333 15.333 65 22 143l-39 -5c-5.33301 0 -9.66602 1.83301 -12.999 5.5s-5 8 -5 13s1 9.5 3 13.5s6 7.16699 12 9.5
s10.333 3.83301 13 4.5c10.667 2.66699 21.334 4 32.001 4c1.33301 16 3.16602 50.667 5.49902 104s5.83301 95 10.5 125c-4 0.666992 -10 1 -18 1c-47.333 0 -71 -21.333 -71 -64z" />
    <glyph glyph-name="G" unicode="G" horiz-adv-x="551" 
d="M487 214c20.667 6 42.332 16.1699 64.999 30.5029s37 21.5 43 21.5s9 -3.83301 9 -11.5s-4.66699 -14.834 -14 -21.501c-34 -24 -69.333 -42.333 -106 -55c-14 -64.667 -45.333 -113 -94 -145s-104.334 -48 -167.001 -48c-40 0 -75.167 7 -105.5 21s-53.5 32 -69.5 54
c-32 43.333 -48 89 -48 137c0 62 9.5 118.167 28.5 168.5s43.833 90.666 74.5 120.999s63.834 53.5 99.501 69.5s71.834 24 108.501 24s70.334 -11.833 101.001 -35.5s46 -50.834 46 -81.501c0 -10 -3.83301 -18.333 -11.5 -25s-16.834 -10 -27.501 -10
c-15.333 0 -26 10.667 -32 32c-14.667 51.333 -49.667 77 -105 77c-46.667 0 -91.834 -29 -135.501 -87s-65.5 -126.667 -65.5 -206c0 -56 16.833 -104.667 50.5 -146s75.834 -62 126.501 -62c40.667 0 75.334 11.667 104.001 35s47 53.333 55 90
c-16.667 -3.33301 -37 -5 -61 -5s-44.833 5.66699 -62.5 17s-26.5 26.833 -26.5 46.5s10.167 36.5 30.5 50.5s46.166 21 77.499 21s57.833 -6.33301 79.5 -19s32.5 -32 32.5 -58zM371.998 257.003c-30 0 -45 -6.66699 -45 -20c0 -10 6 -18.333 18 -25s24.5 -10 37.5 -10
s26.167 0.666992 39.5 2c-0.666992 16 -6 28.833 -16 38.5s-21.333 14.5 -34 14.5z" />
    <glyph glyph-name="H" unicode="H" horiz-adv-x="550" 
d="M79 446.5c8 -13 11.998 -23.3311 11.998 -30.998s-1.83301 -14.5 -5.5 -20.5s-8.5 -9 -14.5 -9c-11.333 0 -20.666 9.66699 -27.999 29s-11 39.666 -11 60.999c0 32 11.833 60.667 35.5 86s53.834 38 90.501 38c24.667 0 43.167 -11.833 55.5 -35.5
s18.5 -50.5 18.5 -80.5s-0.833008 -58.167 -2.5 -84.5s-3.16699 -46.666 -4.5 -60.999s-4 -37 -8 -68s-6.66699 -52.5 -8 -64.5c53.333 0 109.333 27 168 81c8 96 19.167 171.167 33.5 225.5s28.833 92.5 43.5 114.5s30.5 33 47.5 33s31 -7.66699 42 -23
s16.5 -33.666 16.5 -54.999c0 -78.667 -35 -163.667 -105 -255c-4 -52.667 -6 -101.167 -6 -145.5s6.5 -87.333 19.5 -129s19.5 -65 19.5 -70s-3.66699 -9 -11 -12s-15.333 -4.5 -24 -4.5c-23.333 0 -42.333 6 -57 18c-7.33301 6 -13.333 26.333 -18 61s-7 67.167 -7 97.5
s1 63.166 3 98.499c-59.333 -50.667 -115.666 -77 -168.999 -79c-0.666992 -9.33301 -1.33398 -24.833 -2.00098 -46.5s-1.66699 -37.667 -3 -48s-4 -22.166 -8 -35.499c-6.66699 -24.667 -22.667 -37 -48 -37c-15.333 0 -23 13.167 -23 39.5s4 72.166 12 137.499
c-30 12.667 -45 35 -45 67c0 23.333 6 43.166 18 59.499s26.667 24.5 44 24.5c6 61.333 9 108.666 9 141.999c0 60 -9.33301 90 -28 90c-42.667 0 -64 -21.667 -64 -65c0 -16 4 -30.5 12 -43.5zM527.998 565.002c0 10 -1.5 19.167 -4.5 27.5s-6.83301 12.5 -11.5 12.5
c-18.667 0 -35.667 -72.333 -51 -217c44.667 68 67 127 67 177zM146.998 291.002c-9.33301 -6.66699 -14 -15.668 -14 -27.001s2.66699 -20.666 8 -27.999z" />
    <glyph glyph-name="I" unicode="I" horiz-adv-x="429" 
d="M371 502l3.99902 -185.993c0 -224 -76.667 -336 -230 -336c-30 0 -57.167 7 -81.5 21s-36.5 35.667 -36.5 65c0 18 4.66699 32.833 14 44.5s21.833 17.5 37.5 17.5s23.5 -3.66699 23.5 -11c0 -3.33301 -2 -9.83301 -6 -19.5s-6 -19.334 -6 -29.001s5.66699 -20 17 -31
s28.333 -16.5 51 -16.5s42.334 4.66699 59.001 14s30 23.166 40 41.499s18.167 37.166 24.5 56.499s10.833 43.666 13.5 72.999c4 43.333 6 92.5 6 147.5s0.666992 100.5 2 136.5c-85.333 -14.667 -128 -51.334 -128 -110.001c0 -16.667 -3.5 -29.667 -10.5 -39
s-15.833 -14 -26.5 -14c-20 0 -30 11.333 -30 34c0 40.667 17.833 74.667 53.5 102s84.167 47.666 145.5 60.999c4.66699 27.333 16 49.5 34 66.5s34.333 25.5 49 25.5s26.5 -4.16699 35.5 -12.5s13.5 -19.5 13.5 -33.5c0 -32.667 -22.667 -55.334 -68 -68.001z
M397.999 582.007c-14.667 0 -23.333 -15 -26 -45c24 7.33301 36 17 36 29c0 10.667 -3.33301 16 -10 16z" />
    <glyph glyph-name="J" unicode="J" horiz-adv-x="415" 
d="M78 361c0 40.667 17.666 74.6738 52.999 102.007s83.333 47.666 144 60.999c4 28 15.333 50.333 34 67s35.5 25 50.5 25s27 -4.16699 36 -12.5s13.5 -19.5 13.5 -33.5c0 -32.667 -23 -55.334 -69 -68.001c-10 -186.667 -15 -282.334 -15 -287.001
c20 11.333 43.5 22.166 70.5 32.499s46.167 15.5 57.5 15.5s17 -2.33301 17 -7c0 -8.66699 -4 -14.334 -12 -17.001c-43.333 -14 -88 -35 -134 -63c-5.33301 -141.333 -8.66602 -226 -9.99902 -254c-4.66699 -78.667 -22 -138.667 -52 -180s-71.667 -62 -125 -62
c-42 0 -75.333 17.167 -100 51.5s-37 72.166 -37 113.499c0 58.667 20.667 114.167 62 166.5s104.333 106.166 189 161.499l21 316c-84.667 -14.667 -127 -51 -127 -109c0 -16.667 -3.5 -29.667 -10.5 -39s-15.833 -14 -26.5 -14c-20 0 -30 11.333 -30 34zM150.999 -283.993
c45.333 0 72 50.334 80 151.001c4 50.667 7.5 101 10.5 151l6.5 107c-27.333 -19.333 -49.333 -35.833 -66 -49.5s-34.667 -30.834 -54 -51.501c-36.667 -41.333 -55 -91.333 -55 -150c0 -56.667 9.66699 -100 29 -130c12.667 -18.667 29 -28 49 -28zM367.999 582.008
c-14.667 0 -23.333 -15 -26 -45c24 7.33301 36 17 36 29c0 10.667 -3.33301 16 -10 16z" />
    <glyph glyph-name="K" unicode="K" horiz-adv-x="653" 
d="M617 -33l39.999 4.00195c6 0 9 -2.66699 9 -8c-1.33301 -12 -11.833 -24.667 -31.5 -38s-42.5 -20 -68.5 -20c-28 0 -57.333 31.333 -88 94c-26.667 52.667 -53.667 114.334 -81 185.001c-19.333 -10.667 -39.333 -17.667 -60 -21
c-29.333 -135.333 -101.333 -203 -216 -203c-30 0 -57.667 7 -83 21s-38 35.667 -38 65c0 18 4.66699 32.833 14 44.5s21.833 17.5 37.5 17.5s23.5 -3.66699 23.5 -11c0 -3.33301 -2 -9.83301 -6 -19.5s-6 -19.334 -6 -29.001s5.66699 -20 17 -31s28.333 -16.5 51 -16.5
s42.334 5.16699 59.001 15.5s30 25.5 40 45.5s18.167 40.333 24.5 61s10.833 46.334 13.5 77.001c4.66699 44 7 94.667 7 152s0.666992 103.333 2 138c-85.333 -14.667 -128 -51.334 -128 -110.001c0 -16.667 -3.5 -29.667 -10.5 -39s-15.833 -14 -26.5 -14
c-20 0 -30 11.333 -30 34c0 40 18 73.833 54 101.5s84 48.167 144 61.5c4.66699 26.667 16.5 48.667 35.5 66s36 26 51 26s27 -4.16699 36 -12.5s13.5 -19.5 13.5 -33.5c0 -32.667 -22.667 -55.334 -68 -68.001l4 -186c0 -38.667 -2.33301 -74.667 -7 -108
c34 10.667 67.333 41 100 91s60.667 113.667 84 191c18 60 48.333 90 91 90c18 0 27 -11 27 -33c0 -21.333 -13.333 -41 -40 -59c-10 -6.66699 -15.667 -11.334 -17 -14.001c-52 -119.333 -99.667 -202 -143 -248c42 -86 76.167 -150.667 102.5 -194s48.833 -65 67.5 -65z
M374.999 582.002c-14 0 -22.667 -15 -26 -45c24 7.33301 36 17 36 29c0 10.667 -3.33301 16 -10 16z" />
    <glyph glyph-name="L" unicode="L" horiz-adv-x="482" 
d="M266.5 521.5c34.333 39 79.499 58.502 135.499 58.502s84 -19.333 84 -58c0 -26 -6.16699 -49.833 -18.5 -71.5s-28.833 -39.834 -49.5 -54.501c-40.667 -27.333 -88.334 -47 -143.001 -59c-13.333 -114.667 -33 -196.667 -59 -246
c61.333 -20.667 102.666 -33.834 123.999 -39.501s43.833 -8.5 67.5 -8.5s39.834 9.66699 48.501 29s15 29 19 29c8 0 12 -5 12 -15c0 -31.333 -11.667 -58 -35 -80s-48.666 -33 -75.999 -33c-28 0 -53.333 4.66699 -76 14s-37 15.333 -43 18l-36.5 17l-38.5 18
c-25.333 -26.667 -59.333 -40 -102 -40c-17.333 -0 -32.666 6.33301 -45.999 19s-20 27.667 -20 45c0 38 21.667 57 65 57c18.667 0 44.667 -4.33301 78 -13c12.667 40 26 112.667 40 218c-7.33301 -0.666992 -17.166 -1 -29.499 -1s-18.5 2 -18.5 6
c0 12.667 17.333 20.667 52 24c9.33301 72 31.166 127.5 65.499 166.5zM383.499 413.502c27.667 22.333 41.499 51.501 41.499 87.501s-12.333 54 -37 54c-54 0 -90.667 -63 -110 -189c42.667 9.33301 77.834 25.166 105.501 47.499zM133.998 61.0029
c-38.667 16.667 -62.498 25 -71.498 25s-13.5 -4.66699 -13.5 -14s4.16699 -17.333 12.5 -24s19.166 -10 32.499 -10s26.666 7.66699 39.999 23z" />
    <glyph glyph-name="M" unicode="M" horiz-adv-x="651" 
d="M529 46c12 0 28.167 13.832 48.5 41.499s40.333 63.334 60 107.001s31.667 65.5 36 65.5s6.5 -2.66699 6.5 -8c0 -18.667 -11.333 -52.667 -34 -102c-48.667 -103.333 -92.334 -155 -131.001 -155c-14.667 0 -28 1.83301 -40 5.5s-19.333 7.16699 -22 10.5
c-6.66699 8 -10 37.333 -10 88c0 120 4 217.333 12 292c-38.667 -38 -74 -81.333 -106 -130c14 -53.333 21 -99.5 21 -138.5s-7.5 -69.167 -22.5 -90.5s-33.833 -32 -56.5 -32c-27.333 -0 -41 26.333 -41 79c0 36 14.333 83.667 43 143
c-13.333 46.667 -32.666 92.334 -57.999 137.001c-10.667 -60.667 -27 -122.667 -49 -186s-44.667 -110.5 -68 -141.5s-51 -46.5 -83 -46.5c-23.333 0 -35 9 -35 27c0 14.667 5 25 15 31s21.833 10.5 35.5 13.5s22.5 6.5 26.5 10.5c26 27.333 50.5 74 73.5 140
s39.833 133.667 50.5 203c-28.667 37.333 -43 65.166 -43 83.499s4.83301 34.5 14.5 48.5s25.5 21 47.5 21c6.66699 0 12.334 -8.5 17.001 -25.5s7 -34.833 7 -53.5c40.667 -59.333 71.667 -120.666 93 -183.999c37.333 61.333 80 118 128 170c20.667 126 44.667 189 72 189
c9.33301 0 19.166 -7 29.499 -21s15.5 -28.333 15.5 -43c0 -45.333 -19.667 -91.333 -59 -138c-8 -56.667 -12 -139.334 -12 -248.001s6 -163 18 -163zM303 178.999c-16 -35.333 -24 -66.833 -24 -94.5s3.33301 -41.5 10 -41.5s11.667 8.16699 15 24.5s5 33.5 5 51.5
s-2 38 -6 60z" />
    <glyph glyph-name="N" unicode="N" horiz-adv-x="497" 
d="M179.5 171c-19 -64 -39.833 -110.998 -62.5 -140.998s-50 -45 -82 -45c-23.333 0 -35 9 -35 27c0 14.667 5 25 15 31s21.833 10.5 35.5 13.5s22.5 6.5 26.5 10.5c24.667 26 47.5 72.5 68.5 139.5s36.167 135.167 45.5 204.5c-28.667 30 -43 54.333 -43 73
s5.33301 40.167 16 64.5s23.334 36.5 38.001 36.5c8.66699 0 16.334 -10.667 23.001 -32s10 -48 10 -80c34.667 -44 61.667 -82 81 -114c20.667 68 49 125.167 85 171.5s77.333 69.5 124 69.5c16.667 0 30 -6 40 -18s15 -25.333 15 -40s-2.83301 -27.834 -8.5 -39.501
s-13.167 -17.5 -22.5 -17.5s-14 4.66699 -14 14s-2.83301 16.5 -8.5 21.5s-12.834 7.5 -21.501 7.5c-27.333 0 -53 -14.333 -77 -43c-34 -40.667 -62.333 -98.667 -85 -174c44 -94.667 66 -171.334 66 -230.001c0 -24 -5.33301 -45.167 -16 -63.5
s-26.334 -27.5 -47.001 -27.5c-44 0 -66 37.333 -66 112c0 52.667 4 102.667 12 150c-20 42.667 -42.667 81.667 -68 117c-10.667 -68 -25.5 -134 -44.5 -198zM316 186.002c-3.33301 -24 -5 -48.667 -5 -74s1.66699 -45 5 -59s7 -21 11 -21c8 0 12 13.667 12 41
s-7.66699 65 -23 113z" />
    <glyph glyph-name="O" unicode="O" horiz-adv-x="586" 
d="M21 223c0 44.667 8.49707 88.832 25.4971 132.499s41.5 79.834 73.5 108.501c8 43.333 28.833 78.5 62.5 105.5s81.834 40.5 144.501 40.5s112.834 -24.5 150.501 -73.5s56.5 -112.833 56.5 -191.5c0 -51.333 -7.66699 -100 -23 -146
c30.667 10.667 58.5 24.167 83.5 40.5s37.833 24.5 38.5 24.5c7.33301 0 11 -4.33301 11 -13c0 -7.33301 -16 -21.5 -48 -42.5s-65 -35.833 -99 -44.5c-24.667 -54 -59.667 -96.5 -105 -127.5s-100.166 -46.5 -164.499 -46.5s-114.833 21.5 -151.5 64.5
s-55 99.167 -55 168.5zM442.997 186.998c8.66699 30 13.002 63.332 13.002 99.999c0 78.667 -14.833 145.334 -44.5 200.001s-71.834 82 -126.501 82c-23.333 0 -46.5 -6.5 -69.5 -19.5s-39.5 -30.5 -49.5 -52.5c34.667 19.333 69.834 29 105.501 29s53.5 -5 53.5 -15
c0 -6 -2.33301 -10.667 -7 -14s-9.33398 -5 -14.001 -5c-57.333 0 -106 -19.333 -146 -58c5.33301 -68 35.166 -126.167 89.499 -174.5s119.5 -72.5 195.5 -72.5zM264.999 40.9971c80 0 135.666 37.668 166.999 113.001c-80 0 -149.5 21 -208.5 63s-93.833 97 -104.5 165
c-18.667 -35.333 -28 -75 -28 -119c0 -60.667 16.833 -112.834 50.5 -156.501s74.834 -65.5 123.501 -65.5z" />
    <glyph glyph-name="P" unicode="P" horiz-adv-x="553" 
d="M291 579c4 0.666992 14.833 0.999023 32.5 0.999023s39 -3.16699 64 -9.5s49.333 -16.666 73 -30.999s42.667 -35.333 57 -63s21.5 -60.5 21.5 -98.5c0 -62.667 -24.333 -113.334 -73 -152.001s-113 -58 -193 -58c0 -130 -23 -195 -69 -195c-30.667 0 -46 13 -46 39
c0 8 4 19 12 33s13.667 30 17 48s6 47 8 87c-27.333 8.66699 -41 20.667 -41 36s7 23 21 23c7.33301 0 14.666 -1 21.999 -3c8.66699 178 14.667 276.333 18 295c-38 -9.33301 -69.5 -24.666 -94.5 -45.999s-37.5 -46.666 -37.5 -75.999c0 -16.667 -3.5 -29.667 -10.5 -39
s-15.833 -14 -26.5 -14c-20 0 -30 11.333 -30 34c0 44.667 19.833 83.167 59.5 115.5s89.167 54.166 148.5 65.499c12.667 42.667 30.334 64 53.001 64c9.33301 0 14 -18.667 14 -56zM464 349.999c0 60 -17.166 105.832 -51.499 137.499s-75.833 48.5 -124.5 50.5
c-10 -118 -15 -229 -15 -333c9.33301 -1.33301 16.666 -2 21.999 -2c56 0 98.167 14.333 126.5 43s42.5 63.334 42.5 104.001z" />
    <glyph glyph-name="Q" unicode="Q" horiz-adv-x="599" 
d="M342 592c64.667 0 115.668 -21 153.001 -63s56 -100 56 -174s-15.833 -141.333 -47.5 -202s-75.834 -105.334 -132.501 -134.001c28.667 -25.333 49 -38 61 -38c35.333 0 64 16.333 86 49c11.333 16.667 20.333 25 27 25s10 -3.33301 10 -10
c0 -16 -5.66699 -32.667 -17 -50c-33.333 -52 -79.666 -78 -138.999 -78c-26 0 -61.333 26 -106 78c-18.667 -3.33301 -35.667 -5 -51 -5c-60.667 0 -110.167 22 -148.5 66s-57.5 97.667 -57.5 161c0 97.333 24 182.333 72 255c23.333 36.667 55.166 65.834 95.499 87.501
s86.5 32.5 138.5 32.5zM315.001 546c-71.333 0 -123.833 -26.3311 -157.5 -78.998s-50.5 -122.334 -50.5 -209.001c0 -36 7.33301 -69.667 22 -101s33.667 -57.333 57 -78c19.333 19.333 39.333 29 60 29s51.667 -19.333 93 -58c43.333 14 76.333 42.833 99 86.5
s34 99.167 34 166.5s-14.667 124.666 -44 171.999s-67 71 -113 71z" />
    <glyph glyph-name="R" unicode="R" horiz-adv-x="584" 
d="M551 -43l32.999 8.00195c10.667 0 16 -5.33301 16 -16c-0.666992 -17.333 -9.5 -32.833 -26.5 -46.5s-36.167 -20.5 -57.5 -20.5s-38.333 10.333 -51 31c-18 30 -35 83.667 -51 161c-7.33301 37.333 -16 68 -26 92c-18 -6 -37 -9 -57 -9s-37.5 4.16699 -52.5 12.5
s-22.5 18.5 -22.5 30.5c1.33301 30.667 26 46 74 46c23.333 0 48.333 -10.333 75 -31c41.333 31.333 62 75 62 131c0 33.333 -6.33301 62.833 -19 88.5s-29.334 45.834 -50.001 60.501c-40.667 28.667 -86 43 -136 43c-1.33301 -14.667 -3.66602 -38 -6.99902 -70
c-6.66699 -66.667 -10.667 -118.334 -12 -155.001l-3 -158c0 -121.333 -24 -182 -72 -182c-30.667 0 -46 13 -46 39c0 6.66699 4.5 18 13.5 34s15.5 34.5 19.5 55.5s8.33301 82.667 13 185s11 182.833 19 241.5c-35.333 -10 -64.166 -25.333 -86.499 -46
s-33.5 -45 -33.5 -73c0 -16 -3.66699 -28.833 -11 -38.5s-16.333 -14.5 -27 -14.5c-19.333 0 -29 10.333 -29 31c-0 46.667 18.833 85.167 56.5 115.5s84.167 52.166 139.5 65.499c13.333 44.667 32 67 56 67c9.33301 0 14 -10.667 14 -32c0 -4.66699 -0.666992 -13 -2 -25
c7.33301 1.33301 21.333 2 42 2s44 -3 70 -9s52.167 -16.167 78.5 -30.5s47.5 -36 63.5 -65s24 -62.833 24 -101.5s-10 -74.667 -30 -108s-46 -60 -78 -80c22.667 -28 40.5 -62.333 53.5 -103s25.167 -71.834 36.5 -93.501s20.333 -32.5 27 -32.5zM310.999 198.002
c9.33301 -4 19.166 -6 29.499 -6s19.833 1.66699 28.5 5c-13.333 15.333 -28.666 23 -45.999 23s-26 -2.66699 -26 -8s4.66699 -10 14 -14z" />
    <glyph glyph-name="S" unicode="S" horiz-adv-x="479" 
d="M333 459l4.99902 25.999c-2.66699 36 -27 54 -73 54c-26.667 0 -49.834 -9.5 -69.501 -28.5s-29.5 -39 -29.5 -60s8.83301 -39.333 26.5 -55s39 -29.667 64 -42s50 -25.666 75 -39.999s46.333 -32.833 64 -55.5s26.5 -48.334 26.5 -77.001
c0 -59.333 -23.333 -106 -70 -140s-97 -51 -151 -51s-99 9.83301 -135 29.5s-54 49.5 -54 89.5c0 21.333 7.33301 40.666 22 57.999s35.667 26 63 26c10.667 0 20.334 -3 29.001 -9s14 -14 16 -24c0 -10 -6 -15 -18 -15c-22.667 0 -34 -9.66699 -34 -29
c0.666992 -22 11.167 -42 31.5 -60s49 -27 86 -27s68.667 12.667 95 38s39.5 56 39.5 92c0 24 -9 45.667 -27 65s-39.667 35.833 -65 49.5l-76.5 41.5c-25.667 14 -47.5 31 -65.5 51s-27 42.667 -27 68c0 44.667 19.167 80.334 57.5 107.001s81.833 40 130.5 40
c32.667 0 62.334 -6.66699 89.001 -20s40.334 -33.666 41.001 -60.999c0 -16 -4 -29.333 -12 -40s-18.833 -16 -32.5 -16s-20.834 5 -21.501 15z" />
    <glyph glyph-name="T" unicode="T" horiz-adv-x="420" 
d="M307 326l-0.000976562 170c-12.667 2.66699 -31 6.83398 -55 12.501s-42.333 9.83398 -55 12.501c-38 8 -68 12 -90 12c-42 0 -63 -11.667 -63 -35c0 -26 8.83301 -48 26.5 -66s33.5 -27 47.5 -27s26.5 3.66699 37.5 11s20.833 11 29.5 11c11.333 0 17 -5.83301 17 -17.5
s-5.16699 -21.167 -15.5 -28.5s-26.5 -11 -48.5 -11c-35.333 0 -65.333 15.333 -90 46s-37 62 -37 94s7.33301 56 22 72s33 24 55 24c50.667 0 126 -16 226 -48c8 42 23 63 45 63c10 0 15 -27.333 15 -82c64.667 -20 120.334 -30 167.001 -30c30 0 56.333 9.66699 79 29
c6.66699 5.33301 12.5 8 17.5 8s7.5 -2.33301 7.5 -7c0 -18 -13.333 -34.167 -40 -48.5s-58.667 -21.5 -96 -21.5s-82.333 4.66699 -135 14c1.33301 -92 2 -155.333 2 -190s-1.16699 -64.334 -3.5 -89.001s-7.5 -50.5 -15.5 -77.5s-18.5 -49.667 -31.5 -68
s-31 -33.5 -54 -45.5s-49.667 -18 -80 -18s-57.666 7 -81.999 21s-36.5 35.667 -36.5 65c0 18 4.66699 32.833 14 44.5s21.833 17.5 37.5 17.5s23.5 -3.66699 23.5 -11c0 -3.33301 -2 -9.83301 -6 -19.5s-6 -19.334 -6 -29.001s6.16699 -20.167 18.5 -31.5
s30.166 -17 53.499 -17c66 0 99 97 99 291z" />
    <glyph glyph-name="U" unicode="U" horiz-adv-x="509" 
d="M415 46c11.333 0 27.002 13.8301 47.002 41.4971s39.833 63.334 59.5 107.001s31.667 65.5 36 65.5s6.5 -2.66699 6.5 -8c0 -18.667 -9.66699 -48.334 -29 -89.001c-52.667 -112 -96.667 -168 -132 -168c-30.667 0 -52.334 5 -65.001 15
c-5.33301 5.33301 -8 18.333 -8 39s1.66699 52.667 5 96c-25.333 -43.333 -52.166 -79.166 -80.499 -107.499s-56.333 -42.5 -84 -42.5s-50.167 14.833 -67.5 44.5s-26 69.667 -26 120s5 113.333 15 189s15 131.834 15 168.501c0 9.33301 -2.33301 14 -7 14
c-10.667 0 -22.834 -7.83301 -36.501 -23.5s-22.834 -39.834 -27.501 -72.501c-0.666992 -7.33301 -3.5 -13.833 -8.5 -19.5s-10.167 -8.5 -15.5 -8.5c-8 0 -12 6.66699 -12 20s6.66699 32.166 20 56.499s30.833 46.5 52.5 66.5s42.834 30 63.501 30
c24 0 35.833 -19.167 35.5 -57.5s-4.5 -94.166 -12.5 -167.499s-12 -128.333 -12 -165c0 -93.333 17.333 -140 52 -140c20 0 43.333 16 70 48s50.334 69.333 71.001 112c13.333 170.667 23 276.334 29 317.001c1.33301 6 11.666 16.333 30.999 31s34.166 22 44.499 22
s15.5 -19.333 15.5 -58c0 -29.333 -2.33301 -54.666 -7 -75.999s-10.5 -46.333 -17.5 -75l-15.5 -64c-6.66699 -89.333 -10 -167.333 -10 -234c0 -18 1.66699 -27 5 -27z" />
    <glyph glyph-name="V" unicode="V" horiz-adv-x="507" 
d="M234 -20c-55.333 0 -92.999 23.999 -112.999 71.999c-14 32.667 -25 74 -33 124c-20 -22.667 -33.333 -38.167 -40 -46.5s-12.667 -12.5 -18 -12.5c-8 0 -12 3.33301 -12 10c0 4 2 8 6 12c23.333 23.333 43.333 44.666 60 63.999c-5.33301 38 -8 78.5 -8 121.5
s4 83.5 12 121.5s21.5 69.833 40.5 95.5s42.5 38.5 70.5 38.5c34 0 51 -29 51 -87c0 -74.667 -30 -151.667 -90 -231c4.66699 -60 16.334 -116.333 35.001 -169c7.33301 -21.333 15.5 -37.166 24.5 -47.499s21.667 -15.5 38 -15.5s34.666 11.167 54.999 33.5
s39.166 51.333 56.499 87s32 78.667 44 129s18 102.833 18 157.5s-4 93.167 -12 115.5s-21.667 42.5 -41 60.5c-25.333 21.333 -38 42.333 -38 63c0 10 4.16699 18.833 12.5 26.5s16.833 11.5 25.5 11.5c22 0 40.5 -7 55.5 -21s25.833 -33 32.5 -57c12 -42 18 -88 18 -138
c0 -94 -12.833 -181.667 -38.5 -263s-57.667 -144.166 -96 -188.499s-76.833 -66.5 -115.5 -66.5zM212.001 479.999c0 35.333 -4 52.999 -12 52.999c-5.33301 0 -11.333 -8 -18 -24s-12.667 -38.333 -18 -67s-8 -56.667 -8 -84s0.333008 -46.666 1 -57.999
c36.667 61.333 55 121.333 55 180z" />
    <glyph glyph-name="W" unicode="W" horiz-adv-x="689" 
d="M452 480l-6.00195 -73.9971c0 -93.333 6 -175.5 18 -246.5s26.333 -106.5 43 -106.5c22.667 0 47.667 31.667 75 95s41 126.666 41 189.999c0 72.667 -7.66699 122 -23 148c-6 9.33301 -15.333 20.333 -28 33c-23.333 23.333 -35 45.666 -35 66.999
c0 10 2.83301 18.167 8.5 24.5s12.5 9.5 20.5 9.5c20.667 0 38 -8.16699 52 -24.5s24 -37.5 30 -63.5c11.333 -46 17 -94.667 17 -146c0 -119.333 -22.167 -216 -66.5 -290s-87.833 -111 -130.5 -111c-30.667 0 -53.5 32.667 -68.5 98s-22.5 148.333 -22.5 249
c-40 -166.667 -82.333 -272 -127 -316c-22 -20.667 -45.667 -31 -71 -31c-13.333 0 -26.5 5.83301 -39.5 17.5s-22.5 27.167 -28.5 46.5c-13.333 39.333 -20 114.333 -20 225c-28 4 -53 11.333 -75 22c-10.667 5.33301 -16 11.333 -16 18s6.66699 10 20 10l72 -15
c6 115.333 27.667 204.333 65 267c20 34 42.333 51 67 51c44.667 0 67 -33.333 67 -100c0 -54 -10.333 -105.667 -31 -155s-51.667 -80.666 -93 -93.999c0 -44.667 2.66699 -84.667 8 -120c10.667 -70 23.667 -105 39 -105c12.667 0 29.334 19.167 50.001 57.5
s40.834 90.166 60.501 155.499s32.5 129.666 38.5 192.999c0.666992 9.33301 9.66699 20 27 32s29.333 18 36 18c17.333 0 26 -9.66699 26 -29zM233.498 390.503c15.667 43 23.499 77 23.499 102s-1 43.5 -3 55.5c-4.66699 20.667 -11 31 -19 31
c-14.667 0 -29.167 -30.5 -43.5 -91.5s-22.5 -120.5 -24.5 -178.5c28.667 11.333 50.834 38.5 66.501 81.5z" />
    <glyph glyph-name="X" unicode="X" horiz-adv-x="524" 
d="M405 -20c-25.333 0 -47.666 13.1641 -66.999 39.4971s-49 82.833 -89 169.5c-86 -139.333 -143.667 -209 -173 -209c-33.333 0 -50 9.66699 -50 29c0 10.667 8 23.834 24 39.501l77 75.5c35.333 34.667 68.666 72.667 99.999 114c-28.667 57.333 -55 104 -79 140
c-0.666992 -1.33301 -18 -40.666 -52 -117.999c-6.66699 -17.333 -15.334 -26 -26.001 -26c-7.33301 0 -11 4.66699 -11 14s3.66699 21.333 11 36c21.333 38 40.333 80 57 126c-20.667 33.333 -31 54.333 -31 63c0 29.333 3.66699 57.833 11 85.5s18 41.5 32 41.5
c32 0 48 -27.667 48 -83l95 -200c14.667 18 34.334 51.833 59.001 101.5s47.667 92.334 69 128.001s40.333 53.5 57 53.5s25 -7 25 -21c0 -17.333 -2.83301 -31 -8.5 -41s-14.834 -20.667 -27.501 -32s-22.667 -22 -30 -32c-37.333 -54 -78.666 -120.333 -123.999 -199
c67.333 -142.667 108.333 -214 123 -214c22.667 0 60 57.667 112 173c8 18 15 27 21 27c2 0 4.16699 -1.83301 6.5 -5.5s3.5 -8.16699 3.5 -13.5c-1.33301 -28 -22 -78.667 -62 -152s-73.667 -110 -101 -110z" />
    <glyph glyph-name="Y" unicode="Y" horiz-adv-x="519" 
d="M113 517c0 9.33301 -2.32812 14.0029 -6.99512 14.0029c-10.667 0 -22.834 -7.83301 -36.501 -23.5s-22.834 -39.834 -27.501 -72.501c-0.666992 -7.33301 -3.5 -13.833 -8.5 -19.5s-10.167 -8.5 -15.5 -8.5c-8 0 -12 6.66699 -12 20s6.66699 32.166 20 56.499
s30.833 46.5 52.5 66.5s42.834 30 63.501 30c24 0 35.833 -19.167 35.5 -57.5s-4.5 -94.166 -12.5 -167.499s-12 -128.333 -12 -165c0 -93.333 17.333 -140 52 -140c25.333 0 54.833 23.667 88.5 71s59.167 95.666 76.5 144.999c13.333 145.333 23.666 239 30.999 281
c1.33301 6 11.666 16.333 30.999 31s34.166 22 44.499 22s15.5 -15.667 15.5 -47c0 -36.667 -3.33301 -68.334 -10 -95.001l-34 -131c-8 -53.333 -13.667 -129 -17 -227c29.333 15.333 54.666 23 75.999 23c8 0 12 -2.83301 12 -8.5s-4 -10.167 -12 -13.5
c-27.333 -8.66699 -53.333 -21 -78 -37c0 -148.667 -10.167 -249.834 -30.5 -303.501s-63.833 -80.5 -130.5 -80.5c-73.333 0 -110 31 -110 93c0 46 17.833 93.167 53.5 141.5s83.5 93.833 143.5 136.5c2 42 4.66699 87 8 135c-26.667 -52.667 -56.5 -97.667 -89.5 -135
s-64.333 -56 -94 -56s-53.167 14.833 -70.5 44.5s-26 69.667 -26 120s5 113.333 15 189s15 131.834 15 168.501zM260.505 -91.4971c-23 -39 -34.5 -73.333 -34.5 -103s5.66699 -52 17 -67s24.333 -22.5 39 -22.5c20.667 0 36.5 22.167 47.5 66.5s18.5 119.833 22.5 226.5
c-38 -28 -68.5 -61.5 -91.5 -100.5z" />
    <glyph glyph-name="Z" unicode="Z" 
d="M490 456c-15.333 -14 -33.4961 -20.9971 -54.4961 -20.9971s-45.167 6.33301 -72.5 19c-72 -86.667 -141.333 -196.334 -208 -329.001c32 -4.66699 78.167 -16.667 138.5 -36s94.166 -29 101.499 -29c38 0 79 47.667 123 143c17.333 38 30 57 38 57
c4 0 6 -4.16699 6 -12.5s-11.333 -38 -34 -89s-41.5 -88.833 -56.5 -113.5s-30.833 -42.5 -47.5 -53.5s-41.334 -16.5 -74.001 -16.5c-16 0 -50 14.333 -102 43s-91.333 43 -118 43c-20.667 -40.667 -40 -61 -58 -61c-28.667 0 -43 12.667 -43 38
c0 11.333 6.83301 26.166 20.5 44.499s29.5 31.5 47.5 39.5c82.667 141.333 163 256.333 241 345c-85.333 48.667 -150.333 73 -195 73c-16.667 0 -25 -14.333 -25 -43c0 -8 2 -19.5 6 -34.5s6 -23.833 6 -26.5c0 -8 -3.83301 -12 -11.5 -12s-15.667 11.5 -24 34.5
s-12.5 46.833 -12.5 71.5s5 45.834 15 63.501s23.167 26.5 39.5 26.5s33.166 -2 50.499 -6s32.333 -8.33301 45 -13s27.5 -11.834 44.5 -21.501l37.5 -21.5l66 -46c34.667 33.333 62 50 82 50c13.333 0 25.166 -4.33301 35.499 -13s15.5 -22.834 15.5 -42.501
s-7.66699 -36.5 -23 -50.5zM460.004 507.003c0 9.33301 -5.33203 14 -15.999 14s-24.334 -7.66699 -41.001 -23c11.333 -6 20.333 -9 27 -9c20 0 30 6 30 18z" />
    <glyph glyph-name="bracketleft" unicode="[" horiz-adv-x="372" 
d="M323 551l-70.998 4c-42 0 -65 -2 -69 -6c-10 -10 -15 -28.333 -15 -55c0 -63.333 -4 -161.5 -12 -294.5s-12 -212.667 -12 -239s1.66699 -41.833 5 -46.5s21 -7 53 -7s58.167 2.66699 78.5 8s35.166 8 44.499 8s15.666 -1.66699 18.999 -5s5 -6.66602 5 -9.99902
c0 -10.667 -7.66699 -18.667 -23 -24c-26.667 -9.33301 -69 -14 -127 -14s-95.333 3.66699 -112 11c-8 3.33301 -12 15 -12 35c0 69.333 4.83301 166.666 14.5 291.999s14.5 209.666 14.5 252.999c0 89.333 13.667 134 41 134l82 -5l103 5c6 0 11.5 -2.66699 16.5 -8
s7.5 -11.666 7.5 -18.999c0 -11.333 -10.333 -17 -31 -17z" />
    <glyph glyph-name="backslash" unicode="\" horiz-adv-x="274" 
d="M283 -108.5c0 -10.333 -3 -20.002 -9 -29.002s-13.833 -13.5 -23.5 -13.5s-22.5 9.83301 -38.5 29.5s-29.333 42.834 -40 69.501c-50 126.667 -105.333 320.334 -166 581.001c-4 16 -6 28 -6 36s2.33301 12 7 12c13.333 0 25 -10.833 35 -32.5s29 -85.5 57 -191.5
s55.667 -186 83 -240c46.667 -84 75.167 -139.333 85.5 -166s15.5 -45.167 15.5 -55.5z" />
    <glyph glyph-name="bracketright" unicode="]" horiz-adv-x="336" 
d="M29 -86l78.999 -10c32.667 0 53.5 4.5 62.5 13.5s13.5 26.833 13.5 53.5c0 63.333 4.33301 161.5 13 294.5s13 213.333 13 241s-2 44.334 -6 50.001s-18.667 8.5 -44 8.5s-45.666 -3.33301 -60.999 -10s-27.333 -10 -36 -10c-17.333 0 -26 6 -26 18
c0 9.33301 8.5 17 25.5 23s49.667 9 98 9s80.833 -3.66699 97.5 -11c8 -3.33301 12 -15 12 -35c0 -68.667 -2.16699 -165.667 -6.5 -291s-6.5 -217.333 -6.5 -276s-11 -91.667 -33 -99c-6 -2 -20 -4.5 -42 -7.5s-45.833 -4.5 -71.5 -4.5s-55.167 2 -88.5 6
c-11.333 1.33301 -17 8.66602 -17 21.999c0 10 8 15 24 15z" />
    <glyph glyph-name="asciicircum" unicode="^" horiz-adv-x="536" 
d="M424 441c6 -3.33301 8.99805 -7.00195 8.99805 -11.002s-5 -9.5 -15 -16.5s-19 -10.5 -27 -10.5c-22 0 -48.5 12.167 -79.5 36.5s-55.833 62.5 -74.5 114.5c-17.333 -44.667 -41.5 -82.334 -72.5 -113.001s-53.833 -46 -68.5 -46c-22 0 -34 5.66699 -36 17
c0 4.66699 5.16699 9.83398 15.5 15.501s21.5 13.5 33.5 23.5s25 22.5 39 37.5s23.333 26.5 28 34.5s11.167 20.333 19.5 37s15.333 29.834 21 39.501s13.334 18.167 23.001 25.5s18.167 11 25.5 11c10.667 0 18.834 -10.333 24.501 -31s10.5 -36 14.5 -46
c9.33301 -26 32.333 -55 69 -87c8 -7.33301 25 -17.666 51 -30.999z" />
    <glyph glyph-name="underscore" unicode="_" horiz-adv-x="460" 
d="M140 -96l-120.002 -5.00098c-14 0 -21 6.66699 -21 20c0 8.66699 3.33301 17.834 10 27.501s13.334 14.5 20.001 14.5c0.666992 0 10.334 -1 29.001 -3c54.667 -6 120.667 -9 198 -9s124.666 3.66699 141.999 11s29 11 35 11s9 -4.83301 9 -14.5
s-4.66699 -22.167 -14 -37.5s-18.666 -23 -27.999 -23c-40 0 -86.667 1.33301 -140 4s-93.333 4 -120 4z" />
    <glyph glyph-name="grave" unicode="`" horiz-adv-x="344" 
d="M159.5 522c5 -12 8.83398 -19.998 11.501 -23.998s5.16699 -7.5 7.5 -10.5s4.5 -5.5 6.5 -7.5s4.66699 -4.16699 8 -6.5l8 -5.5c2 -1.33301 5.16699 -3.16602 9.5 -5.49902s7.33301 -3.83301 9 -4.5s5.16699 -2.33398 10.5 -5.00098l10 -5c8.66699 -4 13 -9.66699 13 -17
c0 -10 -5.83301 -15 -17.5 -15s-26.834 3.16699 -45.501 9.5s-35 14.166 -49 23.499c-33.333 22.667 -50 46.667 -50 72c0 7.33301 5.33301 16.166 16 26.499s18.5 15.5 23.5 15.5s9.83301 -3.83301 14.5 -11.5s9.5 -17.5 14.5 -29.5z" />
    <glyph glyph-name="a" unicode="a" horiz-adv-x="383" 
d="M281 -5c-26 0 -45.666 5.33301 -58.999 16c-4.66699 4.66699 -7 16.5 -7 35.5s0.666992 44.5 2 76.5c-17.333 -43.333 -34.5 -75.5 -51.5 -96.5s-38.833 -31.5 -65.5 -31.5s-50 12.5 -70 37.5s-30 64.333 -30 118s15.167 101.167 45.5 142.5s70.166 62 119.499 62
c21.333 0 45.333 -14 72 -42c5.33301 7.33301 14.833 16.166 28.5 26.499s25.334 15.5 35.001 15.5s14.5 -12.667 14.5 -38c0 -6.66699 -1.83301 -19.667 -5.5 -39s-7.83398 -33.333 -12.501 -42c-6 -15.333 -9 -69.666 -9 -162.999c0 -18 2 -27 6 -27
c11.333 0.666992 27 14.834 47 42.501s39.833 63.167 59.5 106.5s31.667 65 36 65s6.5 -2.66699 6.5 -8c0 -18.667 -9.66699 -48.334 -29 -89.001c-52.667 -112 -97 -168 -133 -168zM159.001 315c-18.667 0 -38.5 -13.834 -59.5 -41.501s-31.5 -60.167 -31.5 -97.5
s5.5 -68 16.5 -92s25.5 -36 43.5 -36c22 0 54.333 55 97 165c0.666992 5.33301 1.5 14.5 2.5 27.5s1.83301 22.833 2.5 29.5c-6 10.667 -16.5 20.834 -31.5 30.501s-28.167 14.5 -39.5 14.5z" />
    <glyph glyph-name="b" unicode="b" horiz-adv-x="358" 
d="M187 345c30.667 0 55.998 -11.168 75.998 -33.501s30.333 -53.5 31 -93.5c27.333 8 51.5 17.667 72.5 29s32.167 17 33.5 17c4 0 6 -3.33301 6 -10s-9.5 -17 -28.5 -31s-47.5 -28 -85.5 -42c-8 -59.333 -32 -105.166 -72 -137.499s-80 -48.5 -120 -48.5
s-66.667 14.833 -80 44.5s-20 76.5 -20 140.5s4.66699 124.667 14 182s21.333 102.5 36 135.5s29.834 58.333 45.501 76s30.5 26.5 44.5 26.5c6.66699 0 12.834 -8 18.501 -24s8.5 -35.667 8.5 -59c0 -51.333 -9.33301 -111.333 -28 -180c12.667 5.33301 28.667 8 48 8z
M231.998 164.999c-5.33301 -0.666992 -16.499 -1.00098 -33.499 -1.00098s-35.667 5.83301 -56 17.5s-34.166 27.834 -41.499 48.501c-6.66699 -16.667 -14.334 -32.667 -23.001 -48c1.33301 -50.667 5.33301 -87 12 -109s17.334 -33 32.001 -33
c23.333 0 46.166 9.83301 68.499 29.5s36.166 51.5 41.499 95.5zM142.999 498.998c0 28 -3.66699 42.001 -11 42.001c-6 0 -13.167 -14.5 -21.5 -43.5s-16 -68.333 -23 -118s-10.5 -98.834 -10.5 -147.501c44 124.667 66 213.667 66 267zM170.999 308.999
c-9.33301 0 -16.833 -2.83203 -22.5 -8.49902s-8.5 -13.167 -8.5 -22.5c0 -20.667 9.16699 -37.834 27.5 -51.501s40.5 -20.5 66.5 -20.5c-0.666992 27.333 -6 51.333 -16 72s-25.667 31 -47 31z" />
    <glyph glyph-name="c" unicode="c" horiz-adv-x="286" 
d="M179 243l7.99902 51c0 7.33301 -2.33301 14 -7 20s-10.667 9 -18 9c-24.667 0 -46 -18.5 -64 -55.5s-27 -72.5 -27 -106.5s7 -61.5 21 -82.5s31.167 -31.5 51.5 -31.5s38.5 4.66699 54.5 14s30.667 22.666 44 39.999c28 36.667 52 78.334 72 125.001
c5.33301 12 9.5 20.667 12.5 26s6.33301 8 10 8s5.5 -2.66699 5.5 -8c0 -22 -7.66699 -48.333 -23 -79s-28.166 -54.167 -38.499 -70.5s-23.5 -33.5 -39.5 -51.5c-33.333 -37.333 -75 -56 -125 -56c-38 0 -66.833 13.5 -86.5 40.5s-29.5 55.833 -29.5 86.5
c0 76 16.5 133.833 49.5 173.5s74.833 59.5 125.5 59.5c21.333 0 38.166 -5.5 50.499 -16.5s18.5 -23.5 18.5 -37.5c0 -26 -4.66699 -45.333 -14 -58s-20.666 -19 -33.999 -19c-11.333 0 -17 6.33301 -17 19z" />
    <glyph glyph-name="d" unicode="d" horiz-adv-x="394" 
d="M285 -5c-22.667 0 -40.332 5.00098 -52.999 15.001c-5.33301 5.33301 -8 19.333 -8 42s1 52.334 3 89.001c-18 -48 -36.333 -84.333 -55 -109s-42.167 -37 -70.5 -37s-52.333 12.333 -72 37s-29.5 64 -29.5 118s15.167 101.667 45.5 143s70.166 62 119.499 62
c24 0 49 -9.33301 75 -28c10.667 130 20.334 203.333 29.001 220c4 7.33301 13.5 18 28.5 32s27.5 21 37.5 21s15 -15.667 15 -47c0 -36.667 -3.33301 -68.334 -10 -95.001l-34 -131c-9.33301 -72 -14 -156.667 -14 -254c0 -18 2 -27 6 -27c12 0.666992 28 14.667 48 42
s39.833 62.833 59.5 106.5s31.667 65.5 36 65.5s6.5 -2.66699 6.5 -8c0 -18.667 -9.66699 -48.334 -29 -89.001c-52.667 -112 -97.334 -168 -134.001 -168zM159.002 319.001c-18 0 -36.001 -14.333 -54.001 -43s-27 -61.834 -27 -99.501s4.83301 -68.5 14.5 -92.5
s21.834 -36 36.501 -36c30 0 64.333 60 103 180c3.33301 36.667 5 58.334 5 65.001c-19.333 17.333 -45.333 26 -78 26z" />
    <glyph glyph-name="e" unicode="e" horiz-adv-x="293" 
d="M122 -5c-37.333 0 -67.001 14.166 -89.001 42.499s-33 60.5 -33 96.5c0 72.667 15.333 127.667 46 165s70.334 56 119.001 56c22.667 0 41.334 -6.16699 56.001 -18.5s22 -29.166 22 -50.499c0 -40 -16.833 -73.5 -50.5 -100.5s-74.834 -41.167 -123.501 -42.5
c2.66699 -26 11.5 -48.5 26.5 -67.5s32.5 -28.5 52.5 -28.5s38 4.66699 54 14s30.667 22.666 44 39.999c28 36.667 52 78.334 72 125.001c5.33301 12 9.5 20.667 12.5 26s6.33301 8 10 8s5.5 -2.66699 5.5 -8c0 -33.333 -20.333 -83.333 -61 -150
c-44 -71.333 -98.333 -107 -163 -107zM68.999 166.999c39.333 6.66699 68.167 19.332 86.5 37.999s27.5 43 27.5 73s-9.66699 45 -29 45c-23.333 0 -43 -16.167 -59 -48.5s-24.667 -68.166 -26 -107.499z" />
    <glyph glyph-name="f" unicode="f" horiz-adv-x="227" 
d="M149 211c36 8.66699 66.167 19.668 90.5 33.001s37.166 20 38.499 20c4 0 6 -3.33301 6 -10s-6.66699 -15 -20 -25c-28 -20.667 -63 -38.334 -105 -53.001c17.333 -66 26 -136 26 -210c0 -62 -7 -121.333 -21 -178c-8 -32 -20.5 -58 -37.5 -78s-37.833 -30 -62.5 -30
c-21.333 0 -36 9.33301 -44 28c-10 22 -15.667 43 -17 63c-2 31.333 -3 82.333 -3 153s5.33301 156 16 256c-24 17.333 -36 38.5 -36 63.5s5.33301 44.333 16 58s24 22.5 40 26.5c9.33301 58 18.5 108 27.5 150s22.833 76.167 41.5 102.5s37.334 39.5 56.001 39.5
c21.333 0 32 -23.667 32 -71c0 -74.667 -27.667 -158.667 -83 -252c14 -20 27 -48.667 39 -86zM79 161.001c-6 -82 -9 -176.167 -9 -282.5s5.66699 -159.5 17 -159.5c20 0 36.667 26.167 50 78.5s20 111 20 176s-7.33301 130.167 -22 195.5c-20 -5.33301 -38.667 -8 -56 -8z
M94 311.001c19.333 32 37 69.834 53 113.501s24 80.167 24 109.5s-3 44 -9 44c-10.667 0 -22.167 -24.333 -34.5 -73s-23.5 -113.334 -33.5 -194.001zM94 271.002l-6 -10l-5 -51c8.66699 -2.66699 16.5 -4 23.5 -4s12.833 0.333008 17.5 1
c-8.66699 26 -18.667 47.333 -30 64zM32 303.002c-10 -3.33301 -15 -11 -15 -23s2.66699 -22.333 8 -31c2.66699 24 5 42 7 54z" />
    <glyph glyph-name="g" unicode="g" horiz-adv-x="372" 
d="M171.5 33c-17.667 -25.333 -40.8271 -38.001 -69.4941 -38.001s-52.834 12.333 -72.501 37s-29.5 64 -29.5 118s15.167 101.667 45.5 143s70.166 62 119.499 62c10 0 22 -4.16699 36 -12.5s26.333 -18.5 37 -30.5c2 6.66699 11.667 17.167 29 31.5s30.833 21.5 40.5 21.5
s14.5 -14.333 14.5 -43s-6 -54 -18 -76c-6.66699 -44.667 -10.334 -86 -11.001 -124c65.333 82.667 100.166 126.334 104.499 131.001s8.16602 7 11.499 7c6.66699 0 10 -3.33301 10 -10c0 -4 -1.33301 -8.33301 -4 -13c-21.333 -31.333 -63.333 -86.333 -126 -165
c-4 -79.333 -6.66699 -133.333 -8 -162c-3.33301 -84.667 -15.166 -144.167 -35.499 -178.5s-56.5 -51.5 -108.5 -51.5c-22.667 0 -43.834 6.83301 -63.501 20.5s-29.5 37.334 -29.5 71.001s12.833 68.167 38.5 103.5s72.5 89.666 140.5 162.999l6 115
c-20.667 -54.667 -39.834 -94.667 -57.501 -120zM159.007 318.999c-18.667 0 -38.5 -14.499 -59.5 -43.499s-31.5 -62.333 -31.5 -100s5.5 -68.334 16.5 -92.001s24.833 -35.5 41.5 -35.5s32.667 13.667 48 41s35 74.333 59 141c1.33301 22.667 2 37 2 43
c-5.33301 10 -16.333 20.167 -33 30.5s-31 15.5 -43 15.5zM220.007 -9c-76 -82 -114 -147.665 -114 -196.998c0 -22.667 4 -41.334 12 -56.001s19 -22 33 -22c21.333 0 36.333 11.667 45 35s15 70.666 19 141.999z" />
    <glyph glyph-name="h" unicode="h" horiz-adv-x="371" 
d="M83 54l1 -31c0 -18.667 -5.33301 -28 -16 -28c-16 0 -31.333 2.16699 -46 6.5s-22 10.333 -22 18s1.83301 34 5.5 79s5.5 78.833 5.5 101.5v58c0 170.667 30.333 279.334 91 326.001c14 10.667 28.333 16 43 16c6.66699 0 13.334 -7.33301 20.001 -22s10 -33.667 10 -57
c0 -57.333 -9.66699 -111 -29 -161s-39 -88.333 -59 -115c-0.666992 -16.667 -1 -42.667 -1 -78c2.66699 4 16.667 26.667 42 68s46.833 71.666 64.5 90.999s33.5 29 47.5 29s26.5 -4.66699 37.5 -14s16.5 -21 16.5 -35c0 -29.333 -3.16699 -72.5 -9.5 -129.5
s-9.5 -93 -9.5 -108s2 -22.5 6 -22.5c11.333 0.666992 27 14.834 47 42.501s39.833 63.167 59.5 106.5s31.667 65 36 65s6.5 -2.66699 6.5 -8c0 -18.667 -9.66699 -48.334 -29 -89.001c-52.667 -112 -97 -168 -133 -168c-26 0 -45.667 5.33301 -59 16
c-4.66699 4.66699 -7 16.834 -7 36.501s1.83301 51.667 5.5 96s5.5 77.5 5.5 99.5s-3.83301 33 -11.5 33s-27.834 -22.833 -60.501 -68.5s-50 -74.834 -52 -87.501c-4 -23.333 -6 -45.333 -6 -66zM148 499c0 28 -3.66699 42 -11 42c-12 0 -23.667 -37 -35 -111
c-6 -39.333 -10.333 -85 -13 -137c39.333 82 59 150.667 59 206z" />
    <glyph glyph-name="i" unicode="i" horiz-adv-x="175" 
d="M37 489c0 12 6.33301 22.333 19 31s24 13 34 13c18 0 27 -10.333 27 -31s-5.33301 -38.5 -16 -53.5s-25.667 -22.5 -45 -22.5c-12.667 0 -19 21 -19 63zM66 -5c-26 0 -45.6641 5.33203 -58.9971 15.999c-4.66699 4.66699 -7 21.334 -7 50.001s2.16699 76.5 6.5 143.5
s8.16602 103.167 11.499 108.5s13.666 15.333 30.999 30s30.833 22 40.5 22s14.5 -12.667 14.5 -38c0 -6.66699 -1.83301 -19.667 -5.5 -39s-7.83398 -33.333 -12.501 -42c-8.66699 -22 -13 -79.667 -13 -173c0 -18 2 -27 6 -27c11.333 0.666992 27 14.834 47 42.501
s39.833 63.167 59.5 106.5s31.667 65 36 65s6.5 -2.66699 6.5 -8c0 -18.667 -9.66699 -48.334 -29 -89.001c-52.667 -112 -97 -168 -133 -168z" />
    <glyph glyph-name="j" unicode="j" horiz-adv-x="168" 
d="M16 38c8.66699 174.667 13.5029 265.333 14.5029 272s10.5 17.5 28.5 32.5s31.833 22.5 41.5 22.5s14.5 -14.333 14.5 -43s-6 -54 -18 -76c-6 -50.667 -9.66699 -92 -11 -124c65.333 82.667 100.166 126.334 104.499 131.001s8.16602 7 11.499 7
c6.66699 0 10 -3.33301 10 -10c0 -4 -1.33301 -8.33301 -4 -13c-21.333 -31.333 -63.333 -86.333 -126 -165c-4 -79.333 -6.66699 -133.333 -8 -162c-3.33301 -84.667 -15.166 -144.167 -35.499 -178.5s-56.5 -51.5 -108.5 -51.5c-22.667 0 -43.834 6.83301 -63.501 20.5
s-29.5 35 -29.5 64s6.83301 56.833 20.5 83.5s28 48.667 43 66s35.667 39.666 62 66.999s44.166 46.333 53.499 57zM13.0029 -9.00098c-76 -82 -114 -147.665 -114 -196.998c0 -22.667 4 -41.334 12 -56.001s19 -22 33 -22c21.333 0 36.333 11.667 45 35
s15 70.666 19 141.999zM47.0029 489.001c0 12 6.33301 22.333 19 31s24 13 34 13c18 0 27 -10.333 27 -31s-5.33301 -38.5 -16 -53.5s-25.667 -22.5 -45 -22.5c-12.667 0 -19 21 -19 63z" />
    <glyph glyph-name="k" unicode="k" horiz-adv-x="343" 
d="M322 -35l27 3.00098c5.33301 0 8 -2.66699 8 -8c0 -9.33301 -6.33301 -16.333 -19 -21s-27 -7 -43 -7c-30 0 -55.167 12 -75.5 36s-48.5 68.333 -84.5 133c-8.66699 14 -13 24.667 -13 32c0 10 14 21.667 42 35c45.333 23.333 68 52.666 68 87.999
c0 10 -3.5 18.5 -10.5 25.5s-16.167 10.5 -27.5 10.5c-16 0 -35 -18.833 -57 -56.5s-36.833 -73 -44.5 -106s-11.5 -68.5 -11.5 -106.5c0 -18.667 -5.33301 -28 -16 -28c-15.333 0 -30 2.16699 -44 6.5s-21 10 -21 17s2.66699 38.667 8 95s8.33301 96.833 9 121.5
c2.66699 136 10.667 240 24 312c2 6 11.167 16.333 27.5 31s29.5 22 39.5 22s14.833 -12.5 14.5 -37.5s-5.83301 -78.5 -16.5 -160.5s-17.334 -157 -20.001 -225c12 42.667 31.167 83 57.5 121s52.833 57 79.5 57c45.333 0 68 -22 68 -66
c0 -29.333 -8.66699 -55.833 -26 -79.5s-40.666 -42.834 -69.999 -57.501c-6 -2.66699 -9 -5.66699 -9 -9s1 -6.66602 3 -9.99902c42 -74 77.667 -126 107 -156c8 -8 16.667 -12 26 -12z" />
    <glyph glyph-name="l" unicode="l" horiz-adv-x="175" 
d="M73 -5c-14.667 0 -28.167 1.83301 -40.5 5.5s-19.833 7.16699 -22.5 10.5c-6.66699 8 -10 49.5 -10 124.5s8.33301 176.833 25 305.5c14 106 46.667 159 98 159c12 0 20.667 -6.5 26 -19.5s8 -25.5 8 -37.5c0 -86.667 -26.333 -183.667 -79 -291
c-2 -55.333 -3 -103.5 -3 -144.5s3.66699 -61.5 11 -61.5c11.333 0.666992 27 14.834 47 42.501s39.833 63.167 59.5 106.5s31.667 65 36 65s6.5 -2.66699 6.5 -8c0 -18.667 -9.66699 -48.334 -29 -89.001c-52.667 -112 -97 -168 -133 -168zM132 534
c0 21.333 -2.66699 32.001 -8 32.001c-20 0 -34.667 -83 -44 -249c34.667 91.333 52 163.666 52 216.999z" />
    <glyph glyph-name="m" unicode="m" horiz-adv-x="542" 
d="M83 54l1.00098 -31.002c0 -18.667 -5.33301 -28 -16 -28c-16 0 -31.333 2.16699 -46 6.5s-22 10.333 -22 18s1.83301 34 5.5 79s5.5 78.833 5.5 101.5v59c0 32 3.33301 51.333 10 58s18.5 16.334 35.5 29.001s29.333 19 37 19s12.5 -1.33301 14.5 -4s3 -7.66699 3 -15
c0 -35.333 -6.66699 -68.666 -20 -99.999c-3.33301 -38 -5 -64.333 -5 -79c35.333 66 60 109.333 74 130c24.667 38.667 47 58 67 58c12.667 0 24.5 -5 35.5 -15s16.5 -22.333 16.5 -37s-0.166992 -28.5 -0.5 -41.5s-0.833008 -23.167 -1.5 -30.5s-1 -12 -1 -14
c2.66699 5.33301 14 20.333 34 45s33.5 40.667 40.5 48s14.5 14.666 22.5 21.999c15.333 15.333 29.166 23 41.499 23s24 -4.66699 35 -14s16.5 -21 16.5 -35c0 -29.333 -3.16699 -72.5 -9.5 -129.5s-9.5 -93 -9.5 -108s2 -22.5 6 -22.5
c11.333 0.666992 27 14.834 47 42.501s39.833 63.167 59.5 106.5s31.667 65 36 65s6.5 -2.66699 6.5 -8c0 -18.667 -9.66699 -48.334 -29 -89.001c-52.667 -112 -97 -168 -133 -168c-22.667 0 -40.667 5.33301 -54 16c-4.66699 4.66699 -7 16.834 -7 36.501
s1.83301 51.667 5.5 96s5.5 77.5 5.5 99.5s-3.66699 33 -11 33c-8.66699 0 -27.5 -14.667 -56.5 -44s-44.5 -50 -46.5 -62c-4 -22.667 -6 -71.667 -6 -147c0 -18.667 -5 -28 -15 -28c-15.333 0 -29.833 2.16699 -43.5 6.5s-20.5 10.333 -20.5 18s2 40.5 6 98.5
s6 98.833 6 122.5s-3.83301 35.5 -11.5 35.5s-26.167 -22.833 -55.5 -68.5s-45.5 -77.5 -48.5 -95.5s-4.5 -37.333 -4.5 -58z" />
    <glyph glyph-name="n" unicode="n" horiz-adv-x="371" 
d="M78 54l1.00098 -31.001c0 -18.667 -5.33301 -28 -16 -28c-16 0 -31.333 2.16699 -46 6.5s-22 10.333 -22 18s1.83301 34 5.5 79s5.5 78.833 5.5 101.5v59c0 32 3.33301 51.333 10 58s18.5 16.334 35.5 29.001s29.333 19 37 19s12.5 -1.33301 14.5 -4s3 -7.66699 3 -15
c0 -35.333 -6.66699 -68.666 -20 -99.999c-3.33301 -38 -5 -64.333 -5 -79c2.66699 4 16.667 26.667 42 68s46.833 71.666 64.5 90.999s33.5 29 47.5 29s26.5 -4.66699 37.5 -14s16.5 -21 16.5 -35c0 -29.333 -3.16699 -72.5 -9.5 -129.5s-9.5 -93 -9.5 -108
s2 -22.5 6 -22.5c11.333 0.666992 27 14.834 47 42.501s39.833 63.167 59.5 106.5s31.667 65 36 65s6.5 -2.66699 6.5 -8c0 -18.667 -9.66699 -48.334 -29 -89.001c-52.667 -112 -97 -168 -133 -168c-26 0 -45.667 5.33301 -59 16c-4.66699 4.66699 -7 16.834 -7 36.501
s1.83301 51.667 5.5 96s5.5 77.5 5.5 99.5s-3.83301 33 -11.5 33s-27.834 -22.833 -60.501 -68.5s-50 -74.834 -52 -87.501c-4 -23.333 -6 -45.333 -6 -66z" />
    <glyph glyph-name="o" unicode="o" horiz-adv-x="364" 
d="M313 217c26.667 8.66699 45.1699 16.168 55.5029 22.501l23.5 14.5l12 7c3.33301 2 6 3 8 3c5.33301 0 8 -3 8 -9s-10.333 -16.5 -31 -31.5s-46.334 -28.5 -77.001 -40.5c-4.66699 -56 -22.334 -101.333 -53.001 -136s-74.334 -52 -131.001 -52
c-41.333 0 -73 16.5 -95 49.5s-33 71.667 -33 116s13.167 86.166 39.5 125.499s60.166 59 101.499 59c18.667 13.333 40.834 20 66.501 20s49.5 -13.667 71.5 -41s33.333 -63 34 -107zM248.003 166.001l-36 -1.99805c-30.667 0 -56.667 9.16699 -78 27.5s-32 38.5 -32 60.5
s3.66699 41 11 57c-28.667 -22.667 -43 -67.334 -43 -134.001c0 -32 6.66699 -62.5 20 -91.5s34.333 -43.5 63 -43.5s51 12.167 67 36.5s25.333 54.166 28 89.499zM186.003 332.003c-10.667 0 -19 -4.83398 -25 -14.501s-9 -20.167 -9 -31.5c0 -24.667 8.5 -44.667 25.5 -60
s36.833 -23 59.5 -23h12c-1.33301 32.667 -6.83301 62.334 -16.5 89.001s-25.167 40 -46.5 40z" />
    <glyph glyph-name="p" unicode="p" horiz-adv-x="360" 
d="M31 311c7.33301 8.66699 18.9971 19.8301 34.9971 33.4971s28.667 20.5 38 20.5s14 -13.167 14 -39.5s-7 -52.166 -21 -77.499c-2.66699 -12 -4.66699 -29.333 -6 -52c19.333 52.667 38.666 92.334 57.999 119.001s42.833 40 70.5 40s51.834 -12.5 72.501 -37.5
s31 -64.333 31 -118s-15.167 -101.167 -45.5 -142.5s-70.166 -62 -119.499 -62c-25.333 0 -51 9.33301 -77 28c0 -127.333 -7.33301 -224.333 -22 -291c-1.33301 -6 -10.166 -16.167 -26.499 -30.5s-28.333 -21.5 -36 -21.5s-13.167 5.33301 -16.5 16s-5 20.667 -5 30
c0 68.667 14 157 42 265c4.66699 62.667 7.83398 131.334 9.50098 206.001s3.16699 112.667 4.5 114zM163.997 30.9961c19.333 0 39.333 13.5 60 40.5s31 60.333 31 100s-5.5 71.334 -16.5 95.001s-25.833 35.5 -44.5 35.5c-32 0 -68.333 -66.333 -109 -199
c-1.33301 -18.667 -2 -33.334 -2 -44.001c18.667 -18.667 45.667 -28 81 -28z" />
    <glyph glyph-name="q" unicode="q" horiz-adv-x="378" 
d="M169 -261c0 48.667 11.002 102.999 33.002 162.999l12 212c-16.667 -40 -33.167 -69.833 -49.5 -89.5s-38 -29.5 -65 -29.5s-50.333 12.333 -70 37s-29.5 64 -29.5 118s15.167 101.667 45.5 143s70.166 62 119.499 62c21.333 0 45 -13.667 71 -41
c31.333 34 54.333 51 69 51c10 0 15 -12.667 15 -38c0 -6 -2.33301 -18.5 -7 -37.5s-9.33398 -32.833 -14.001 -41.5c-4 -13.333 -7.33301 -47.5 -10 -102.5s-4.33398 -87.5 -5.00098 -97.5c8.66699 14 27.334 47.333 56.001 100c42.667 77.333 68.667 116 78 116
c5.33301 0 8 -3.66699 8 -11s-3.66699 -15.333 -11 -24c-36 -43.333 -80.667 -125.666 -134 -246.999c0 -112 -9 -195 -27 -249c-3.33301 -9.33301 -12.5 -20.5 -27.5 -33.5s-27.5 -19.5 -37.5 -19.5c-6.66699 0 -11.667 6.16699 -15 18.5s-5 25.833 -5 40.5z
M159.002 318.999c-18.667 0 -38.5 -14.499 -59.5 -43.499s-31.5 -62.333 -31.5 -100s5.5 -68.334 16.5 -92.001s24.5 -35.5 40.5 -35.5s31 11.333 45 34s31 60.667 51 114l8 86c-8 9.33301 -19.167 17.833 -33.5 25.5s-26.5 11.5 -36.5 11.5z" />
    <glyph glyph-name="r" unicode="r" horiz-adv-x="255" 
d="M87 261l55.001 6.00098c5.33301 0 10 -3 14 -9s6 -12.333 6 -19s-2.16699 -29.334 -6.5 -68.001s-6.5 -69.167 -6.5 -91.5s2 -33.5 6 -33.5c11.333 0.666992 27 14.834 47 42.501s39.833 63.167 59.5 106.5s31.667 65 36 65s6.5 -2.66699 6.5 -8
c0 -18.667 -9.66699 -48.334 -29 -89.001c-52.667 -112 -97 -168 -133 -168c-26 0 -45.667 5.33301 -59 16c-4.66699 4.66699 -7 33.667 -7 87s5.66699 99 17 137c-38.667 0 -65.667 12.333 -81 37c-8 12.667 -12 27 -12 43s3.33301 30 10 42s16.167 18 28.5 18
s23.666 -6.5 33.999 -19.5s15.5 -27.5 15.5 -43.5s-4.66699 -32 -14 -48c2.66699 -2 7 -3 13 -3z" />
    <glyph glyph-name="s" unicode="s" horiz-adv-x="208" 
d="M148 306l2.00098 14.999c0 12 -6.83301 18 -20.5 18s-26.834 -8.83301 -39.501 -26.5s-19 -32.167 -19 -43.5s0.666992 -20.333 2 -27s2.83301 -12.167 4.5 -16.5s4.5 -9.5 8.5 -15.5s7 -10.333 9 -13l11 -14c4.66699 -6.66699 8 -11 10 -13
c34.667 28.667 76 60.667 124 96c2.66699 2 5.66699 3 9 3c6.66699 0 10 -3.66699 10 -11s-3 -13 -9 -17c-42.667 -27.333 -83 -57 -121 -89c14.667 -21.333 22 -44.666 22 -69.999s-9.66699 -47 -29 -65s-44 -27 -74 -27s-45 14.333 -45 43c0 20.667 22 52.334 66 95.001
c-3.33301 4 -9.33301 10.5 -18 19.5s-15.167 16.167 -19.5 21.5s-9.5 12.333 -15.5 21c-10.667 16.667 -16 34.667 -16 54c0 39.333 12.667 71.166 38 95.499s52.333 36.5 81 36.5c18 0 32 -4.83301 42 -14.5s15 -19.5 15 -29.5c0 -22.667 -5.33301 -34 -16 -34
c-8 0 -12 2.66699 -12 8zM84.001 108.999c-26.667 -26.667 -40.001 -48.167 -40.001 -64.5s8.33301 -24.5 25 -24.5c10 0 18.333 4 25 12c14.667 20 11.334 45.667 -9.99902 77z" />
    <glyph glyph-name="t" unicode="t" horiz-adv-x="201" 
d="M224 163c-52.667 -112 -97.1699 -168 -133.503 -168s-57.666 4.33301 -63.999 13s-9.5 37.334 -9.5 86.001s4.66699 119 14 211c-33.333 6.66699 -51 20.334 -53 41.001c0 10.667 7 16 21 16s26.333 -2.66699 37 -8c6 48 13 96.667 21 146c2 12.667 8.33301 24.667 19 36
s21 17 31 17c8.66699 0 13 -13.667 13 -41c0 -12.667 -4.66699 -71 -14 -175c18 3.33301 37.833 10 59.5 20s34.5 15 38.5 15c12 0 18 -3.66699 18 -11c0.666992 -6.66699 -11.666 -15.834 -36.999 -27.501s-52.666 -20.5 -81.999 -26.5c-8 -97.333 -12 -171 -12 -221
c0 -26.667 4 -40 12 -40c12 0.666992 28 14.667 48 42s39.833 62.833 59.5 106.5s31.667 65.5 36 65.5s6.5 -2.66699 6.5 -8c0 -18.667 -9.66699 -48.334 -29 -89.001z" />
    <glyph glyph-name="u" unicode="u" horiz-adv-x="365" 
d="M0 87l5.99609 111.999c0 71.333 3.33301 110.333 10 117s18.5 16.5 35.5 29.5s29.333 19.5 37 19.5s12.5 -1.33301 14.5 -4s3 -8 3 -16c0 -28.667 -6.33301 -57.667 -19 -87c-10 -61.333 -15 -111.666 -15 -150.999s6.33301 -59 19 -59c15.333 0 33.333 13.333 54 40
s41.334 66.334 62.001 119.001c6 66.667 10.833 102.667 14.5 108s12.834 15 27.501 29s26.834 21 36.501 21s14.5 -12.667 14.5 -38c0 -6.66699 -1.83301 -19.667 -5.5 -39s-7.83398 -33.333 -12.501 -42c-7.33301 -18.667 -11 -76.334 -11 -173.001c0 -18 2 -27 6 -27
c11.333 0.666992 27 14.834 47 42.501s39.833 63.167 59.5 106.5s31.667 65 36 65s6.5 -2.66699 6.5 -8c0 -18.667 -9.66699 -48.334 -29 -89.001c-52.667 -112 -97 -168 -133 -168c-26 0 -45.667 5.33301 -59 16c-4.66699 4.66699 -7 19 -7 43s1 50.667 3 80
c-21.333 -45.333 -42.666 -79.833 -63.999 -103.5s-45.166 -35.5 -71.499 -35.5s-43.833 7 -52.5 21s-13 37.667 -13 71z" />
    <glyph glyph-name="v" unicode="v" horiz-adv-x="350" 
d="M125 44c24 0 45.0049 12.5 63.0049 37.5s31.333 55.5 40 91.5c-24 7.33301 -42.333 20.166 -55 38.499s-19 39.5 -19 63.5s6.16699 45 18.5 63s30.166 27 53.499 27c14 0 24.667 -8.83301 32 -26.5s11 -37.5 11 -59.5s-1.66699 -44 -5 -66c10 -4 20.667 -6 32 -6
c26 0 51 12 75 36c12 12 20.167 18 24.5 18s6.5 -3.33301 6.5 -10s-4.33301 -14.667 -13 -24c-35.333 -39.333 -80 -59 -134 -59c-12.667 -48.667 -32.334 -89.667 -59.001 -123s-59.334 -50 -98.001 -50c-22.667 0 -41.334 9.66699 -56.001 29
c-24.667 31.333 -37 77.333 -37 138c0 20.667 1.66699 47.334 5 80.001s7.16602 52.667 11.499 60s15 16.333 32 27s28.833 16 35.5 16c10 0 15 -6 15 -18c0 -34 -8.66699 -71 -26 -111c0 -47.333 3.83301 -87.833 11.5 -121.5s19.5 -50.5 35.5 -50.5zM216.005 327
c-5.33301 0 -8 -11 -8 -33s10 -43 30 -63c1.33301 8 2 16 2 24c0 48 -8 72 -24 72z" />
    <glyph glyph-name="w" unicode="w" horiz-adv-x="465" 
d="M416 207c28 0 54.002 11.9971 78.002 35.9971c12 12 20.167 18 24.5 18s6.5 -3.33301 6.5 -10s-4.33301 -14.667 -13 -24c-35.333 -39.333 -79.666 -59 -132.999 -59c-10.667 -49.333 -27.334 -90.5 -50.001 -123.5s-51.334 -49.5 -86.001 -49.5s-59.667 20.333 -75 61
c-27.333 -40.667 -55.666 -61 -84.999 -61c-55.333 0 -83 53.333 -83 160c0 74 7.33301 124.333 22 151c2.66699 4.66699 12.667 12.334 30 23.001s29.333 16 36 16c10 0 15 -6 15 -18c-1.33301 -31.333 -10.666 -68.333 -27.999 -111c-4 -8 -6 -27.167 -6 -57.5
s3.5 -57 10.5 -80s17.167 -34.5 30.5 -34.5s29.666 16 48.999 48c-3.33301 16.667 -5 34.5 -5 53.5s2 39.333 6 61s12 43.5 24 65.5s26.333 33 43 33c5.33301 0 9.16602 -1.66699 11.499 -5s3.5 -11.333 3.5 -24c0 -34 -9 -76.333 -27 -127
c2.66699 -29.333 9.5 -54.166 20.5 -74.499s23.167 -30.5 36.5 -30.5c19.333 0 35.666 12.5 48.999 37.5s23.666 55.5 30.999 91.5c-24.667 6.66699 -43.667 19.334 -57 38.001s-20 40.167 -20 64.5s5.83301 45.333 17.5 63s28.834 26.5 51.501 26.5c30.667 0 46 -33 46 -99
c0 -17.333 -1 -35.333 -3 -54c10 -3.33301 19.667 -5 29 -5zM337.002 326.997c-6 0 -9 -11.333 -9 -34s10.333 -43.667 31 -63c0.666992 3.33301 1 8.33301 1 15c0 54.667 -7.66699 82 -23 82z" />
    <glyph glyph-name="x" unicode="x" horiz-adv-x="316" 
d="M240 51c20 0 52.0029 48.666 96.0029 145.999c5.33301 11.333 9.66602 21.166 12.999 29.499s6.33301 14.833 9 19.5c4 9.33301 7.83301 14 11.5 14s5.5 -2.66699 5.5 -8c0 -19.333 -10 -50 -30 -92c-51.333 -110 -93 -165 -125 -165c-24 0 -39.667 5.83301 -47 17.5
s-22.333 42.167 -45 91.5c-20 -35.333 -37.167 -62.333 -51.5 -81s-27.5 -28 -39.5 -28s-21.333 1.33301 -28 4s-10.834 5.5 -12.501 8.5s-2.5 6.83301 -2.5 11.5s4.33301 11 13 19c37.333 34 70.666 70.667 99.999 110c-9.33301 18 -21.666 37.833 -36.999 59.5l-37.5 53.5
c-9.66699 14 -14.5 26.833 -14.5 38.5s4.5 26.334 13.5 44.001s19.667 26.5 32 26.5s21.333 -6 27 -18s8.5 -24.333 8.5 -37c6 -10 23.333 -44.667 52 -104c10 16 22.333 37.833 37 65.5s26 47.667 34 60s14.667 18.5 20 18.5c12 0 19.833 -2 23.5 -6s5.5 -10 5.5 -18
s-3.16699 -15.667 -9.5 -23s-13.5 -14.166 -21.5 -20.499s-15.833 -14.833 -23.5 -25.5s-23.834 -39 -48.501 -85c40.667 -84 64.667 -126 72 -126z" />
    <glyph glyph-name="y" unicode="y" horiz-adv-x="350" 
d="M0 87l6.00098 111.998c0 71.333 3.33301 110.333 10 117s18.5 16.5 35.5 29.5s29.333 19.5 37 19.5s12.5 -1.33301 14.5 -4s3 -8 3 -16c0 -28.667 -6.33301 -57.667 -19 -87c-10 -61.333 -15 -111.666 -15 -150.999s4.66699 -59 14 -59c16 0 34.5 14.167 55.5 42.5
s42.5 70.166 64.5 125.499c0.666992 14.667 1.33398 30.167 2.00098 46.5s1.33398 28.333 2.00098 36s1.16699 13.167 1.5 16.5s9.5 12.5 27.5 27.5s31.833 22.5 41.5 22.5s14.5 -12.667 14.5 -38c0 -6.66699 -1.83301 -19.667 -5.5 -39s-7.83398 -33.333 -12.501 -42
c-5.33301 -47.333 -9 -88.666 -11 -123.999c65.333 82.667 100.166 126.334 104.499 131.001s8.16602 7 11.499 7c6.66699 0 10 -3.33301 10 -10c0 -4 -1.33301 -8.33301 -4 -13c-21.333 -31.333 -63.333 -86.333 -126 -165c-4 -79.333 -6.66699 -133.333 -8 -162
c-3.33301 -84.667 -15.166 -144.167 -35.499 -178.5s-56.5 -51.5 -108.5 -51.5c-22.667 0 -43.834 6.83301 -63.501 20.5s-29.5 37.334 -29.5 71.001s12.833 68.167 38.5 103.5s72.5 89.666 140.5 162.999l6 109c-22.667 -50 -45 -87.833 -67 -113.5
s-46.333 -38.5 -73 -38.5s-43.667 6.66699 -51 20s-11 37.333 -11 72zM193.001 -9.00195c-76 -82 -114 -147.665 -114 -196.998c0 -22.667 4 -41.334 12 -56.001s19 -22 33 -22c21.333 0 36.333 11.667 45 35s15 70.666 19 141.999z" />
    <glyph glyph-name="z" unicode="z" horiz-adv-x="340" 
d="M169 224c-80.667 0 -131.666 12.666 -152.999 37.999c-10.667 12.667 -16 27 -16 43s4.83301 28.167 14.5 36.5s20 12.5 31 12.5s20.167 -4.5 27.5 -13.5s11 -17.5 11 -25.5c0 -12 13.333 -20.5 40 -25.5s52.667 -7.5 78 -7.5c26 36.667 44.333 57.334 55 62.001
c4 1.33301 8.33301 2 13 2c10.667 0 16 -10.667 16 -32s-4.66699 -37.666 -14 -48.999s-25.666 -22 -48.999 -32c-39.333 -36 -78 -77.667 -116 -125c17.333 -4 43.666 -11.833 78.999 -23.5s55.666 -17.5 60.999 -17.5c27.333 0 61 44.333 101 133c18 40 29.167 60 33.5 60
s6.5 -5 6.5 -15s-9.66699 -37.333 -29 -82c-51.333 -115.333 -100 -173 -146 -173c-4.66699 0 -26 8.33301 -64 25s-66.667 25 -86 25c-16.667 -24.667 -32.667 -37 -48 -37c-10 0 -15 9.16699 -15 27.5s7.5 36.666 22.5 54.999s31.167 27.5 48.5 27.5z" />
    <glyph glyph-name="braceleft" unicode="{" horiz-adv-x="295" 
d="M179 473l6 -110.002c0 -40 -17.667 -71.667 -53 -95c14 -8 24.667 -21.333 32 -40s11 -36.667 11 -54s-3.5 -41.833 -10.5 -73.5s-10.5 -56.167 -10.5 -73.5c0 -45.333 12.333 -78 37 -98l11 -6c12 -6.66699 18 -12.5 18 -17.5s-9.33301 -7.5 -28 -7.5
c-28.667 0 -53.834 14.167 -75.501 42.5s-32.5 65.5 -32.5 111.5c0 13.333 3.66699 33.333 11 60s11 46.334 11 59.001s-2 27 -6 43s-8 26.333 -12 31c-11.333 -2 -21.666 -3 -30.999 -3c-11.333 0 -17 6 -17 18c0 6 2.33301 12.333 7 19s9.66699 10 15 10l16 -2
c10 0 17 3 21 9c13.333 18 20 39 20 63l-11 96c0 42 11 79.667 33 113s50.667 50 86 50c18.667 0 28 -3.33301 28 -10c0 -4 -4.66699 -8.16699 -14 -12.5s-15 -7.16602 -17 -8.49902c-30 -20 -45 -58 -45 -114z" />
    <glyph glyph-name="bar" unicode="|" horiz-adv-x="191" 
d="M74 -167c-14 0 -21 30.333 -21 91c0 18.667 1.66699 52.667 5 102c14.667 212.667 26 390 34 532c1.33301 28.667 9 43 23 43c11.333 0 17 -10.333 17 -31c0 -92 -8.66699 -297 -26 -615c-4 -81.333 -14.667 -122 -32 -122z" />
    <glyph glyph-name="braceright" unicode="}" horiz-adv-x="274" 
d="M86 43l-6 110.001c0 48.667 17.667 84.667 53 108c-28.667 16.667 -43 44.667 -43 84c0 15.333 3.5 38.833 10.5 70.5s10.5 56.167 10.5 73.5c0 45.333 -12.333 78 -37 98l-11 6c-12 6.66699 -18 12.5 -18 17.5s9.33301 7.5 28 7.5c28.667 0 53.834 -14.167 75.501 -42.5
s32.5 -65.5 32.5 -111.5c0 -13.333 -3.66699 -33.333 -11 -60s-11 -50 -11 -70s6 -36.667 18 -50c11.333 2 21.666 3 30.999 3c11.333 0 17 -6 17 -18c0 -6 -2.33301 -12.333 -7 -19s-9.66699 -10 -15 -10l-16 2c-10 0 -17 -3 -21 -9c-13.333 -18 -20 -43.333 -20 -76
l11 -96c0 -42 -11 -79.667 -33 -113s-50.667 -50 -86 -50c-18.667 0 -28 3.33301 -28 10c0 4 4.66699 8.16699 14 12.5s15 7.16602 17 8.49902c30 20 45 58 45 114z" />
    <glyph glyph-name="asciitilde" unicode="~" horiz-adv-x="455" 
d="M86.5 261c26.333 23.333 50.501 35 72.501 35s50.167 -9 84.5 -27s58.5 -27 72.5 -27s26.5 4 37.5 12s19.667 15.833 26 23.5s12.166 11.5 17.499 11.5s8 -2.33301 8 -7c0 -28.667 -11.333 -54.667 -34 -78s-47 -35 -73 -35s-54.333 12 -85 36s-53 36 -67 36
s-30.333 -10.167 -49 -30.5s-32 -30.5 -40 -30.5c-6.66699 0 -10 4 -10 12c0 22.667 13.167 45.667 39.5 69z" />
    <glyph glyph-name="exclamdown" unicode="&#xa1;" horiz-adv-x="223" 
d="M163 355.5c9.33301 -6.33301 13.999 -16.832 13.999 -31.499s-6.66699 -26.167 -20 -34.5s-25.666 -12.5 -36.999 -12.5s-20.833 3.16699 -28.5 9.5s-11.5 14.166 -11.5 23.499c0 36.667 18 55 54 55c10 0 19.667 -3.16699 29 -9.5zM46.999 -224.999
c-7.33301 5.33301 -11 13.332 -11 23.999s2.5 26.167 7.5 46.5s9.33301 40.333 13 60s10.667 65.334 21 137.001s17.833 120.5 22.5 146.5c1.33301 6 4.5 11.667 9.5 17s10.167 8 15.5 8c14.667 0 22 -13 22 -39c0 -42 -1 -77.5 -3 -106.5s-3.33301 -55.833 -4 -80.5
c-0.666992 -56 -4.16699 -97.5 -10.5 -124.5s-15.333 -49.833 -27 -68.5s-22 -28 -31 -28s-17.167 2.66699 -24.5 8z" />
    <glyph glyph-name="cent" unicode="&#xa2;" horiz-adv-x="368" 
d="M188 323l-19.9971 -281c52.667 0 101.667 45.333 147 136c6 10.667 11.333 16 16 16s7 -4.83301 7 -14.5s-6.5 -27.667 -19.5 -54s-33.667 -53.5 -62 -81.5s-58.833 -43.667 -91.5 -47c-4.66699 -42.667 -13 -64 -25 -64c-10 0 -15 13.333 -15 40
c0 10.667 0.333008 18.334 1 23.001c-32.667 4.66699 -58.667 20.167 -78 46.5s-29 52.833 -29 79.5c0 62.667 12.833 113.167 38.5 151.5s58.5 63.166 98.5 74.499c1.33301 34.667 8.66602 52 21.999 52c9.33301 0 14 -9 14 -27c0 -2 -0.166992 -5.33301 -0.5 -10
s-0.5 -7.66699 -0.5 -9c3.33301 0.666992 9 1 17 1c21.333 0 38.166 -5.5 50.499 -16.5s18.5 -23.5 18.5 -37.5c0 -25.333 -4.33301 -44.5 -13 -57.5s-18.334 -19.5 -29.001 -19.5s-16 6.33301 -16 19l8 51c0 19.333 -13 29 -39 29zM105.003 243.5
c-13.333 -31.667 -20 -60.167 -20 -85.5c0 -48 16.333 -83 49 -105l22 258c-20.667 -13.333 -37.667 -35.833 -51 -67.5z" />
    <glyph glyph-name="sterling" unicode="&#xa3;" horiz-adv-x="480" 
d="M328 316l24.998 5.99902c6.66699 0 10 -3.83301 10 -11.5s-3 -16.667 -9 -27s-13.333 -15.5 -22 -15.5c-32 0 -72 1.66699 -120 5l-7 -75c14.667 -1.33301 30 -2 46 -2s30.333 0.666992 43 2s22.5 3.16602 29.5 5.49902s11.833 3.5 14.5 3.5c5.33301 0 8 -2.66699 8 -8
c0 -31.333 -11.667 -47 -35 -47c-14 0 -51 3.33301 -111 10c-6.66699 -36.667 -12.667 -61 -18 -73l59 -9c66 -10 114.333 -15 145 -15c13.333 0 20 -10.333 20 -31c0 -8 -4.16699 -16.5 -12.5 -25.5s-17.5 -13.5 -27.5 -13.5c-49.333 0 -119.333 16.667 -210 50
c-23.333 -28 -51.666 -42 -84.999 -42c-13.333 0 -25.833 4.33301 -37.5 13s-17.5 20.834 -17.5 36.501s5.66699 27.667 17 36s25.333 12.5 42 12.5s33 -1.33301 49 -4c3.33301 12.667 6.66602 35 9.99902 67l-39 -4c-26 0 -39 7.5 -39 22.5s22.333 22.5 67 22.5h15l6 70
l-58 -6c-13.333 0 -20 5.33301 -20 16c0 7.33301 2.66699 14.666 8 21.999s10 11 14 11s7.33301 -0.666992 10 -2c7.33301 -2 23.666 -3.66699 48.999 -5c9.33301 102 38.333 166 87 192c20.667 11.333 46.834 17 78.501 17s57.167 -8.83301 76.5 -26.5s29 -41.5 29 -71.5
c0 -11.333 -3.16699 -20.666 -9.5 -27.999s-14.166 -11 -23.499 -11s-16.166 2.33301 -20.499 7s-6.5 10 -6.5 16l5 28c0 18 -5.5 32.5 -16.5 43.5s-23.833 16.5 -38.5 16.5s-26.5 -2.16699 -35.5 -6.5s-16.5 -11.166 -22.5 -20.499s-11 -18.5 -15 -27.5
s-7.16699 -20.667 -9.5 -35l-5.5 -34c-1.33301 -8.33301 -2.5 -19.833 -3.5 -34.5s-1.83301 -23.667 -2.5 -27h17c50 0 82.333 2.33301 97 7zM106.998 59.999c-16.667 4.66699 -30.167 7 -40.5 7s-15.5 -4 -15.5 -12c0 -4.66699 2.33301 -9 7 -13s11.5 -6 20.5 -6
s18.5 8 28.5 24z" />
    <glyph glyph-name="currency" unicode="&#xa4;" horiz-adv-x="417" 
d="M130 388c29.333 18.667 61.0029 28.002 95.0029 28.002s61.333 -4.66699 82 -14c22 27.333 41.667 38 59 32c5.33301 -2 5.66602 -9.33301 0.999023 -22l-24 -35c21.333 -22.667 32 -52.334 32 -89.001c0 -57.333 -15.333 -106.333 -46 -147
c20.667 -20.667 33.5 -38.667 38.5 -54s-0.833008 -24.666 -17.5 -27.999c-18.667 -2.66699 -40 10.666 -64 39.999c-30 -20.667 -62.833 -31 -98.5 -31s-65.167 6.66699 -88.5 20c-23.333 -28 -44 -40.667 -62 -38c-16.667 3.33301 -22 14 -16 32c4 12 15.667 28.333 35 49
c-12.667 21.333 -19 48.333 -19 81c0 57.333 19.333 106.666 58 147.999c-3.33301 5.33301 -7.33301 11.333 -12 18c-10.667 15.333 -16.334 24 -17.001 26c-4.66699 12.667 -4.33398 20 0.999023 22c18.667 6.66699 39.667 -6 63 -38zM129.003 147.002
c14 -26 37 -39 69 -39s58.167 16.5 78.5 49.5s30.5 65.833 30.5 98.5s-8.16699 62 -24.5 88s-39 39 -68 39s-54 -17 -75 -51s-31.5 -66.833 -31.5 -98.5s7 -60.5 21 -86.5z" />
    <glyph glyph-name="yen" unicode="&#xa5;" horiz-adv-x="482" 
d="M333 269l24.999 5.99902c6.66699 0 10 -3.83301 10 -11.5s-3 -16.667 -9 -27s-13.333 -15.5 -22 -15.5l-84 2l-4 -74c38 0 62.5 1.83301 73.5 5.5s17.833 5.5 20.5 5.5c5.33301 0 8 -2.66699 8 -8c0 -31.333 -11.667 -47 -35 -47c-24.667 0 -47.667 1.66699 -69 5
c-0.666992 -13.333 -1 -28.333 -1 -45s-0.5 -28.334 -1.5 -35.001s-3.16699 -13.334 -6.5 -20.001c-6 -13.333 -22.333 -20 -49 -20c-14.667 0 -22 12.167 -22 36.5s2.33301 54.5 7 90.5l-71 -4c-17.333 0 -28.166 1.83301 -32.499 5.5s-6.5 9.16699 -6.5 16.5
c0 15.333 21.333 23 64 23c10.667 0 27.667 -1.33301 51 -4c4 32 6.33301 56.667 7 74c-28.667 0 -51.334 -1 -68.001 -3s-25.667 -3 -27 -3c-13.333 0 -20 5.33301 -20 16c0 7.33301 2.66699 14.666 8 21.999s10 11 14 11s8.33301 -0.666992 13 -2
c10.667 -3.33301 37.334 -5.66602 80.001 -6.99902c-4.66699 31.333 -22 70 -52 116c-4.66699 6.66699 -13.5 16.834 -26.5 30.501s-24.167 26.5 -33.5 38.5s-14 22 -14 30s4.66699 17.167 14 27.5s16.666 15.5 21.999 15.5s11.333 -3.33301 18 -10
c15.333 -14 35.333 -40.167 60 -78.5s43.334 -76.166 56.001 -113.499c9.33301 26.667 28 60.834 56 102.501s49.667 69.5 65 83.5s28 21 38 21s15 -6.66699 15 -20c0 -23.333 -8 -38 -24 -44c-14.667 -4.66699 -39 -32.5 -73 -83.5s-51.333 -89.5 -52 -115.5
c37.333 0 63.333 2.33301 78 7z" />
    <glyph glyph-name="brokenbar" unicode="&#xa6;" horiz-adv-x="191" 
d="M105 269c-16 0 -23.999 13.665 -23.999 40.998s2.66699 70.833 8 130.5s8.66602 98.834 9.99902 117.501c1.33301 28.667 10.333 43 27 43c13.333 0 20 -10.333 20 -31c0 -136.667 -2.66699 -226 -8 -268c-1.33301 -9.33301 -5.33301 -17.166 -12 -23.499
s-13.667 -9.5 -21 -9.5zM73.001 200.998c2 23.333 13.332 35.001 33.999 35.001c16.667 0 25 -9.66699 25 -29c0 -32 -2.66699 -78.333 -8 -139s-8.5 -99.334 -9.5 -116.001s-2 -30.5 -3 -41.5s-2.83301 -23.167 -5.5 -36.5c-5.33301 -27.333 -14.666 -41 -27.999 -41
c-16.667 0 -25 26.167 -25 78.5s6.66699 148.833 20 289.5z" />
    <glyph glyph-name="section" unicode="&#xa7;" horiz-adv-x="414" 
d="M138 -103.5c15.333 -11.667 33.002 -17.501 53.002 -17.501s38.167 6.33301 54.5 19s24.5 25.834 24.5 39.501s-12 31.834 -36 54.501s-50.333 44.167 -79 64.5s-55 42.5 -79 66.5s-36 44.667 -36 62c0.666992 30.667 11.667 59.667 33 87s52.666 44.333 93.999 51
c-55.333 44 -83 78.333 -83 103c0 30 12.333 58 37 84s58 39 100 39s74 -9.66699 96 -29s33 -43 33 -71c0 -12 -4 -22.333 -12 -31s-19.333 -13 -34 -13s-22 6.66699 -22 20c0 2.66699 2.16699 7.33398 6.5 14.001s6.5 12 6.5 16c0 18 -7.66699 32.833 -23 44.5
s-33 17.5 -53 17.5s-38.167 -6.33301 -54.5 -19s-24.5 -25.834 -24.5 -39.501s12 -31.834 36 -54.501s50.333 -44.167 79 -64.5s55 -42.5 79 -66.5s36 -44.667 36 -62c-0.666992 -31.333 -11.667 -60.5 -33 -87.5s-53 -43.833 -95 -50.5c56 -44.667 84 -79 84 -103
c0 -29.333 -12.333 -57.166 -37 -83.499s-57.834 -39.5 -99.501 -39.5s-73.667 10.333 -96 31s-33.5 43.667 -33.5 69c0 12 4 22.333 12 31s19.333 13 34 13s22 -6.66699 22 -20c0 -2.66699 -2.16699 -7.33398 -6.5 -14.001s-6.5 -12 -6.5 -16
c0 -18 7.66699 -32.833 23 -44.5zM305.002 184.999c0 13.333 -7.99902 28.168 -23.999 44.501s-39.667 36.5 -71 60.5c-30 0 -55 -7.66699 -75 -23s-30 -34 -30 -56c0 -10 5.16699 -21.5 15.5 -34.5s20.666 -23.833 30.999 -32.5s26.5 -21.334 48.5 -38.001
c30 0 55 7.66699 75 23s30 34 30 56z" />
    <glyph glyph-name="dieresis" unicode="&#xa8;" horiz-adv-x="367" 
d="M76.5 457c-9 6 -13.5 15.667 -13.5 29s6.16699 24 18.5 32s23.833 12 34.5 12s19.667 -3 27 -9s11 -13.333 11 -22c0 -34 -17 -51 -51 -51c-8.66699 0 -17.5 3 -26.5 9zM220.5 457c-9 6 -13.501 15.667 -13.501 29s6.33301 24 19 32s24.334 12 35.001 12s19.5 -3 26.5 -9
s10.5 -13.333 10.5 -22c0 -34 -16.667 -51 -50 -51c-9.33301 0 -18.5 3 -27.5 9z" />
    <glyph glyph-name="copyright" unicode="&#xa9;" horiz-adv-x="448" 
d="M234 469l5.00098 28c0 8.66699 -6 13 -18 13s-22.333 -9.66699 -31 -29s-13 -38.333 -13 -57c0 -42 13 -63 39 -63c15.333 0 31.666 11 48.999 33c4 6 8.16699 9 12.5 9s6.5 -2.33301 6.5 -7s-3.33301 -11.667 -10 -21c-18 -23.333 -42.333 -35 -73 -35
c-20 0 -35.667 6.83301 -47 20.5s-17 28.834 -17 45.501c0 39.333 9.5 69.666 28.5 90.999s41.167 32 66.5 32c11.333 0 19.833 -3.16699 25.5 -9.5s8.5 -14.5 8.5 -24.5s-2.5 -18.5 -7.5 -25.5s-10.333 -10.5 -16 -10.5s-8.5 3.33301 -8.5 10zM303.001 539.5
c-18.667 24.333 -45.667 36.502 -81 36.502s-65.833 -15.667 -91.5 -47s-38.5 -66.833 -38.5 -106.5s11.333 -70.5 34 -92.5s50.5 -33 83.5 -33s61.5 13.667 85.5 41s36 61.666 36 102.999s-9.33301 74.166 -28 98.499zM241.001 601.002c38.667 0 71.667 -12.334 99 -37.001
s41 -57.667 41 -99c0 -55.333 -17.833 -101.666 -53.5 -138.999s-84.167 -56 -145.5 -56c-39.333 0 -73 11.167 -101 33.5s-42 53.833 -42 94.5c0 54.667 17.667 102.167 53 142.5s85 60.5 149 60.5z" />
    <glyph glyph-name="ordfeminine" unicode="&#xaa;" horiz-adv-x="392" 
d="M142 360.5c-14.667 -18.333 -33.4971 -27.502 -56.4971 -27.502s-43 10.667 -60 32s-25.5 54.5 -25.5 99.5s13.667 85.5 41 121.5s60.333 54 99 54c8.66699 0 19.167 -3.66699 31.5 -11s22.833 -16 31.5 -26c4 6 11.167 13.667 21.5 23s19.166 14 26.499 14
c9.33301 0 14 -11 14 -33c0 -4.66699 -1.83301 -15.167 -5.5 -31.5s-7.5 -29 -11.5 -38s-6 -55.167 -6 -138.5c0 -15.333 1.66699 -23 5 -23c18 0.666992 38.667 24.334 62 71.001c3.33301 7.33301 7.66602 11 12.999 11c4 0 6 -3.33301 6 -10
c0 -14.667 -11 -37.5 -33 -68.5s-42.833 -46.5 -62.5 -46.5s-34.167 4.66699 -43.5 14c-3.33301 3.33301 -5 13 -5 29s0.666992 38.667 2 68c-14.667 -37.333 -29.334 -65.166 -44.001 -83.499zM136.003 605.998c-16.667 0 -34.334 -11.667 -53.001 -35s-28 -51 -28 -83
s5.16699 -58.333 15.5 -79s23.166 -31 38.499 -31c18.667 0 46.334 46.667 83.001 140c0.666992 14 2.33398 30 5.00098 48c-4.66699 9.33301 -13.5 18.333 -26.5 27s-24.5 13 -34.5 13z" />
    <glyph glyph-name="guillemotleft" unicode="&#xab;" horiz-adv-x="458" 
d="M370.5 336.5c3 3.66699 6.00293 5.49805 9.00293 5.49805s6 -2.66699 9 -8s4.5 -11.333 4.5 -18c0 -17.333 -9.83301 -34.666 -29.5 -51.999s-56.5 -43 -110.5 -77c36 -19.333 65.5 -42 88.5 -68s34.5 -44.5 34.5 -55.5s-3.16699 -21.667 -9.5 -32
s-11.666 -15.5 -15.999 -15.5s-14 9.16699 -29 27.5l-53.5 62.5c-23.333 26.667 -42.666 42.667 -57.999 48c-2.66699 1.33301 -4.33398 2.33301 -5.00098 3s-2.16699 1.66699 -4.5 3s-3.83301 2.33301 -4.5 3c-4 4 -6.16699 6.66699 -6.5 8s-0.833008 2.83301 -1.5 4.5
s-1 4.83398 -1 9.50098s2.16699 9.5 6.5 14.5s9.16602 7.5 14.499 7.5s23.166 10.333 53.499 31s52.166 37.5 65.499 50.5s23.166 23.333 29.499 31zM238.003 320.998c0 -39.333 -44.666 -85.3311 -133.999 -137.998c27.333 -10.667 55.166 -32.834 83.499 -66.501
s42.5 -56.167 42.5 -67.5s-4 -21.333 -12 -30s-14.667 -13 -20 -13c-4 0 -9 6 -15 18s-16.667 28.667 -32 50s-30.833 38 -46.5 50s-28.167 20 -37.5 24s-16.333 7.16699 -21 9.5s-7 6.16602 -7 11.499s1.83301 12 5.5 20s7.5 12 11.5 12s11 3 21 9
c26.667 14.667 51.334 33 74.001 55s38.334 38.667 47.001 50l18 24c3.33301 4.66699 5.66602 7 6.99902 7c3.33301 0 6.66602 -2.83301 9.99902 -8.5s5 -11.167 5 -16.5z" />
    <glyph glyph-name="logicalnot" unicode="&#xac;" horiz-adv-x="455" 
d="M337 211l-180 4.99902c-16 0 -32 -1 -48 -3s-24.333 -3 -25 -3c-14 0 -21 6.66699 -21 20c0 8.66699 3.33301 17.834 10 27.501s13.334 14.5 20.001 14.5c0.666992 0 5.33398 -1 14.001 -3c26 -6 69.167 -9 129.5 -9s99.166 3.66699 116.499 11s30 11 38 11
c6.66699 0 10 -4 10 -12s-2.16699 -17 -6.5 -27s-7.33301 -18.167 -9 -24.5s-4.33398 -22.833 -8.00098 -49.5s-8 -46.667 -13 -60s-11.833 -20 -20.5 -20c-16.667 0 -25 6.33301 -25 19c0 8.66699 2.5 23 7.5 43s8.5 40 10.5 60z" />
    <glyph glyph-name="registered" unicode="&#xae;" horiz-adv-x="448" 
d="M184 452l-0.998047 -55.001c0 -34 -6.66699 -51 -20 -51c-16 0 -24 3.66699 -24 11c0 3.33301 2.83301 10 8.5 20s8.5 29.833 8.5 59.5s0.666992 52.167 2 67.5c-6 -2.66699 -10.667 -6.16699 -14 -10.5s-7.33301 -6.5 -12 -6.5s-7 4 -7 12c0 13.333 13 22 39 26
c4.66699 12 12.334 18 23.001 18c2.66699 0 4 -4.66699 4 -14c64 0 96 -21 96 -63c0 -20 -11.333 -37 -34 -51c3.33301 -4 7.66602 -14.167 12.999 -30.5s14.166 -24.5 26.499 -24.5s23 8 32 24s13.5 34.667 13.5 56c0 40 -11.667 72.667 -35 98s-53.166 38 -89.499 38
s-68 -15.167 -95 -45.5s-40.5 -66.166 -40.5 -107.499s14.167 -73.333 42.5 -96s60.166 -34 95.499 -34c14 0 23.167 1.16699 27.5 3.5s8.5 4.83301 12.5 7.5c8 7.33301 15.667 11 23 11s11 -2.66699 11 -8c0 -12 -10.333 -22 -31 -30s-45 -12 -73 -12
c-44.667 0 -83.167 12.667 -115.5 38s-48.5 62.666 -48.5 111.999s18.5 92.5 55.5 129.5s82.833 55.5 137.5 55.5s97 -12 127 -36s45 -55.667 45 -95s-9.33301 -71.833 -28 -97.5s-44.334 -38.5 -77.001 -38.5c-22.667 0 -36.667 14.333 -42 43c0 10 -2 20 -6 30
c-4.66699 -1.33301 -10.667 -2 -18 -2c-15.333 0 -23 5.16699 -23 15.5s5.66699 15.5 17 15.5s21 -2.33301 29 -7c10 6.66699 15 17.334 15 32.001c0 34 -21.333 51 -64 51c-4 -24 -6 -43.667 -6 -59z" />
    <glyph glyph-name="macron" unicode="&#xaf;" horiz-adv-x="339" 
d="M294 549c-2 -46 -30.333 -69.001 -85 -69.001c-8.66699 0 -22 1.5 -40 4.5s-35.833 4.5 -53.5 4.5s-31.667 -0.666992 -42 -2s-16.166 -2 -17.499 -2c-14 0.666992 -20.833 7.83398 -20.5 21.501s7.16602 23.167 20.499 28.5c9.33301 4.66699 40.5 7 93.5 7s87 3 102 9
s25.833 9 32.5 9s10 -3.66699 10 -11z" />
    <glyph glyph-name="degree" unicode="&#xb0;" horiz-adv-x="280" 
d="M126 415c49.333 0 74.0029 29.001 74.0029 87.001c0 12 -1.83301 22.5 -5.5 31.5s-7.33398 15 -11.001 18s-6 4.5 -7 4.5s-3.5 -1 -7.5 -3s-8.66699 -3 -14 -3c-12.667 0 -19 4.66699 -19 14c0 16.667 12.667 25 38 25c14 0 28 -6.5 42 -19.5s21 -35 21 -66
s-10.833 -58.333 -32.5 -82s-53.834 -35.5 -96.501 -35.5c-28.667 0 -50.834 9.16699 -66.501 27.5s-23.5 41.166 -23.5 68.499s9 54 27 80s42 39 72 39c9.33301 0 14 -3 14 -9c0 -3.33301 -5.5 -6 -16.5 -8s-21.667 -12.5 -32 -31.5s-15.5 -39 -15.5 -60
s6 -39.167 18 -54.5s25.667 -23 41 -23z" />
    <glyph glyph-name="plusminus" unicode="&#xb1;" horiz-adv-x="500" 
d="M368 307l-96 1.99902l-9 -61c-5.33301 -32.667 -21.666 -49 -48.999 -49c-5.33301 0 -10.666 2.16699 -15.999 6.5s-8 9 -8 14s1.33301 10.5 4 16.5c7.33301 16.667 14.333 42 21 76c-39.333 0 -64.333 -0.833008 -75 -2.5s-18.167 -2.5 -22.5 -2.5
s-8.66602 2.5 -12.999 7.5s-6.5 10.333 -6.5 16s3.83301 11.334 11.5 17.001s13.667 8.5 18 8.5s8.83301 -0.333008 13.5 -1c14 -2 41 -3 81 -3c5.33301 36 8 63.667 8 83c0 8 3.66699 14.333 11 19s16.666 7 27.999 7c7.33301 0 11 -15.667 11 -47
c0 -12 -1.33301 -32.667 -4 -62c47.333 0 78.166 1.83301 92.499 5.5s22.166 5.5 23.499 5.5c7.33301 0 11 -4 11 -12s-3.5 -17.333 -10.5 -28s-15.167 -16 -24.5 -16zM159 114.999l-72.001 -4c-13.333 0 -20 5 -20 15c0 6.66699 3.33301 15.5 10 26.5
s13.334 16.5 20.001 16.5c0.666992 0 5 -1 13 -3c22 -4 63 -6 123 -6s98.667 2.83301 116 8.5s28.833 8.5 34.5 8.5s8.5 -3.83301 8.5 -11.5s-4.5 -19 -13.5 -34s-18.167 -22.5 -27.5 -22.5z" />
    <glyph glyph-name="twosuperior" unicode="&#xb2;" horiz-adv-x="271" 
d="M82 409l81 -19.998c13.333 0 26 9.66699 38 29c6.66699 10.667 11 16 13 16c5.33301 0 8 -6.5 8 -19.5s-5.16699 -27.167 -15.5 -42.5s-19.333 -25.666 -27 -30.999s-15.834 -8 -24.501 -8s-25 5.66699 -49 17s-42.333 17 -55 17c-8.66699 -19.333 -19.667 -29 -33 -29
c-12 0 -18 7.33301 -18 22s4.83301 27.334 14.5 38.001s21.5 16 35.5 16l36 37c15.333 15.333 25.166 25.666 29.499 30.999s9.83301 12.666 16.5 21.999c10.667 14.667 16 31 16 49c0 38 -14.5 57 -43.5 57s-43.5 -10.667 -43.5 -32c0 -5.33301 1.5 -11.666 4.5 -18.999
s4.5 -13 4.5 -17s-2.16699 -8.33301 -6.5 -13s-8.16602 -7 -11.499 -7c-6.66699 0 -11.667 4.16699 -15 12.5s-5 16.833 -5 25.5c0 24 8.83301 43.333 26.5 58s37.667 22 60 22s40.5 -6.83301 54.5 -20.5s21 -30.334 21 -50.001s-3.16699 -36.334 -9.5 -50.001
s-13 -24.334 -20 -32.001s-19.667 -19.667 -38 -36s-33.166 -30.5 -44.499 -42.5z" />
    <glyph glyph-name="threesuperior" unicode="&#xb3;" horiz-adv-x="209" 
d="M17 589l4.99902 -17.998c0 -3.33301 -1.66699 -5 -5 -5c-6.66699 0 -12.167 5.16699 -16.5 15.5s-6.5 19.5 -6.5 27.5s2.5 15.167 7.5 21.5s11.333 9.5 19 9.5s23.334 -4 47.001 -12s43.5 -12 59.5 -12c7.33301 9.33301 15.666 14 24.999 14c13.333 0 20 -10.667 20 -32
c0 -7.33301 -4.5 -14 -13.5 -20s-19.167 -9 -30.5 -9c-4 -4.66699 -10.667 -11.834 -20 -21.501l-25 -26.5c6.66699 0.666992 13.667 1 21 1c21.333 0 38.333 -7.83301 51 -23.5s19 -37.334 19 -65.001s-12 -51.167 -36 -70.5s-54 -29 -90 -29
c-17.333 0 -32.666 4.66699 -45.999 14s-20 17.833 -20 25.5s1.5 13.5 4.5 17.5s7.83301 6 14.5 6s15 -6.16699 25 -18.5s20.333 -18.5 31 -18.5c44.667 0 67 24 67 72c0 15.333 -3.83301 30.333 -11.5 45s-18.167 22 -31.5 22l-34 -5c-6.66699 0 -10 4 -10 12
c0 3.33301 1.33301 6.33301 4 9c22 20 40 40.333 54 61l-65 24c-8.66699 0 -13 -3.66699 -13 -11z" />
    <glyph glyph-name="acute" unicode="&#xb4;" horiz-adv-x="348" 
d="M179 513c0 5.33301 -1.66797 10.501 -5.00098 15.501s-5 9.16699 -5 12.5s5.83301 8 17.5 14s21.167 9 28.5 9s14.5 -4 21.5 -12s10.5 -19.333 10.5 -34c0 -22.667 -14.333 -44.667 -43 -66c-13.333 -10 -28.833 -18.667 -46.5 -26s-30.667 -11 -39 -11s-12.5 3 -12.5 9
c0 3.33301 4.66699 7.66602 14 12.999c38.667 18.667 58.334 44 59.001 76z" />
    <glyph glyph-name="mu" unicode="&#xb5;" horiz-adv-x="457" 
d="M354 46c12 0 28.001 13.832 48.001 41.499s39.833 63.334 59.5 107.001s31.667 65.5 36 65.5s6.5 -2.66699 6.5 -8c0 -18.667 -9.66699 -48.334 -29 -89.001c-52.667 -112 -97.334 -168 -134.001 -168c-26 0 -45.667 5.33301 -59 16
c-4.66699 4.66699 -7 19.834 -7 45.501s0.666992 45.834 2 60.501c-35.333 -81.333 -73.333 -122 -114 -122c-23.333 0 -43 17 -59 51l-20 -132c-7.33301 -50 -12 -80.667 -14 -92c-4.66699 -28.667 -14.5 -53 -29.5 -73s-28 -30 -39 -30s-20.333 2.33301 -28 7
s-11.5 10.5 -11.5 17.5s5.5 18.167 16.5 33.5s18.333 28.166 22 38.499s9.5 29.833 17.5 58.5c25.333 96 45.333 187.333 60 274c-4.66699 33.333 -7 66.666 -7 99.999s3.83301 55.833 11.5 67.5s17.5 22.834 29.5 33.501s22.667 16 32 16c12.667 0 19 -9.33301 19 -28
s-3.66699 -42.5 -11 -71.5s-13.333 -49.5 -18 -61.5c0 -44 4.66699 -81 14 -111s22.666 -45 39.999 -45c14 0 28.167 12.167 42.5 36.5s32.166 64.833 53.499 121.5c6 67.333 10.833 103.666 14.5 108.999s12.834 15 27.501 29s26.834 21 36.501 21s14.5 -12.667 14.5 -38
c0 -6 -1.83301 -18.667 -5.5 -38s-8.5 -35.166 -14.5 -47.499s-9 -68.5 -9 -168.5c0 -18 2 -27 6 -27z" />
    <glyph glyph-name="mu" unicode="&#x3bc;" horiz-adv-x="457" 
d="M354 46c12 0 28.001 13.832 48.001 41.499s39.833 63.334 59.5 107.001s31.667 65.5 36 65.5s6.5 -2.66699 6.5 -8c0 -18.667 -9.66699 -48.334 -29 -89.001c-52.667 -112 -97.334 -168 -134.001 -168c-26 0 -45.667 5.33301 -59 16
c-4.66699 4.66699 -7 19.834 -7 45.501s0.666992 45.834 2 60.501c-35.333 -81.333 -73.333 -122 -114 -122c-23.333 0 -43 17 -59 51l-20 -132c-7.33301 -50 -12 -80.667 -14 -92c-4.66699 -28.667 -14.5 -53 -29.5 -73s-28 -30 -39 -30s-20.333 2.33301 -28 7
s-11.5 10.5 -11.5 17.5s5.5 18.167 16.5 33.5s18.333 28.166 22 38.499s9.5 29.833 17.5 58.5c25.333 96 45.333 187.333 60 274c-4.66699 33.333 -7 66.666 -7 99.999s3.83301 55.833 11.5 67.5s17.5 22.834 29.5 33.501s22.667 16 32 16c12.667 0 19 -9.33301 19 -28
s-3.66699 -42.5 -11 -71.5s-13.333 -49.5 -18 -61.5c0 -44 4.66699 -81 14 -111s22.666 -45 39.999 -45c14 0 28.167 12.167 42.5 36.5s32.166 64.833 53.499 121.5c6 67.333 10.833 103.666 14.5 108.999s12.834 15 27.501 29s26.834 21 36.501 21s14.5 -12.667 14.5 -38
c0 -6 -1.83301 -18.667 -5.5 -38s-8.5 -35.166 -14.5 -47.499s-9 -68.5 -9 -168.5c0 -18 2 -27 6 -27z" />
    <glyph glyph-name="paragraph" unicode="&#xb6;" horiz-adv-x="649" 
d="M511 428l6.99805 -262.996c0 -113.333 -21 -170 -63 -170c-10.667 0 -20.167 3.16699 -28.5 9.5s-12.5 14.833 -12.5 25.5s3 21.334 9 32.001c18 28 29.333 69.667 34 125s7 111.666 7 168.999s1.33301 95.333 4 114c-29.333 0.666992 -60.666 4 -93.999 10
c1.33301 -92 2 -154.833 2 -188.5s-1.16699 -62.834 -3.5 -87.501s-7.5 -50.5 -15.5 -77.5s-18.5 -49.667 -31.5 -68s-31 -33.5 -54 -45.5s-49.667 -18 -80 -18s-57.666 7 -81.999 21s-36.5 35.667 -36.5 65c0 18 4.66699 32.833 14 44.5s21.833 17.5 37.5 17.5
s23.5 -3.66699 23.5 -11c0 -3.33301 -2 -9.83301 -6 -19.5s-6 -19.334 -6 -29.001s6.16699 -20.167 18.5 -31.5s30.166 -17 53.499 -17c66 0 99 97 99 291v167c-63.333 14 -100.666 21 -111.999 21c-30 0 -55.167 -9.83301 -75.5 -29.5s-30.5 -43.667 -30.5 -72
s8.83301 -51.5 26.5 -69.5s33.5 -27 47.5 -27s26.5 3.66699 37.5 11s20.833 11 29.5 11c11.333 0 17 -5.83301 17 -17.5s-5.16699 -21.167 -15.5 -28.5s-26.5 -11 -48.5 -11c-36.667 0 -68.667 14.667 -96 44s-41 61.666 -41 96.999c0 49.333 12 88.666 36 117.999
s61 44 111 44c28 0 68 -9.66699 120 -29c8 44 22.333 66 43 66c12 0 18 -28.667 18 -86c41.333 -12 76 -20 104 -24c15.333 36 41.666 54 78.999 54c12.667 0 22.334 -3.5 29.001 -10.5s10 -14.833 10 -23.5c0 -18 -7 -32.667 -21 -44s-35 -17.333 -63 -18
c-0.666992 -9.33301 -1 -23 -1 -41zM552.998 541.004c-16.667 0 -28.333 -10.667 -35 -32h6c29.333 0 44 6.33301 44 19c0 8.66699 -5 13 -15 13z" />
    <glyph glyph-name="periodcentered" unicode="&#xb7;" horiz-adv-x="107" 
d="M-5 202.5c-9.33301 6.33301 -13.999 16.832 -13.999 31.499s6.66699 26.167 20 34.5s25.666 12.5 36.999 12.5s20.833 -3.16699 28.5 -9.5s11.5 -14.166 11.5 -23.499c0 -36.667 -18 -55 -54 -55c-10 0 -19.667 3.16699 -29 9.5z" />
    <glyph glyph-name="onesuperior" unicode="&#xb9;" horiz-adv-x="204" 
d="M148 568l-8.00098 -104.999c0 -24.667 -1.66699 -53.667 -5 -87c-4 -28.667 -18.667 -43 -44 -43c-8 0 -12 8.66699 -12 26s3.33301 48.666 10 93.999s10 80 10 104s-1.33301 36 -4 36c-6.66699 0 -24 -33.333 -52 -100c-2.66699 -6 -5.33398 -14.167 -8.00098 -24.5
s-5.16699 -18 -7.5 -23s-5.83301 -7.5 -10.5 -7.5c-11.333 0 -17 4 -17 12c0 2.66699 5.83301 18.167 17.5 46.5s34.834 70.5 69.501 126.5c6.66699 11.333 20.334 17 41.001 17c13.333 0 20 -24 20 -72z" />
    <glyph glyph-name="ordmasculine" unicode="&#xba;" horiz-adv-x="320" 
d="M277 520c7.33301 2.66699 17.168 7.5 29.501 14.5s20 10.5 23 10.5s4.5 -2.83301 4.5 -8.5s-6.83301 -13.334 -20.5 -23.001s-26.834 -17.167 -39.501 -22.5c-6 -46.667 -22.333 -84.667 -49 -114s-62.667 -44 -108 -44c-34 0 -60.5 12.5 -79.5 37.5
s-28.5 56.5 -28.5 94.5s11.5 73.833 34.5 107.5s52.5 50.5 88.5 50.5c17.333 11.333 37 17 59 17s41.833 -10.667 59.5 -32s26.5 -50.666 26.5 -87.999zM136.002 370c47.333 0 75.001 35.001 83.001 105.001c-6 -1.33301 -15.333 -2 -28 -2
c-26.667 0 -48.834 7.66699 -66.501 23s-26.5 32.166 -26.5 50.499s3 33.5 9 45.5c-24.667 -20 -37 -58.333 -37 -115c0 -30 6.5 -55.333 19.5 -76s28.5 -31 46.5 -31zM221.003 506.001c0 24.667 -4.33398 48.666 -13.001 71.999s-21 35 -37 35
c-9.33301 0 -16.666 -4.16699 -21.999 -12.5s-8 -17.166 -8 -26.499c0 -19.333 7.66699 -35.5 23 -48.5s34.333 -19.5 57 -19.5z" />
    <glyph glyph-name="guillemotright" unicode="&#xbb;" horiz-adv-x="460" 
d="M82.5 15.5c-3 -3.66699 -6.00391 -5.49805 -9.00391 -5.49805s-6 2.66699 -9 8s-4.5 11.333 -4.5 18c0 17.333 9.83301 34.666 29.5 51.999s56.5 43 110.5 77c-36 19.333 -65.5 42 -88.5 68s-34.5 44.5 -34.5 55.5s3.16699 21.667 9.5 32s11.666 15.5 15.999 15.5
s14 -9.16699 29 -27.5l52.5 -62.5c24 -26.667 43.667 -42.667 59 -48c2.66699 -1.33301 4.33398 -2.33301 5.00098 -3s2.16699 -1.66699 4.5 -3s3.83301 -2.33301 4.5 -3c4 -4 6.16699 -6.66699 6.5 -8s0.833008 -2.83301 1.5 -4.5s1 -4.83398 1 -9.50098
s-2.16699 -9.5 -6.5 -14.5s-9.16602 -7.5 -14.499 -7.5s-23.166 -10.333 -53.499 -31s-52.166 -37.5 -65.499 -50.5s-23.166 -23.333 -29.499 -31zM214.996 31.002c0 39.333 44.666 85.3311 133.999 137.998c-27.333 10.667 -55.166 32.834 -83.499 66.501
s-42.5 56.167 -42.5 67.5s4 21.333 12 30s14.667 13 20 13c4 0 9 -6 15 -18s16.667 -28.667 32 -50s30.833 -38 46.5 -50s28.167 -20 37.5 -24s16.333 -7.16699 21 -9.5s7 -6.16602 7 -11.499s-1.83301 -12 -5.5 -20s-7.5 -12 -11.5 -12s-11 -3 -21 -9
c-26.667 -14.667 -51.334 -33 -74.001 -55s-38.334 -38.667 -47.001 -50l-18 -24c-3.33301 -4.66699 -5.66602 -7 -6.99902 -7c-3.33301 0 -6.66602 2.83301 -9.99902 8.5s-5 11.167 -5 16.5z" />
    <glyph glyph-name="onequarter" unicode="&#xbc;" horiz-adv-x="716" 
d="M186 7c0 16 12.668 46.834 38.001 92.501s48.666 84.167 69.999 115.5c66.667 99.333 123.334 203.666 170.001 312.999c9.33301 21.333 22.333 32 39 32c5.33301 0 8 -3.33301 8 -10s-7.33301 -27.667 -22 -63s-47 -101.5 -97 -198.5s-86.833 -172 -110.5 -225
s-46.834 -79.5 -69.501 -79.5c-5.33301 0 -11 2 -17 6s-9 9.66699 -9 17zM538.001 72.001l-114.998 -5.00195c-14 0 -21 7.33301 -21 22c0 10.667 9 16.667 27 18c5.33301 13.333 17.666 42 36.999 86s30.166 69 32.499 75s4.16602 11.833 5.49902 17.5
s2.66602 9.83398 3.99902 12.501c4 10 9.5 15 16.5 15s12.333 -2.66699 16 -8s5.5 -11.333 5.5 -18s-1.16699 -12.667 -3.5 -18s-6 -11.666 -11 -18.999s-8.16699 -12.333 -9.5 -15c-27.333 -47.333 -47.333 -89.666 -60 -126.999c10 1.33301 24.333 3.5 43 6.5
s32.334 4.83301 41.001 5.5c4.66699 58.667 11 88 19 88c4 0 8.66699 -2.5 14 -7.5s8 -10.167 8 -15.5c0 -18 -1.66699 -38.667 -5 -62c14.667 -0.666992 26 -4.83398 34 -12.501s12 -15.5 12 -23.5c0 -12.667 -5.66699 -19 -17 -19l-34 5
c-0.666992 -5.33301 -1 -13.333 -1 -24l1 -32c-1.33301 -14.667 -12.666 -22 -33.999 -22c-6.66699 0 -10 7.33301 -10 22s1.66699 33 5 55zM229.003 468.999l-8.00098 -104.999c0 -24.667 -1.66699 -53.667 -5 -87c-4 -28.667 -18.667 -43 -44 -43c-8 0 -12 8.66699 -12 26
s3.33301 48.666 10 93.999s10 80 10 104s-1.33301 36 -4 36c-6.66699 0 -24 -33.333 -52 -100c-2.66699 -6 -5.33398 -14.167 -8.00098 -24.5s-5.16699 -18 -7.5 -23s-5.83301 -7.5 -10.5 -7.5c-11.333 0 -17 4 -17 12c0 2.66699 5.83301 18.167 17.5 46.5
s34.834 70.5 69.501 126.5c6.66699 11.333 20.334 17 41.001 17c13.333 0 20 -24 20 -72z" />
    <glyph glyph-name="onehalf" unicode="&#xbd;" horiz-adv-x="764" 
d="M186 7c0 16 12.668 46.834 38.001 92.501s48.666 84.167 69.999 115.5c66.667 99.333 123.334 203.666 170.001 312.999c9.33301 21.333 22.333 32 39 32c5.33301 0 8 -3.33301 8 -10s-7.33301 -27.667 -22 -63s-47 -101.5 -97 -198.5s-86.833 -172 -110.5 -225
s-46.834 -79.5 -69.501 -79.5c-5.33301 0 -11 2 -17 6s-9 9.66699 -9 17zM522.001 71.001l81 -19.9971c13.333 0 26 9.66699 38 29c6.66699 10.667 11 16 13 16c5.33301 0 8 -6.16699 8 -18.5s-5.33301 -26.5 -16 -42.5s-19.834 -26.667 -27.501 -32s-15.667 -8 -24 -8
s-24.333 5.66699 -48 17s-42.167 17 -55.5 17c-8.66699 -19.333 -19.667 -29 -33 -29c-12 0 -18 7.33301 -18 22s4.83301 27.334 14.5 38.001s21.5 16 35.5 16l36 37c15.333 15.333 25.166 25.666 29.499 30.999s9.83301 12.666 16.5 21.999c10.667 14.667 16 31 16 49
c0 38 -14.5 57 -43.5 57s-43.5 -10.667 -43.5 -32c0 -5.33301 1.5 -11.666 4.5 -18.999s4.5 -13 4.5 -17s-2.16699 -8.33301 -6.5 -13s-8.16602 -7 -11.499 -7c-6.66699 0 -11.667 4.16699 -15 12.5s-5 16.833 -5 25.5c0 24 8.83301 43.333 26.5 58s37.667 22 60 22
s40.5 -6.83301 54.5 -20.5s21 -30.334 21 -50.001s-3.16699 -36.334 -9.5 -50.001s-13 -24.334 -20 -32.001s-19.667 -19.667 -38 -36s-33.166 -30.5 -44.499 -42.5zM232.001 466.004l-8.00098 -104.999c0 -24.667 -1.66699 -53.667 -5 -87c-4 -28.667 -18.667 -43 -44 -43
c-8 0 -12 8.66699 -12 26s3.33301 48.666 10 93.999s10 80 10 104s-1.33301 36 -4 36c-6.66699 0 -24 -33.333 -52 -100c-2.66699 -6 -5.33398 -14.167 -8.00098 -24.5s-5.16699 -18 -7.5 -23s-5.83301 -7.5 -10.5 -7.5c-11.333 0 -17 4 -17 12
c0 2.66699 5.83301 18.167 17.5 46.5s34.834 70.5 69.501 126.5c6.66699 11.333 20.334 17 41.001 17c13.333 0 20 -24 20 -72z" />
    <glyph glyph-name="threequarters" unicode="&#xbe;" horiz-adv-x="697" 
d="M186 7c0 16 12.668 46.834 38.001 92.501s48.666 84.167 69.999 115.5c66.667 99.333 123.334 203.666 170.001 312.999c9.33301 21.333 22.333 32 39 32c5.33301 0 8 -3.33301 8 -10s-7.33301 -27.667 -22 -63s-47 -101.5 -97 -198.5s-86.833 -172 -110.5 -225
s-46.834 -79.5 -69.501 -79.5c-5.33301 0 -11 2 -17 6s-9 9.66699 -9 17zM112.001 491.001l4.99805 -17.9971c0 -3.33301 -1.66699 -5 -5 -5c-6.66699 0 -12.167 5.16699 -16.5 15.5s-6.5 19.5 -6.5 27.5s2.5 15.167 7.5 21.5s11.333 9.5 19 9.5s23.334 -4 47.001 -12
s43.5 -12 59.5 -12c7.33301 11.333 14.666 17 21.999 17s13 -3.33301 17 -10s6 -14.334 6 -23.001s-4.5 -16 -13.5 -22s-19.167 -9 -30.5 -9c-4 -4.66699 -10.667 -11.834 -20 -21.501l-25 -26.5c6.66699 0.666992 13.667 1 21 1c21.333 0 38.333 -7.83301 51 -23.5
s19 -37.334 19 -65.001s-12.667 -51.167 -38 -70.5s-56.666 -29 -93.999 -29c-17.333 0 -32 4.66699 -44 14s-18 17.833 -18 25.5s1.5 13.5 4.5 17.5s7.83301 6 14.5 6s15 -6.16699 25 -18.5s20.333 -18.5 31 -18.5c46 0 69 24 69 72c0 16 -3.66699 31.5 -11 46.5
s-17.666 22.5 -30.999 22.5l-34 -5c-7.33301 0 -11 3.33301 -11 10c0 3.33301 1.33301 6.33301 4 9c22 20 40 40.333 54 61l-65 24c-8.66699 0 -13 -3.66699 -13 -11zM537.999 72.0039l-114.998 -5.00195c-14 0 -21 7.33301 -21 22c0 10.667 9 16.667 27 18
c5.33301 13.333 17.666 42 36.999 86s30.166 69 32.499 75s4.16602 11.833 5.49902 17.5s2.66602 9.83398 3.99902 12.501c4 10 9.5 15 16.5 15s12.333 -2.66699 16 -8s5.5 -11.333 5.5 -18s-1.16699 -12.667 -3.5 -18s-6 -11.666 -11 -18.999s-8.16699 -12.333 -9.5 -15
c-27.333 -47.333 -47.333 -89.666 -60 -126.999c10 1.33301 24.333 3.5 43 6.5s32.334 4.83301 41.001 5.5c4.66699 58.667 11 88 19 88c4 0 8.66699 -2.5 14 -7.5s8 -10.167 8 -15.5c0 -18 -1.66699 -38.667 -5 -62c14.667 -0.666992 26 -4.83398 34 -12.501
s12 -15.5 12 -23.5c0 -12.667 -5.66699 -19 -17 -19l-34 5c-0.666992 -5.33301 -1 -13.333 -1 -24l1 -32c-1.33301 -14.667 -12.666 -22 -33.999 -22c-6.66699 0 -10 7.33301 -10 22s1.66699 33 5 55z" />
    <glyph glyph-name="questiondown" unicode="&#xbf;" horiz-adv-x="355" 
d="M214 214c16 0 28.999 -6.33301 38.999 -19s15 -27.834 15 -45.501s-5.16699 -33.334 -15.5 -47.001s-22.833 -25.167 -37.5 -34.5s-29.5 -19.333 -44.5 -30s-27.667 -25.667 -38 -45s-15.5 -43.166 -15.5 -71.499s7.83301 -51.833 23.5 -70.5s37.334 -28 65.001 -28
s49.834 23.333 66.501 70c6 17.333 17 26 33 26c8 0 14.167 -3 18.5 -9s6.5 -12.333 6.5 -19c-0.666992 -28.667 -18.167 -53.167 -52.5 -73.5s-68.833 -30.5 -103.5 -30.5s-66.167 10.167 -94.5 30.5s-42.5 47.333 -42.5 81s6 62.334 18 86.001s26.667 42 44 55
s34.833 24.5 52.5 34.5s32.5 19.833 44.5 29.5s18 19 18 28s-5 17.833 -15 26.5s-15 15.167 -15 19.5s3.66699 11.5 11 21.5s13.666 15 18.999 15zM269.999 355.5c9.33301 -6.33301 13.999 -16.832 13.999 -31.499s-6.66699 -26.167 -20 -34.5s-25.666 -12.5 -36.999 -12.5
s-20.833 3.16699 -28.5 9.5s-11.5 14.166 -11.5 23.499c0 36.667 18 55 54 55c10 0 19.667 -3.16699 29 -9.5z" />
    <glyph glyph-name="Agrave" unicode="&#xc0;" 
d="M396 46c11.333 0 27 13.835 47 41.502s39.833 63.334 59.5 107.001s31.667 65.5 36 65.5s6.5 -2.66699 6.5 -8c0 -18.667 -9.66699 -48.334 -29 -89.001c-52.667 -112 -97 -168 -133 -168c-30.667 0 -52.667 5.33301 -66 16c-6 6 -9 69.333 -9 190l-164 -12
c-12.667 -34.667 -24 -69.334 -34 -104.001s-16.667 -56 -20 -64c-7.33301 -17.333 -25 -26 -53 -26c-18.667 0 -28 8 -28 24s12.667 39.333 38 70c4.66699 6 20 38.333 46 97c-9.33301 -0.666992 -18.333 -1 -27 -1c-23.333 0 -35 10 -35 30c0 18 9.33301 27 28 27
c1.33301 0 20.333 -1.66699 57 -5c10 23.333 20.667 46.333 32 69c87.333 182.667 147.333 274 180 274c24.667 0 41.667 -114.333 51 -343h9c4.66699 0 7 -3.33301 7 -10s-5 -12.334 -15 -17.001c4 -109.333 9.33301 -164 16 -164zM159 232.002
c78 0 127.67 0.331055 149.003 0.998047c-0.666992 10.667 -1.33398 29.334 -2.00098 56.001s-1.33398 49.834 -2.00098 69.501l-2 61.5c-2.66699 46 -6.66699 69 -12 69c-7.33301 0 -22.333 -21.667 -45 -65s-40.334 -80 -53.001 -110zM336.503 729
c5 -12 8.83398 -19.9971 11.501 -23.9971s5.16699 -7.5 7.5 -10.5s4.5 -5.5 6.5 -7.5s4.66699 -4.16699 8 -6.5l8 -5.5c2 -1.33301 5.16699 -3.16602 9.5 -5.49902s7.33301 -3.83301 9 -4.5s5.16699 -2.33398 10.5 -5.00098l10 -5c8.66699 -4.66699 13 -10.334 13 -17.001
c0 -10 -5.83301 -15 -17.5 -15s-26.834 3.16699 -45.501 9.5s-35 14.166 -49 23.499c-33.333 22.667 -50 46.667 -50 72c0 7.33301 5.33301 16.166 16 26.499s18.5 15.5 23.5 15.5s9.83301 -3.83301 14.5 -11.5s9.5 -17.5 14.5 -29.5z" />
    <glyph glyph-name="Aacute" unicode="&#xc1;" 
d="M396 46c12 0 28.001 13.835 48.001 41.502s39.833 63.334 59.5 107.001s31.667 65.5 36 65.5s6.5 -2.66699 6.5 -8c0 -18.667 -9.66699 -48.334 -29 -89.001c-52.667 -112 -97.334 -168 -134.001 -168c-30.667 0 -52.667 5.33301 -66 16c-6 6 -9 69.333 -9 190l-164 -12
c-12.667 -34.667 -24 -69.334 -34 -104.001s-16.667 -56 -20 -64c-7.33301 -17.333 -25 -26 -53 -26c-18.667 0 -28 8 -28 24s12.667 39.333 38 70c4.66699 6 20 38.333 46 97c-9.33301 -0.666992 -18.333 -1 -27 -1c-23.333 0 -35 10 -35 30c0 18 9.33301 27 28 27
c1.33301 0 20.333 -1.66699 57 -5c10 23.333 20.667 46.333 32 69c87.333 182.667 147.333 274 180 274c24.667 0 41.667 -114.333 51 -343h9c4.66699 0 7 -3.33301 7 -10s-5 -12.334 -15 -17.001c4 -109.333 9.33301 -164 16 -164zM159.001 232.002
c78 0 127.67 0.331055 149.003 0.998047c-0.666992 10.667 -1.33398 29.334 -2.00098 56.001s-1.33398 49.834 -2.00098 69.501l-2 61.5c-2.66699 46 -6.66699 69 -12 69c-7.33301 0 -22.333 -21.667 -45 -65s-40.334 -80 -53.001 -110zM333.004 719
c0 5.33301 -1.66797 10.501 -5.00098 15.501s-5 9.16699 -5 12.5s5.83301 8 17.5 14s21.167 9 28.5 9s14.5 -4 21.5 -12s10.5 -19.333 10.5 -34c0 -22.667 -14.333 -44.667 -43 -66c-13.333 -10 -28.833 -18.667 -46.5 -26s-30.667 -11 -39 -11s-12.5 3 -12.5 9
c0 3.33301 4.66699 7.66602 14 12.999c38.667 18.667 58.334 44 59.001 76z" />
    <glyph glyph-name="Acircumflex" unicode="&#xc2;" 
d="M396 46c12 0 28.001 13.835 48.001 41.502s39.833 63.334 59.5 107.001s31.667 65.5 36 65.5s6.5 -2.66699 6.5 -8c0 -18.667 -9.66699 -48.334 -29 -89.001c-52.667 -112 -97.334 -168 -134.001 -168c-30.667 0 -52.667 5.33301 -66 16c-6 6 -9 69.333 -9 190l-164 -12
c-12.667 -34.667 -24 -69.334 -34 -104.001s-16.667 -56 -20 -64c-7.33301 -17.333 -25 -26 -53 -26c-18.667 0 -28 8 -28 24s12.667 39.333 38 70c4.66699 6 20 38.333 46 97c-9.33301 -0.666992 -18.333 -1 -27 -1c-23.333 0 -35 10 -35 30c0 18 9.33301 27 28 27
c1.33301 0 20.333 -1.66699 57 -5c10 23.333 20.667 46.333 32 69c87.333 182.667 147.333 274 180 274c24.667 0 41.667 -114.333 51 -343h9c4.66699 0 7 -3.33301 7 -10s-5 -12.334 -15 -17.001c4 -109.333 9.33301 -164 16 -164zM159.001 232.002
c78 0 127.67 0.331055 149.003 0.998047c-0.666992 10.667 -1.33398 29.334 -2.00098 56.001s-1.33398 49.834 -2.00098 69.501l-2 61.5c-2.66699 46 -6.66699 69 -12 69c-7.33301 0 -22.333 -21.667 -45 -65s-40.334 -80 -53.001 -110zM432.004 623
c-8 -5.33301 -14.001 -8.00488 -18.001 -8.00488c-34.667 0 -63.667 23.667 -87 71c-8 -17.333 -22.333 -31.666 -43 -42.999s-35.834 -17 -45.501 -17s-14.834 3 -15.501 9c0 2.66699 2.83301 5.33398 8.5 8.00098s11.334 5.83398 17.001 9.50098s12.167 9 19.5 16l17 16
c4 3.66699 7.33301 9 10 16s4.33398 11.5 5.00098 13.5c3.33301 8 5 17 5 27c0.666992 5.33301 6.83398 11.5 18.501 18.5s20.167 10.5 25.5 10.5c8 0 13 -6.5 15 -19.5s4.16699 -23.833 6.5 -32.5s7.5 -19.667 15.5 -33c11.333 -17.333 25.333 -29.666 42 -36.999
c10.667 -4.66699 16 -8.66699 16 -12s-4 -7.66602 -12 -12.999z" />
    <glyph glyph-name="Atilde" unicode="&#xc3;" 
d="M396 46c12 0 28.001 13.835 48.001 41.502s39.833 63.334 59.5 107.001s31.667 65.5 36 65.5s6.5 -2.66699 6.5 -8c0 -18.667 -9.66699 -48.334 -29 -89.001c-52.667 -112 -97.334 -168 -134.001 -168c-30.667 0 -52.667 5.33301 -66 16c-6 6 -9 69.333 -9 190l-164 -12
c-12.667 -34.667 -24 -69.334 -34 -104.001s-16.667 -56 -20 -64c-7.33301 -17.333 -25 -26 -53 -26c-18.667 0 -28 8 -28 24s12.667 39.333 38 70c4.66699 6 20 38.333 46 97c-9.33301 -0.666992 -18.333 -1 -27 -1c-23.333 0 -35 10 -35 30c0 18 9.33301 27 28 27
c1.33301 0 20.333 -1.66699 57 -5c10 23.333 20.667 46.333 32 69c87.333 182.667 147.333 274 180 274c24.667 0 41.667 -114.333 51 -343h9c4.66699 0 7 -3.33301 7 -10s-5 -12.334 -15 -17.001c4 -109.333 9.33301 -164 16 -164zM159.001 232.002
c78 0 127.67 0.331055 149.003 0.998047c-0.666992 10.667 -1.33398 29.334 -2.00098 56.001s-1.33398 49.834 -2.00098 69.501l-2 61.5c-2.66699 46 -6.66699 69 -12 69c-7.33301 0 -22.333 -21.667 -45 -65s-40.334 -80 -53.001 -110zM338.504 704.5
c33.667 -13.667 53.998 -20.5 60.998 -20.5s14.167 5.5 21.5 16.5s13 16.5 17 16.5c8.66699 0 13 -7.16699 13 -21.5s-7.66699 -29.5 -23 -45.5s-31.666 -24 -48.999 -24s-38 7.16699 -62 21.5s-42.333 21.5 -55 21.5c-4.66699 0 -9.16699 -4.66699 -13.5 -14
s-9.16602 -14 -14.499 -14c-11.333 0 -17 6.66699 -17 20s4.83301 27.333 14.5 42s21.5 22 35.5 22s37.833 -6.83301 71.5 -20.5z" />
    <glyph glyph-name="Adieresis" unicode="&#xc4;" 
d="M396 46c12 0 28.001 13.835 48.001 41.502s39.833 63.334 59.5 107.001s31.667 65.5 36 65.5s6.5 -2.66699 6.5 -8c0 -18.667 -9.66699 -48.334 -29 -89.001c-52.667 -112 -97.334 -168 -134.001 -168c-30.667 0 -52.667 5.33301 -66 16c-6 6 -9 69.333 -9 190l-164 -12
c-12.667 -34.667 -24 -69.334 -34 -104.001s-16.667 -56 -20 -64c-7.33301 -17.333 -25 -26 -53 -26c-18.667 0 -28 8 -28 24s12.667 39.333 38 70c4.66699 6 20 38.333 46 97c-9.33301 -0.666992 -18.333 -1 -27 -1c-23.333 0 -35 10 -35 30c0 18 9.33301 27 28 27
c1.33301 0 20.333 -1.66699 57 -5c10 23.333 20.667 46.333 32 69c87.333 182.667 147.333 274 180 274c24.667 0 41.667 -114.333 51 -343h9c4.66699 0 7 -3.33301 7 -10s-5 -12.334 -15 -17.001c4 -109.333 9.33301 -164 16 -164zM159.001 232.002
c78 0 127.67 0.331055 149.003 0.998047c-0.666992 10.667 -1.33398 29.334 -2.00098 56.001s-1.33398 49.834 -2.00098 69.501l-2 61.5c-2.66699 46 -6.66699 69 -12 69c-7.33301 0 -22.333 -21.667 -45 -65s-40.334 -80 -53.001 -110zM232.504 632
c-9 6 -13.5 15.667 -13.5 29s6.16699 24 18.5 32s23.833 12 34.5 12s19.667 -3 27 -9s11 -13.333 11 -22c0 -34 -17 -51 -51 -51c-8.66699 0 -17.5 3 -26.5 9zM376.504 632c-9 6 -13.501 15.667 -13.501 29s6.33301 24 19 32s24.334 12 35.001 12s19.5 -3 26.5 -9
s10.5 -13.333 10.5 -22c0 -34 -16.667 -51 -50 -51c-9.33301 0 -18.5 3 -27.5 9z" />
    <glyph glyph-name="Aring" unicode="&#xc5;" 
d="M396 46c12 0 28.001 13.834 48.001 41.501s39.833 63.334 59.5 107.001s31.667 65.5 36 65.5s6.5 -2.66699 6.5 -8c0 -18.667 -9.66699 -48.334 -29 -89.001c-52.667 -112 -97.334 -168 -134.001 -168c-30.667 0 -52.667 5.33301 -66 16c-6 6 -9 69.333 -9 190l-164 -12
c-12.667 -34.667 -24 -69.334 -34 -104.001s-16.667 -56 -20 -64c-7.33301 -17.333 -25 -26 -53 -26c-18.667 0 -28 8 -28 24s12.667 39.333 38 70c4.66699 6 20 38.333 46 97c-9.33301 -0.666992 -18.333 -1 -27 -1c-23.333 0 -35 10 -35 30c0 18 9.33301 27 28 27
c1.33301 0 20.333 -1.66699 57 -5c10 23.333 20.667 46.333 32 69c59.333 124.667 107 207.334 143 248.001c-18.667 7.33301 -28 21.166 -28 41.499s5.5 37.5 16.5 51.5s25.5 21 43.5 21s31.5 -4.83301 40.5 -14.5s13.5 -21.5 13.5 -35.5c0 -27.333 -10.667 -47 -32 -59
c14.667 -37.333 26 -144.666 34 -321.999h9c4.66699 0 7 -3.33301 7 -10s-5 -12.334 -15 -17.001c4 -109.333 9.33301 -164 16 -164zM159.001 232.001c78 0 127.67 0.331055 149.003 0.998047c-0.666992 10.667 -1.33398 29.334 -2.00098 56.001
s-1.33398 49.834 -2.00098 69.501l-2 61.5c-2.66699 46 -6.66699 69 -12 69c-7.33301 0 -22.333 -21.667 -45 -65s-40.334 -80 -53.001 -110zM342.004 629.999c-4 5.33301 -9.66699 8 -17 8s-13.833 -3 -19.5 -9s-8.5 -13 -8.5 -21c0 -18.667 7.33301 -28 22 -28
c8 0 14.833 3.16699 20.5 9.5s8.5 13.333 8.5 21s-2 14.167 -6 19.5z" />
    <glyph glyph-name="AE" unicode="&#xc6;" horiz-adv-x="731" 
d="M415 48c25.333 -32.667 60.1641 -49 104.497 -49s86.166 20.667 125.499 62s72 89.333 98 144c2.66699 6.66699 5.66699 13 9 19s6 11 8 15s3.66699 7.16699 5 9.5s3 4.83301 5 7.5c2.66699 4 6 6 10 6s6 -2.66699 6 -8c0 -24 -16.833 -65 -50.5 -123
s-70.167 -101.333 -109.5 -130s-88 -43 -146 -43s-103 16.333 -135 49s-48 73.334 -48 122.001c0 8 0.666992 32 2 72c-3.33301 0 -25 -1.5 -65 -4.5s-70 -5.16699 -90 -6.5c-12 -34.667 -23.167 -69.5 -33.5 -104.5s-17.166 -56.5 -20.499 -64.5
c-7.33301 -17.333 -25 -26 -53 -26c-18.667 0 -28 8 -28 24s12.667 39.333 38 70c4.66699 6 20 38.333 46 97c-6.66699 -0.666992 -15.667 -1 -27 -1c-23.333 0 -35 10 -35 30c0 18 9.33301 27 28 27c1.33301 0 20.333 -1.66699 57 -5c30 71.333 68 146.333 114 225
s78.667 118 98 118c21.333 0 34 -40.333 38 -121c16.667 36 44.5 64 83.5 84s76.5 30 112.5 30s62.167 -7.83301 78.5 -23.5s24.5 -33.834 24.5 -54.501s-4.66699 -37.167 -14 -49.5s-20.666 -18.5 -33.999 -18.5c-11.333 0 -17 6.33301 -17 19c0 4 1.5 11 4.5 21
s4.5 19.667 4.5 29s-5.16699 19.333 -15.5 30s-24.166 16 -41.499 16c-38 0 -68.833 -13.333 -92.5 -40s-35.5 -57.334 -35.5 -92.001s8.33301 -63 25 -85c29.333 14 56.166 21 80.499 21s44 -4.16699 59 -12.5s22.5 -20.666 22.5 -36.999s-9 -28.5 -27 -36.5
s-39.167 -12 -63.5 -12s-55.166 9.33301 -92.499 28c-15.333 -16.667 -27.666 -36.167 -36.999 -58.5s-14 -42.833 -14 -61.5c0 -39.333 12.667 -75.333 38 -108zM158.998 232c57.333 0 104.667 0.333008 142 1c2.66699 60 4 107.667 4 143c0 75.333 -5 113 -15 113
c-7.33301 0 -27 -31 -59 -93s-56 -116.667 -72 -164zM542.999 276c6 0 10.666 1.5 13.999 4.5s5 5.5 5 7.5c0 8 -5.33301 14.833 -16 20.5s-23.167 8.5 -37.5 8.5s-28.166 -3.66699 -41.499 -11c22 -20 47.333 -30 76 -30zM370.998 271l29 23.999
c-11.333 8.66699 -21.333 19.334 -30 32.001c0 -26 0.333008 -44.667 1 -56z" />
    <glyph glyph-name="Ccedilla" unicode="&#xc7;" horiz-adv-x="412" 
d="M195 -9c0 -4 4 -9.00488 12 -15.0049c24 -18 36 -36.333 36 -55s-7.5 -35.167 -22.5 -49.5s-29.833 -21.5 -44.5 -21.5s-28.167 2.33301 -40.5 7s-18.5 10.667 -18.5 18c0 12 5.33301 18 16 18c2 0 5.33301 -1.5 10 -4.5s10.5 -4.5 17.5 -4.5s13.5 3.33301 19.5 10
s9 16.334 9 29.001s-5.33301 24.334 -16 35.001s-16 17.834 -16 21.501s1 7.5 3 11.5c-50 5.33301 -89.167 29 -117.5 71s-42.5 85.667 -42.5 131c0 116 30.167 209.5 90.5 280.5s131.833 106.5 214.5 106.5c31.333 0 57 -9.16699 77 -27.5s30 -41.5 30 -69.5
s-7 -54 -21 -78s-30.833 -36 -50.5 -36s-29.5 5.33301 -29.5 16c0 12 6.5 25.667 19.5 41s19.5 30.666 19.5 45.999c0 47.333 -25.167 71 -75.5 71s-95.833 -33.667 -136.5 -101s-61 -136.666 -61 -207.999c0 -49.333 14 -93.166 42 -131.499s67.667 -57.5 119 -57.5
c60 0 117.667 40 173 120c4.66699 6.66699 11.667 18.334 21 35.001c20.667 38 33.167 57 37.5 57s6.5 -2.66699 6.5 -8c0 -32.667 -17 -74 -51 -124c-22.667 -33.333 -54.5 -64 -95.5 -92s-85.833 -42 -134.5 -42z" />
    <glyph glyph-name="Egrave" unicode="&#xc8;" horiz-adv-x="442" 
d="M334 482l1.99902 27.001c0 14.667 -5.5 28.5 -16.5 41.5s-25.833 19.5 -44.5 19.5c-32 0 -61 -14.333 -87 -43s-39 -59.167 -39 -91.5s8.33301 -59.5 25 -81.5c28.667 12.667 55.334 19 80.001 19s44.5 -4.16699 59.5 -12.5s22.5 -20.833 22.5 -37.5
s-8.16699 -29 -24.5 -37s-34.5 -12 -54.5 -12c-37.333 0 -71.333 10.333 -102 31c-16 -16.667 -28.833 -36.334 -38.5 -59.001s-14.5 -43.667 -14.5 -63c0 -39.333 12.667 -75.333 38 -108s59 -49 101 -49c88 0 159.667 58 215 174c18.667 38 30.5 57 35.5 57
s7.5 -2.66699 7.5 -8c0 -26.667 -16.5 -66.834 -49.5 -120.501s-68.667 -91 -107 -112s-85.333 -31.5 -141 -31.5s-99.5 16.333 -131.5 49s-48 73.334 -48 122.001c0 32 9.5 62.833 28.5 92.5s43.5 55.167 73.5 76.5c-31.333 26 -47 57.333 -47 94
c0 50.667 19.667 93.5 59 128.5s87 52.5 143 52.5c36.667 0 67.5 -9.5 92.5 -28.5s37.5 -41.5 37.5 -67.5c0 -14.667 -4.33301 -26.667 -13 -36s-19.667 -14 -33 -14c-19.333 0 -29 9.33301 -29 28zM270.999 335.501c-10.667 5.66699 -23 8.5 -37 8.5
s-27.667 -3.33301 -41 -10c22.667 -20.667 47.667 -31 75 -31c6 0 10.667 1.5 14 4.5s5 5.5 5 7.5c0 8 -5.33301 14.833 -16 20.5zM278.499 729.001c5 -12 8.83398 -19.9971 11.501 -23.9971s5.16699 -7.5 7.5 -10.5s4.5 -5.5 6.5 -7.5s4.66699 -4.16699 8 -6.5l8 -5.5
c2 -1.33301 5.16699 -3.16602 9.5 -5.49902s7.33301 -3.83301 9 -4.5s5.16699 -2.33398 10.5 -5.00098l10 -5c8.66699 -4.66699 13 -10.334 13 -17.001c0 -10 -5.83301 -15 -17.5 -15s-26.834 3.16699 -45.501 9.5s-35 14.166 -49 23.499c-33.333 22.667 -50 46.667 -50 72
c0 7.33301 5.33301 16.166 16 26.499s18.5 15.5 23.5 15.5s9.83301 -3.83301 14.5 -11.5s9.5 -17.5 14.5 -29.5z" />
    <glyph glyph-name="Eacute" unicode="&#xc9;" horiz-adv-x="442" 
d="M334 482l1.99902 27.001c0 14.667 -5.5 28.5 -16.5 41.5s-25.833 19.5 -44.5 19.5c-32 0 -61 -14.333 -87 -43s-39 -59.167 -39 -91.5s8.33301 -59.5 25 -81.5c28.667 12.667 55.334 19 80.001 19s44.5 -4.16699 59.5 -12.5s22.5 -20.833 22.5 -37.5
s-8.16699 -29 -24.5 -37s-34.5 -12 -54.5 -12c-37.333 0 -71.333 10.333 -102 31c-16 -16.667 -28.833 -36.334 -38.5 -59.001s-14.5 -43.667 -14.5 -63c0 -39.333 12.667 -75.333 38 -108s59 -49 101 -49c88 0 159.667 58 215 174c18.667 38 30.5 57 35.5 57
s7.5 -2.66699 7.5 -8c0 -26.667 -16.5 -66.834 -49.5 -120.501s-68.667 -91 -107 -112s-85.333 -31.5 -141 -31.5s-99.5 16.333 -131.5 49s-48 73.334 -48 122.001c0 32 9.5 62.833 28.5 92.5s43.5 55.167 73.5 76.5c-31.333 26 -47 57.333 -47 94
c0 50.667 19.667 93.5 59 128.5s87 52.5 143 52.5c36.667 0 67.5 -9.5 92.5 -28.5s37.5 -41.5 37.5 -67.5c0 -14.667 -4.33301 -26.667 -13 -36s-19.667 -14 -33 -14c-19.333 0 -29 9.33301 -29 28zM270.999 335.501c-10.667 5.66699 -23 8.5 -37 8.5
s-27.667 -3.33301 -41 -10c22.667 -20.667 47.667 -31 75 -31c6 0 10.667 1.5 14 4.5s5 5.5 5 7.5c0 8 -5.33301 14.833 -16 20.5zM287.999 738.001c0 5.33301 -1.66797 10.501 -5.00098 15.501s-5 9.16699 -5 12.5s5.83301 8 17.5 14s21.167 9 28.5 9
s14.5 -3.83301 21.5 -11.5s10.5 -19.167 10.5 -34.5c0 -22.667 -14.333 -44.667 -43 -66c-13.333 -10 -28.833 -18.667 -46.5 -26s-30.667 -11 -39 -11s-12.5 3 -12.5 9c0 3.33301 4.66699 7.66602 14 12.999c38.667 18.667 58.334 44 59.001 76z" />
    <glyph glyph-name="Ecircumflex" unicode="&#xca;" horiz-adv-x="442" 
d="M334 482l1.99902 27.001c0 14.667 -5.5 28.5 -16.5 41.5s-25.833 19.5 -44.5 19.5c-32 0 -61 -14.333 -87 -43s-39 -59.167 -39 -91.5s8.33301 -59.5 25 -81.5c28.667 12.667 55.334 19 80.001 19s44.5 -4.16699 59.5 -12.5s22.5 -20.833 22.5 -37.5
s-8.16699 -29 -24.5 -37s-34.5 -12 -54.5 -12c-37.333 0 -71.333 10.333 -102 31c-16 -16.667 -28.833 -36.334 -38.5 -59.001s-14.5 -43.667 -14.5 -63c0 -39.333 12.667 -75.333 38 -108s59 -49 101 -49c88 0 159.667 58 215 174c18.667 38 30.5 57 35.5 57
s7.5 -2.66699 7.5 -8c0 -26.667 -16.5 -66.834 -49.5 -120.501s-68.667 -91 -107 -112s-85.333 -31.5 -141 -31.5s-99.5 16.333 -131.5 49s-48 73.334 -48 122.001c0 32 9.5 62.833 28.5 92.5s43.5 55.167 73.5 76.5c-31.333 26 -47 57.333 -47 94
c0 50.667 19.667 93.5 59 128.5s87 52.5 143 52.5c36.667 0 67.5 -9.5 92.5 -28.5s37.5 -41.5 37.5 -67.5c0 -14.667 -4.33301 -26.667 -13 -36s-19.667 -14 -33 -14c-19.333 0 -29 9.33301 -29 28zM270.999 335.501c-10.667 5.66699 -23 8.5 -37 8.5
s-27.667 -3.33301 -41 -10c22.667 -20.667 47.667 -31 75 -31c6 0 10.667 1.5 14 4.5s5 5.5 5 7.5c0 8 -5.33301 14.833 -16 20.5zM386.999 623.001c-8 -5.33301 -14.002 -8.00488 -18.002 -8.00488c-34.667 0 -63.667 23.667 -87 71
c-8 -17.333 -22.333 -31.666 -43 -42.999s-35.834 -17 -45.501 -17s-14.834 3 -15.501 9c0 2.66699 2.83301 5.33398 8.5 8.00098s11.334 5.83398 17.001 9.50098s12.167 9 19.5 16l17 16c4 3.66699 7.33301 9 10 16s4.33398 11.5 5.00098 13.5c3.33301 8 5 17 5 27
c0.666992 5.33301 6.83398 11.5 18.501 18.5s20.167 10.5 25.5 10.5c8 0 13 -6.5 15 -19.5s4.16699 -23.833 6.5 -32.5s7.83301 -19.667 16.5 -33c10.667 -17.333 24.334 -29.666 41.001 -36.999c10.667 -4.66699 16 -8.66699 16 -12s-4 -7.66602 -12 -12.999z" />
    <glyph glyph-name="Edieresis" unicode="&#xcb;" horiz-adv-x="442" 
d="M334 482l1.99902 27.001c0 14.667 -5.5 28.5 -16.5 41.5s-25.833 19.5 -44.5 19.5c-32 0 -61 -14.333 -87 -43s-39 -59.167 -39 -91.5s8.33301 -59.5 25 -81.5c28.667 12.667 55.334 19 80.001 19s44.5 -4.16699 59.5 -12.5s22.5 -20.833 22.5 -37.5
s-8.16699 -29 -24.5 -37s-34.5 -12 -54.5 -12c-37.333 0 -71.333 10.333 -102 31c-16 -16.667 -28.833 -36.334 -38.5 -59.001s-14.5 -43.667 -14.5 -63c0 -39.333 12.667 -75.333 38 -108s59 -49 101 -49c88 0 159.667 58 215 174c18.667 38 30.5 57 35.5 57
s7.5 -2.66699 7.5 -8c0 -26.667 -16.5 -66.834 -49.5 -120.501s-68.667 -91 -107 -112s-85.333 -31.5 -141 -31.5s-99.5 16.333 -131.5 49s-48 73.334 -48 122.001c0 32 9.5 62.833 28.5 92.5s43.5 55.167 73.5 76.5c-31.333 26 -47 57.333 -47 94
c0 50.667 19.667 93.5 59 128.5s87 52.5 143 52.5c36.667 0 67.5 -9.5 92.5 -28.5s37.5 -41.5 37.5 -67.5c0 -14.667 -4.33301 -26.667 -13 -36s-19.667 -14 -33 -14c-19.333 0 -29 9.33301 -29 28zM270.999 335.501c-10.667 5.66699 -23 8.5 -37 8.5
s-27.667 -3.33301 -41 -10c22.667 -20.667 47.667 -31 75 -31c6 0 10.667 1.5 14 4.5s5 5.5 5 7.5c0 8 -5.33301 14.833 -16 20.5zM186.499 662.001c-9 6 -13.5 15.667 -13.5 29s6.16699 24 18.5 32s23.833 12 34.5 12s19.667 -3 27 -9s11 -13.333 11 -22
c0 -34 -17 -51 -51 -51c-8.66699 0 -17.5 3 -26.5 9zM330.499 662.001c-9 6 -13.501 15.667 -13.501 29s6.33301 24 19 32s24.334 12 35.001 12s19.5 -3 26.5 -9s10.5 -13.333 10.5 -22c0 -34 -16.667 -51 -50 -51c-9.33301 0 -18.5 3 -27.5 9z" />
    <glyph glyph-name="Igrave" unicode="&#xcc;" horiz-adv-x="429" 
d="M371 502l3.99902 -185.993c0 -224 -76.667 -336 -230 -336c-30 0 -57.167 7 -81.5 21s-36.5 35.667 -36.5 65c0 18 4.66699 32.833 14 44.5s21.833 17.5 37.5 17.5s23.5 -3.66699 23.5 -11c0 -3.33301 -2 -9.83301 -6 -19.5s-6 -19.334 -6 -29.001s5.66699 -20 17 -31
s28.333 -16.5 51 -16.5s42.334 4.66699 59.001 14s30 23.166 40 41.499s18.167 37.166 24.5 56.499s10.833 43.666 13.5 72.999c4 43.333 6 92.5 6 147.5s0.666992 100.5 2 136.5c-85.333 -14.667 -128 -51.334 -128 -110.001c0 -16.667 -3.5 -29.667 -10.5 -39
s-15.833 -14 -26.5 -14c-20 0 -30 11.333 -30 34c0 40.667 17.833 74.667 53.5 102s84.167 47.666 145.5 60.999c4.66699 27.333 16 49.5 34 66.5s34.333 25.5 49 25.5s26.5 -4.16699 35.5 -12.5s13.5 -19.5 13.5 -33.5c0 -32.667 -22.667 -55.334 -68 -68.001z
M397.999 582.007c-14.667 0 -23.333 -15 -26 -45c24 7.33301 36 17 36 29c0 10.667 -3.33301 16 -10 16zM271.5 729.007c5 -12 8.83398 -19.9971 11.501 -23.9971s5.16699 -7.5 7.5 -10.5s4.5 -5.5 6.5 -7.5s4.66699 -4.16699 8 -6.5l8 -5.5
c2 -1.33301 5.16699 -3.16602 9.5 -5.49902s7.33301 -3.83301 9 -4.5s5.16699 -2.33398 10.5 -5.00098l10 -5c8.66699 -4.66699 13 -10.334 13 -17.001c0 -10 -5.83301 -15 -17.5 -15s-26.834 3.16699 -45.501 9.5s-35 14.166 -49 23.499c-33.333 22.667 -50 46.667 -50 72
c0 7.33301 5.33301 16.166 16 26.499s18.5 15.5 23.5 15.5s9.83301 -3.83301 14.5 -11.5s9.5 -17.5 14.5 -29.5z" />
    <glyph glyph-name="Iacute" unicode="&#xcd;" horiz-adv-x="429" 
d="M371 502l3.99902 -185.993c0 -224 -76.667 -336 -230 -336c-30 0 -57.167 7 -81.5 21s-36.5 35.667 -36.5 65c0 18 4.66699 32.833 14 44.5s21.833 17.5 37.5 17.5s23.5 -3.66699 23.5 -11c0 -3.33301 -2 -9.83301 -6 -19.5s-6 -19.334 -6 -29.001s5.66699 -20 17 -31
s28.333 -16.5 51 -16.5s42.334 4.66699 59.001 14s30 23.166 40 41.499s18.167 37.166 24.5 56.499s10.833 43.666 13.5 72.999c4 43.333 6 92.5 6 147.5s0.666992 100.5 2 136.5c-85.333 -14.667 -128 -51.334 -128 -110.001c0 -16.667 -3.5 -29.667 -10.5 -39
s-15.833 -14 -26.5 -14c-20 0 -30 11.333 -30 34c0 40.667 17.833 74.667 53.5 102s84.167 47.666 145.5 60.999c4.66699 27.333 16 49.5 34 66.5s34.333 25.5 49 25.5s26.5 -4.16699 35.5 -12.5s13.5 -19.5 13.5 -33.5c0 -32.667 -22.667 -55.334 -68 -68.001z
M397.999 582.007c-14.667 0 -23.333 -15 -26 -45c24 7.33301 36 17 36 29c0 10.667 -3.33301 16 -10 16zM307 719.007c0 5.33301 -1.66797 10.501 -5.00098 15.501s-5 9.16699 -5 12.5s5.83301 8 17.5 14s21.167 9 28.5 9s14.5 -4 21.5 -12s10.5 -19.333 10.5 -34
c0 -22.667 -14.333 -44.667 -43 -66c-13.333 -10 -28.833 -18.667 -46.5 -26s-30.667 -11 -39 -11s-12.5 3 -12.5 9c0 3.33301 4.66699 7.66602 14 12.999c38.667 18.667 58.334 44 59.001 76z" />
    <glyph glyph-name="Icircumflex" unicode="&#xce;" horiz-adv-x="429" 
d="M371 502l3.99902 -185.993c0 -224 -76.667 -336 -230 -336c-30 0 -57.167 7 -81.5 21s-36.5 35.667 -36.5 65c0 18 4.66699 32.833 14 44.5s21.833 17.5 37.5 17.5s23.5 -3.66699 23.5 -11c0 -3.33301 -2 -9.83301 -6 -19.5s-6 -19.334 -6 -29.001s5.66699 -20 17 -31
s28.333 -16.5 51 -16.5s42.334 4.66699 59.001 14s30 23.166 40 41.499s18.167 37.166 24.5 56.499s10.833 43.666 13.5 72.999c4 43.333 6 92.5 6 147.5s0.666992 100.5 2 136.5c-85.333 -14.667 -128 -51.334 -128 -110.001c0 -16.667 -3.5 -29.667 -10.5 -39
s-15.833 -14 -26.5 -14c-20 0 -30 11.333 -30 34c0 40.667 17.833 74.667 53.5 102s84.167 47.666 145.5 60.999c4.66699 27.333 16 49.5 34 66.5s34.333 25.5 49 25.5s26.5 -4.16699 35.5 -12.5s13.5 -19.5 13.5 -33.5c0 -32.667 -22.667 -55.334 -68 -68.001z
M397.999 582.007c-14.667 0 -23.333 -15 -26 -45c24 7.33301 36 17 36 29c0 10.667 -3.33301 16 -10 16zM431.5 662.007c3 -2 4.50195 -4.33398 4.50195 -7.00098s-4 -6.66699 -12 -12s-16.333 -8 -25 -8s-22.667 6.33301 -42 19s-34.333 28.667 -45 48
c-8 -17.333 -22.833 -31.666 -44.5 -42.999s-36 -17 -43 -17s-12.667 1.83301 -17 5.5s-6.5 7 -6.5 10s8.66699 8.16699 26 15.5c36 16.667 56.667 39.667 62 69c0.666992 5.33301 6.5 11.333 17.5 18s19.5 10 25.5 10s11.167 -7.66699 15.5 -23s10.666 -28.333 18.999 -39
s18.166 -19.5 29.499 -26.5s19.333 -11.5 24 -13.5s8.5 -4 11.5 -6z" />
    <glyph glyph-name="Idieresis" unicode="&#xcf;" horiz-adv-x="429" 
d="M371 502l3.99902 -185.993c0 -224 -76.667 -336 -230 -336c-30 0 -57.167 7 -81.5 21s-36.5 35.667 -36.5 65c0 18 4.66699 32.833 14 44.5s21.833 17.5 37.5 17.5s23.5 -3.66699 23.5 -11c0 -3.33301 -2 -9.83301 -6 -19.5s-6 -19.334 -6 -29.001s5.66699 -20 17 -31
s28.333 -16.5 51 -16.5s42.334 4.66699 59.001 14s30 23.166 40 41.499s18.167 37.166 24.5 56.499s10.833 43.666 13.5 72.999c4 43.333 6 92.5 6 147.5s0.666992 100.5 2 136.5c-85.333 -14.667 -128 -51.334 -128 -110.001c0 -16.667 -3.5 -29.667 -10.5 -39
s-15.833 -14 -26.5 -14c-20 0 -30 11.333 -30 34c0 40.667 17.833 74.667 53.5 102s84.167 47.666 145.5 60.999c4.66699 27.333 16 49.5 34 66.5s34.333 25.5 49 25.5s26.5 -4.16699 35.5 -12.5s13.5 -19.5 13.5 -33.5c0 -32.667 -22.667 -55.334 -68 -68.001z
M397.999 582.007c-14.667 0 -23.333 -15 -26 -45c24 7.33301 36 17 36 29c0 10.667 -3.33301 16 -10 16zM180.5 662.007c-9 6 -13.5 15.667 -13.5 29s6.16699 24 18.5 32s23.833 12 34.5 12s19.667 -3 27 -9s11 -13.333 11 -22c0 -34 -17 -51 -51 -51
c-8.66699 0 -17.5 3 -26.5 9zM324.5 662.007c-9 6 -13.501 15.667 -13.501 29s6.33301 24 19 32s24.334 12 35.001 12s19.5 -3 26.5 -9s10.5 -13.333 10.5 -22c0 -34 -16.667 -51 -50 -51c-9.33301 0 -18.5 3 -27.5 9z" />
    <glyph glyph-name="Eth" unicode="&#xd0;" horiz-adv-x="633" 
d="M57 359l5.99902 -63.999c0 -6.66699 -3.5 -12 -10.5 -16s-12.833 -6 -17.5 -6c-9.33301 0 -17.5 7.5 -24.5 22.5s-10.5 28.833 -10.5 41.5c0 49.333 17.167 91.166 51.5 125.499s77.833 60.166 130.5 77.499c0 4.66699 0.333008 8 1 10c4 29.333 10.5 50.833 19.5 64.5
s22.167 20.5 39.5 20.5c8.66699 0 13 -12.333 13 -37v-42c21.333 2.66699 37 4 47 4c88.667 0 158.834 -24.833 210.501 -74.5s77.5 -112.167 77.5 -187.5c0 -52 -9.33301 -98 -28 -138s-44 -71.667 -76 -95c-64 -46.667 -140.667 -70 -230 -70h-21
c-2 -19.333 -5 -29 -9 -29c-30.667 0 -51.334 4.33301 -62.001 13c-4.66699 4.66699 -7.33398 12.667 -8.00098 24c-22.667 4.66699 -44 12.667 -64 24c-16.667 8.66699 -25 17.667 -25 27s2.33301 15.833 7 19.5s9.83398 5.5 15.501 5.5s27.834 -8 66.501 -24
c1.33301 46 3.33301 94.667 6 146c-18.667 0 -41.167 2.33301 -67.5 7s-39.5 10.834 -39.5 18.501s8.33301 11.5 25 11.5l84 -3c6 116 11 206 15 270c-36.667 -12.667 -66.167 -31.667 -88.5 -57s-33.5 -55 -33.5 -89zM274.999 521.001
c-9.33301 0 -16.334 -0.333008 -21.001 -1c-2 -76 -5 -162.667 -9 -260c5.33301 2.66699 11 6 17 10c10.667 7.33301 20.834 11 30.501 11s19.5 -1.83301 29.5 -5.5s15 -8.5 15 -14.5c0 -18 -31.333 -34.667 -94 -50c-0.666992 -22 -1.5 -46.333 -2.5 -73
s-1.66699 -48.334 -2 -65.001s-0.833008 -30.667 -1.5 -42c12.667 -2 26.667 -3 42 -3c63.333 0 118.333 23.5 165 70.5s70 104.833 70 173.5s-22.333 127.334 -67 176.001s-102 73 -172 73z" />
    <glyph glyph-name="Ntilde" unicode="&#xd1;" horiz-adv-x="497" 
d="M179.5 171c-19 -64 -39.833 -110.998 -62.5 -140.998s-50 -45 -82 -45c-23.333 0 -35 9 -35 27c0 14.667 5 25 15 31s21.833 10.5 35.5 13.5s22.5 6.5 26.5 10.5c24.667 26 47.5 72.5 68.5 139.5s36.167 135.167 45.5 204.5c-28.667 30 -43 54.333 -43 73
s5.33301 40.167 16 64.5s23.334 36.5 38.001 36.5c8.66699 0 16.334 -10.667 23.001 -32s10 -48 10 -80c34.667 -44 61.667 -82 81 -114c20.667 68 49 125.167 85 171.5s77.333 69.5 124 69.5c16.667 0 30 -6 40 -18s15 -25.333 15 -40s-2.83301 -27.834 -8.5 -39.501
s-13.167 -17.5 -22.5 -17.5s-14 4.66699 -14 14s-2.83301 16.5 -8.5 21.5s-12.834 7.5 -21.501 7.5c-27.333 0 -53 -14.333 -77 -43c-34 -40.667 -62.333 -98.667 -85 -174c44 -94.667 66 -171.334 66 -230.001c0 -24 -5.33301 -45.167 -16 -63.5
s-26.334 -27.5 -47.001 -27.5c-44 0 -66 37.333 -66 112c0 52.667 4 102.667 12 150c-20 42.667 -42.667 81.667 -68 117c-10.667 -68 -25.5 -134 -44.5 -198zM316 186.002c-3.33301 -24 -5 -48.667 -5 -74s1.66699 -45 5 -59s7 -21 11 -21c8 0 12 13.667 12 41
s-7.66699 65 -23 113zM323.5 678.502c33.667 -13.667 53.998 -20.5 60.998 -20.5s14.167 5.5 21.5 16.5s13 16.5 17 16.5c8.66699 0 13 -7.16699 13 -21.5s-7.66699 -29.5 -23 -45.5s-31.666 -24 -48.999 -24s-38 7.16699 -62 21.5s-42.333 21.5 -55 21.5
c-4.66699 0 -9.16699 -4.66699 -13.5 -14s-9.16602 -14 -14.499 -14c-11.333 0 -17 6.66699 -17 20s4.83301 27.333 14.5 42s21.5 22 35.5 22s37.833 -6.83301 71.5 -20.5z" />
    <glyph glyph-name="Ograve" unicode="&#xd2;" horiz-adv-x="586" 
d="M21 223c0 44.667 8.49707 88.832 25.4971 132.499s41.5 79.834 73.5 108.501c8 43.333 28.833 78.5 62.5 105.5s81.834 40.5 144.501 40.5s112.834 -24.5 150.501 -73.5s56.5 -112.833 56.5 -191.5c0 -51.333 -7.66699 -100 -23 -146
c30.667 10.667 58.5 24.167 83.5 40.5s37.833 24.5 38.5 24.5c7.33301 0 11 -4.33301 11 -13c0 -7.33301 -16 -21.5 -48 -42.5s-65 -35.833 -99 -44.5c-24.667 -54 -59.667 -96.5 -105 -127.5s-100.166 -46.5 -164.499 -46.5s-114.833 21.5 -151.5 64.5
s-55 99.167 -55 168.5zM442.997 186.998c8.66699 30 13.002 63.332 13.002 99.999c0 78.667 -14.833 145.334 -44.5 200.001s-71.834 82 -126.501 82c-23.333 0 -46.5 -6.5 -69.5 -19.5s-39.5 -30.5 -49.5 -52.5c34.667 19.333 69.834 29 105.501 29s53.5 -5 53.5 -15
c0 -6 -2.33301 -10.667 -7 -14s-9.33398 -5 -14.001 -5c-57.333 0 -106 -19.333 -146 -58c5.33301 -68 35.166 -126.167 89.499 -174.5s119.5 -72.5 195.5 -72.5zM264.999 40.9971c80 0 135.666 37.668 166.999 113.001c-80 0 -149.5 21 -208.5 63s-93.833 97 -104.5 165
c-18.667 -35.333 -28 -75 -28 -119c0 -60.667 16.833 -112.834 50.5 -156.501s74.834 -65.5 123.501 -65.5zM327.498 728.998c5 -12 8.83398 -19.9971 11.501 -23.9971s5.16699 -7.5 7.5 -10.5s4.5 -5.5 6.5 -7.5s4.66699 -4.16699 8 -6.5l8 -5.5
c2 -1.33301 5.16699 -3.16602 9.5 -5.49902s7.33301 -3.83301 9 -4.5s5.16699 -2.33398 10.5 -5.00098l10 -5c8.66699 -4.66699 13 -10.334 13 -17.001c0 -10 -5.83301 -15 -17.5 -15s-26.834 3.16699 -45.501 9.5s-35 14.166 -49 23.499c-33.333 22.667 -50 46.667 -50 72
c0 7.33301 5.33301 16.166 16 26.499s18.5 15.5 23.5 15.5s9.83301 -3.83301 14.5 -11.5s9.5 -17.5 14.5 -29.5z" />
    <glyph glyph-name="Oacute" unicode="&#xd3;" horiz-adv-x="588" 
d="M21 223c0 44.667 8.49707 88.832 25.4971 132.499s41.5 79.834 73.5 108.501c8 43.333 28.833 78.5 62.5 105.5s81.834 40.5 144.501 40.5s112.834 -24.5 150.501 -73.5s56.5 -112.833 56.5 -191.5c0 -51.333 -7.66699 -100 -23 -146
c30.667 10.667 58.5 24.167 83.5 40.5s37.833 24.5 38.5 24.5c7.33301 0 11 -4.33301 11 -13c0 -7.33301 -16 -21.5 -48 -42.5s-65 -35.833 -99 -44.5c-24.667 -54 -59.667 -96.5 -105 -127.5s-100.166 -46.5 -164.499 -46.5s-114.833 21.5 -151.5 64.5
s-55 99.167 -55 168.5zM442.997 186.998c8.66699 30 13.002 63.332 13.002 99.999c0 78.667 -14.833 145.334 -44.5 200.001s-71.834 82 -126.501 82c-23.333 0 -46.5 -6.5 -69.5 -19.5s-39.5 -30.5 -49.5 -52.5c34.667 19.333 69.834 29 105.501 29s53.5 -5 53.5 -15
c0 -6 -2.33301 -10.667 -7 -14s-9.33398 -5 -14.001 -5c-57.333 0 -106 -19.333 -146 -58c5.33301 -68 35.166 -126.167 89.499 -174.5s119.5 -72.5 195.5 -72.5zM264.999 40.9971c80 0 135.666 37.668 166.999 113.001c-80 0 -149.5 21 -208.5 63s-93.833 97 -104.5 165
c-18.667 -35.333 -28 -75 -28 -119c0 -60.667 16.833 -112.834 50.5 -156.501s74.834 -65.5 123.501 -65.5zM330.998 737.998c0 5.33301 -1.66797 10.501 -5.00098 15.501s-5 9.16699 -5 12.5s5.83301 8 17.5 14s21.167 9 28.5 9s14.5 -3.83301 21.5 -11.5
s10.5 -19.167 10.5 -34.5c0 -22.667 -14.333 -44.667 -43 -66c-13.333 -10 -28.833 -18.667 -46.5 -26s-30.667 -11 -39 -11s-12.5 3 -12.5 9c0 3.33301 4.66699 7.66602 14 12.999c38.667 18.667 58.334 44 59.001 76z" />
    <glyph glyph-name="Ocircumflex" unicode="&#xd4;" horiz-adv-x="588" 
d="M429 623c-8 -5.33301 -14.002 -8.00488 -18.002 -8.00488c-34.667 0 -63.667 23.667 -87 71c-8 -17.333 -22.333 -31.666 -43 -42.999s-35.834 -17 -45.501 -17s-14.834 3 -15.501 9c0 2.66699 2.83301 5.33398 8.5 8.00098s11.334 5.83398 17.001 9.50098
s12.167 9 19.5 16l17 16c4 3.66699 7.33301 9 10 16s4.33398 11.5 5.00098 13.5c3.33301 8 5 17 5 27c0.666992 5.33301 6.83398 11.5 18.501 18.5s20.167 10.5 25.5 10.5c8 0 13 -6.5 15 -19.5s4.16699 -23.833 6.5 -32.5s7.83301 -19.667 16.5 -33
c10.667 -17.333 24.334 -29.666 41.001 -36.999c10.667 -4.66699 16 -8.66699 16 -12s-4 -7.66602 -12 -12.999zM20.998 222.995c0 44.667 8.49707 88.832 25.4971 132.499s41.5 79.834 73.5 108.501c8 43.333 28.833 78.5 62.5 105.5s81.834 40.5 144.501 40.5
s112.834 -24.5 150.501 -73.5s56.5 -112.833 56.5 -191.5c0 -51.333 -7.66699 -100 -23 -146c30.667 10.667 58.5 24.167 83.5 40.5s37.833 24.5 38.5 24.5c7.33301 0 11 -4.33301 11 -13c0 -7.33301 -16 -21.5 -48 -42.5s-65 -35.833 -99 -44.5
c-24.667 -54 -59.667 -96.5 -105 -127.5s-100.166 -46.5 -164.499 -46.5s-114.833 21.5 -151.5 64.5s-55 99.167 -55 168.5zM442.995 186.993c8.66699 30 13.002 63.332 13.002 99.999c0 78.667 -14.833 145.334 -44.5 200.001s-71.834 82 -126.501 82
c-23.333 0 -46.5 -6.5 -69.5 -19.5s-39.5 -30.5 -49.5 -52.5c34.667 19.333 69.834 29 105.501 29s53.5 -5 53.5 -15c0 -6 -2.33301 -10.667 -7 -14s-9.33398 -5 -14.001 -5c-57.333 0 -106 -19.333 -146 -58c5.33301 -68 35.166 -126.167 89.499 -174.5
s119.5 -72.5 195.5 -72.5zM264.997 40.9922c80 0 135.666 37.668 166.999 113.001c-80 0 -149.5 21 -208.5 63s-93.833 97 -104.5 165c-18.667 -35.333 -28 -75 -28 -119c0 -60.667 16.833 -112.834 50.5 -156.501s74.834 -65.5 123.501 -65.5z" />
    <glyph glyph-name="Otilde" unicode="&#xd5;" horiz-adv-x="588" 
d="M21 223c0 44.667 8.49707 88.832 25.4971 132.499s41.5 79.834 73.5 108.501c8 43.333 28.833 78.5 62.5 105.5s81.834 40.5 144.501 40.5s112.834 -24.5 150.501 -73.5s56.5 -112.833 56.5 -191.5c0 -51.333 -7.66699 -100 -23 -146
c30.667 10.667 58.5 24.167 83.5 40.5s37.833 24.5 38.5 24.5c7.33301 0 11 -4.33301 11 -13c0 -7.33301 -16 -21.5 -48 -42.5s-65 -35.833 -99 -44.5c-24.667 -54 -59.667 -96.5 -105 -127.5s-100.166 -46.5 -164.499 -46.5s-114.833 21.5 -151.5 64.5
s-55 99.167 -55 168.5zM442.997 186.998c8.66699 30 13.002 63.332 13.002 99.999c0 78.667 -14.833 145.334 -44.5 200.001s-71.834 82 -126.501 82c-23.333 0 -46.5 -6.5 -69.5 -19.5s-39.5 -30.5 -49.5 -52.5c34.667 19.333 69.834 29 105.501 29s53.5 -5 53.5 -15
c0 -6 -2.33301 -10.667 -7 -14s-9.33398 -5 -14.001 -5c-57.333 0 -106 -19.333 -146 -58c5.33301 -68 35.166 -126.167 89.499 -174.5s119.5 -72.5 195.5 -72.5zM264.999 40.9971c80 0 135.666 37.668 166.999 113.001c-80 0 -149.5 21 -208.5 63s-93.833 97 -104.5 165
c-18.667 -35.333 -28 -75 -28 -119c0 -60.667 16.833 -112.834 50.5 -156.501s74.834 -65.5 123.501 -65.5zM324.498 750.498c33.667 -13.667 53.998 -20.5 60.998 -20.5s14.167 5.5 21.5 16.5s13 16.5 17 16.5c8.66699 0 13 -7.16699 13 -21.5s-7.66699 -29.5 -23 -45.5
s-31.666 -24 -48.999 -24s-38 7.16699 -62 21.5s-42.333 21.5 -55 21.5c-4.66699 0 -9.16699 -4.66699 -13.5 -14s-9.16602 -14 -14.499 -14c-11.333 0 -17 6.66699 -17 20s4.83301 27.333 14.5 42s21.5 22 35.5 22s37.833 -6.83301 71.5 -20.5z" />
    <glyph glyph-name="Odieresis" unicode="&#xd6;" horiz-adv-x="590" 
d="M21 223c0 44.667 8.49707 88.832 25.4971 132.499s41.5 79.834 73.5 108.501c8 43.333 28.833 78.5 62.5 105.5s81.834 40.5 144.501 40.5s112.834 -24.5 150.501 -73.5s56.5 -112.833 56.5 -191.5c0 -51.333 -7.66699 -100 -23 -146
c30.667 10.667 58.5 24.167 83.5 40.5s37.833 24.5 38.5 24.5c7.33301 0 11 -4.33301 11 -13c0 -7.33301 -16 -21.5 -48 -42.5s-65 -35.833 -99 -44.5c-24.667 -54 -59.667 -96.5 -105 -127.5s-100.166 -46.5 -164.499 -46.5s-114.833 21.5 -151.5 64.5
s-55 99.167 -55 168.5zM442.997 186.998c8.66699 30 13.002 63.332 13.002 99.999c0 78.667 -14.833 145.334 -44.5 200.001s-71.834 82 -126.501 82c-23.333 0 -46.5 -6.5 -69.5 -19.5s-39.5 -30.5 -49.5 -52.5c34.667 19.333 69.834 29 105.501 29s53.5 -5 53.5 -15
c0 -6 -2.33301 -10.667 -7 -14s-9.33398 -5 -14.001 -5c-57.333 0 -106 -19.333 -146 -58c5.33301 -68 35.166 -126.167 89.499 -174.5s119.5 -72.5 195.5 -72.5zM264.999 40.9971c80 0 135.666 37.668 166.999 113.001c-80 0 -149.5 21 -208.5 63s-93.833 97 -104.5 165
c-18.667 -35.333 -28 -75 -28 -119c0 -60.667 16.833 -112.834 50.5 -156.501s74.834 -65.5 123.501 -65.5zM215.498 661.998c-9 6 -13.5 15.667 -13.5 29s6.16699 24 18.5 32s23.833 12 34.5 12s19.667 -3 27 -9s11 -13.333 11 -22c0 -34 -17 -51 -51 -51
c-8.66699 0 -17.5 3 -26.5 9zM359.498 661.998c-9 6 -13.501 15.667 -13.501 29s6.33301 24 19 32s24.334 12 35.001 12s19.5 -3 26.5 -9s10.5 -13.333 10.5 -22c0 -34 -16.667 -51 -50 -51c-9.33301 0 -18.5 3 -27.5 9z" />
    <glyph glyph-name="multiply" unicode="&#xd7;" horiz-adv-x="445" 
d="M217 287l92.998 90.999c14.667 14.667 26.5 22 35.5 22s13.5 -3.33301 13.5 -10c0 -5.33301 -17.333 -26 -52 -62s-58 -60.667 -70 -74c30.667 -53.333 60.334 -90.666 89.001 -111.999c16.667 -12.667 25 -21 25 -25c0 -8.66699 -4.16699 -16 -12.5 -22
s-17.833 -9 -28.5 -9c-34 0 -72.667 40.333 -116 121l-36.5 -44.5l-28 -35l-19.5 -22.5c-10.667 -12.667 -19.667 -19 -27 -19c-15.333 0 -23 7.66699 -23 23c0 14 8.16699 30 24.5 48s28.5 31 36.5 39c28.667 28.667 46 45 52 49c-16 32.667 -28.167 58.5 -36.5 77.5
s-13.166 29.333 -14.499 31s-3.83301 4.16699 -7.5 7.5s-6.5 6 -8.5 8c-5.33301 5.33301 -8 11.333 -8 18c0 10.667 6.66699 16 20 16c6.66699 0 12.667 -1.33301 18 -4c15.333 -6.66699 42.333 -44 81 -112z" />
    <glyph glyph-name="Oslash" unicode="&#xd8;" horiz-adv-x="601" 
d="M345 592c8.66699 40.667 20.3311 61.002 34.998 61.002c12 0 18 -6.33301 18 -19c0 -6 -3.66699 -21.333 -11 -46c51.333 -9.33301 91.5 -34.5 120.5 -75.5s43.5 -93.167 43.5 -156.5s-11.167 -121.5 -33.5 -174.5s-55.5 -97 -99.5 -132s-95.333 -54.5 -154 -58.5
c-6 -51.333 -25 -77 -57 -77c-9.33301 0 -17.333 2.5 -24 7.5s-10 13.167 -10 24.5s8.33301 27.666 25 48.999c-49.333 10 -88.666 35.833 -117.999 77.5s-44 88 -44 139s6 98.167 18 141.5s30 83.166 54 119.499s56.333 65.333 97 87s87.334 32.5 140.001 32.5z
M314.997 546.002c-71.333 0 -123.833 -26.335 -157.5 -79.002s-50.5 -122.334 -50.5 -209.001c0 -45.333 11.667 -87.166 35 -125.499s51.666 -65.166 84.999 -80.499c18.667 58 39.834 148.833 63.501 272.5s38.167 196.834 43.5 219.501c-8 1.33301 -14.333 2 -19 2z
M372.997 530c-14.667 -61.333 -33.001 -149.5 -55.001 -264.5s-36.667 -189.833 -44 -224.5c64.667 0 113.834 23.333 147.501 70s50.5 108.667 50.5 186c0 54 -9 102 -27 144s-42 71.667 -72 89z" />
    <glyph glyph-name="Ugrave" unicode="&#xd9;" horiz-adv-x="519" 
d="M416 46c11.333 0 27.002 13.8301 47.002 41.4971s39.833 63.334 59.5 107.001s31.667 65.5 36 65.5s6.5 -2.66699 6.5 -8c0 -18.667 -9.66699 -48.334 -29 -89.001c-52.667 -112 -97 -168 -133 -168c-30.667 0 -52.334 5 -65.001 15c-5.33301 5.33301 -8 18.333 -8 39
s1.66699 52.667 5 96c-25.333 -43.333 -52.166 -79.166 -80.499 -107.499s-56.333 -42.5 -84 -42.5s-50.167 14.833 -67.5 44.5s-26 69.667 -26 120s5 113.333 15 189s15 131.834 15 168.501c0 9.33301 -2.33301 14 -7 14c-10.667 0 -22.834 -7.83301 -36.501 -23.5
s-22.834 -39.834 -27.501 -72.501c-0.666992 -7.33301 -3.5 -13.833 -8.5 -19.5s-10.167 -8.5 -15.5 -8.5c-8 0 -12 6.66699 -12 20s6.66699 32.166 20 56.499s30.833 46.5 52.5 66.5s42.834 30 63.501 30c24 0 35.833 -19.167 35.5 -57.5s-4.5 -94.166 -12.5 -167.499
s-12 -128.333 -12 -165c0 -93.333 17.333 -140 52 -140c20 0 43.333 16 70 48s50.334 69.333 71.001 112c13.333 170.667 23 276.334 29 317.001c1.33301 6 11.666 16.333 30.999 31s34.166 22 44.499 22s15.5 -19.333 15.5 -58c0 -29.333 -2.33301 -54.666 -7 -75.999
s-10.5 -46.333 -17.5 -75l-15.5 -64c-6.66699 -89.333 -10 -167.333 -10 -234c0 -18 2 -27 6 -27zM267.502 728.997c5 -12 8.83398 -19.9971 11.501 -23.9971s5.16699 -7.5 7.5 -10.5s4.5 -5.5 6.5 -7.5s4.66699 -4.16699 8 -6.5l8 -5.5
c2 -1.33301 5.16699 -3.16602 9.5 -5.49902s7.33301 -3.83301 9 -4.5s5.16699 -2.33398 10.5 -5.00098l10 -5c8.66699 -4.66699 13 -10.334 13 -17.001c0 -10 -5.83301 -15 -17.5 -15s-26.834 3.16699 -45.501 9.5s-35 14.166 -49 23.499c-33.333 22.667 -50 46.667 -50 72
c0 7.33301 5.33301 16.166 16 26.499s18.5 15.5 23.5 15.5s9.83301 -3.83301 14.5 -11.5s9.5 -17.5 14.5 -29.5z" />
    <glyph glyph-name="Uacute" unicode="&#xda;" horiz-adv-x="519" 
d="M416 46c11.333 0 27.002 13.8301 47.002 41.4971s39.833 63.334 59.5 107.001s31.667 65.5 36 65.5s6.5 -2.66699 6.5 -8c0 -18.667 -9.66699 -48.334 -29 -89.001c-52.667 -112 -97 -168 -133 -168c-30.667 0 -52.334 5 -65.001 15c-5.33301 5.33301 -8 18.333 -8 39
s1.66699 52.667 5 96c-25.333 -43.333 -52.166 -79.166 -80.499 -107.499s-56.333 -42.5 -84 -42.5s-50.167 14.833 -67.5 44.5s-26 69.667 -26 120s5 113.333 15 189s15 131.834 15 168.501c0 9.33301 -2.33301 14 -7 14c-10.667 0 -22.834 -7.83301 -36.501 -23.5
s-22.834 -39.834 -27.501 -72.501c-0.666992 -7.33301 -3.5 -13.833 -8.5 -19.5s-10.167 -8.5 -15.5 -8.5c-8 0 -12 6.66699 -12 20s6.66699 32.166 20 56.499s30.833 46.5 52.5 66.5s42.834 30 63.501 30c24 0 35.833 -19.167 35.5 -57.5s-4.5 -94.166 -12.5 -167.499
s-12 -128.333 -12 -165c0 -93.333 17.333 -140 52 -140c20 0 43.333 16 70 48s50.334 69.333 71.001 112c13.333 170.667 23 276.334 29 317.001c1.33301 6 11.666 16.333 30.999 31s34.166 22 44.499 22s15.5 -19.333 15.5 -58c0 -29.333 -2.33301 -54.666 -7 -75.999
s-10.5 -46.333 -17.5 -75l-15.5 -64c-6.66699 -89.333 -10 -167.333 -10 -234c0 -18 2 -27 6 -27zM301.002 718.997c0 5.33301 -1.66797 10.501 -5.00098 15.501s-5 9.16699 -5 12.5s5.83301 8 17.5 14s21.167 9 28.5 9s14.5 -4 21.5 -12s10.5 -19.333 10.5 -34
c0 -22.667 -14.333 -44.667 -43 -66c-13.333 -10 -28.833 -18.667 -46.5 -26s-30.667 -11 -39 -11s-12.5 3 -12.5 9c0 3.33301 4.66699 7.66602 14 12.999c38.667 18.667 58.334 44 59.001 76z" />
    <glyph glyph-name="Ucircumflex" unicode="&#xdb;" horiz-adv-x="519" 
d="M416 46c11.333 0 27.002 13.8301 47.002 41.4971s39.833 63.334 59.5 107.001s31.667 65.5 36 65.5s6.5 -2.66699 6.5 -8c0 -18.667 -9.66699 -48.334 -29 -89.001c-52.667 -112 -97 -168 -133 -168c-30.667 0 -52.334 5 -65.001 15c-5.33301 5.33301 -8 18.333 -8 39
s1.66699 52.667 5 96c-25.333 -43.333 -52.166 -79.166 -80.499 -107.499s-56.333 -42.5 -84 -42.5s-50.167 14.833 -67.5 44.5s-26 69.667 -26 120s5 113.333 15 189s15 131.834 15 168.501c0 9.33301 -2.33301 14 -7 14c-10.667 0 -22.834 -7.83301 -36.501 -23.5
s-22.834 -39.834 -27.501 -72.501c-0.666992 -7.33301 -3.5 -13.833 -8.5 -19.5s-10.167 -8.5 -15.5 -8.5c-8 0 -12 6.66699 -12 20s6.66699 32.166 20 56.499s30.833 46.5 52.5 66.5s42.834 30 63.501 30c24 0 35.833 -19.167 35.5 -57.5s-4.5 -94.166 -12.5 -167.499
s-12 -128.333 -12 -165c0 -93.333 17.333 -140 52 -140c20 0 43.333 16 70 48s50.334 69.333 71.001 112c13.333 170.667 23 276.334 29 317.001c1.33301 6 11.666 16.333 30.999 31s34.166 22 44.499 22s15.5 -19.333 15.5 -58c0 -29.333 -2.33301 -54.666 -7 -75.999
s-10.5 -46.333 -17.5 -75l-15.5 -64c-6.66699 -89.333 -10 -167.333 -10 -234c0 -18 2 -27 6 -27zM386.002 622.997c-8 -5.33301 -14.001 -8.00488 -18.001 -8.00488c-34.667 0 -63.667 23.667 -87 71c-8 -17.333 -22.333 -31.666 -43 -42.999s-35.834 -17 -45.501 -17
s-14.834 3 -15.501 9c0 2.66699 2.83301 5.33398 8.5 8.00098s11.334 5.83398 17.001 9.50098s12.167 9 19.5 16l17 16c4 3.66699 7.33301 9 10 16s4.33398 11.5 5.00098 13.5c3.33301 8 5 17 5 27c0.666992 5.33301 6.83398 11.5 18.501 18.5s20.167 10.5 25.5 10.5
c8 0 13 -6.5 15 -19.5s4.16699 -23.833 6.5 -32.5s7.5 -19.667 15.5 -33c11.333 -17.333 25.333 -29.666 42 -36.999c10.667 -4.66699 16 -8.66699 16 -12s-4 -7.66602 -12 -12.999z" />
    <glyph glyph-name="Udieresis" unicode="&#xdc;" horiz-adv-x="519" 
d="M416 46c10.667 0 26.002 13.8301 46.002 41.4971s39.833 63.334 59.5 107.001s31.667 65.5 36 65.5s6.5 -2.66699 6.5 -8c0 -18.667 -9.66699 -48.334 -29 -89.001c-52.667 -112 -96.667 -168 -132 -168c-30.667 0 -52.334 5 -65.001 15
c-5.33301 5.33301 -8 18.333 -8 39s1.66699 52.667 5 96c-25.333 -43.333 -52.166 -79.166 -80.499 -107.499s-56.333 -42.5 -84 -42.5s-50.167 14.833 -67.5 44.5s-26 69.667 -26 120s5 113.333 15 189s15 131.834 15 168.501c0 9.33301 -2.33301 14 -7 14
c-10.667 0 -22.834 -7.83301 -36.501 -23.5s-22.834 -39.834 -27.501 -72.501c-0.666992 -7.33301 -3.5 -13.833 -8.5 -19.5s-10.167 -8.5 -15.5 -8.5c-8 0 -12 6.66699 -12 20s6.66699 32.166 20 56.499s30.833 46.5 52.5 66.5s42.834 30 63.501 30
c24 0 35.833 -19.167 35.5 -57.5s-4.5 -94.166 -12.5 -167.499s-12 -128.333 -12 -165c0 -93.333 17.333 -140 52 -140c20 0 43.333 16 70 48s50.334 69.333 71.001 112c13.333 170.667 23 276.334 29 317.001c1.33301 6 11.666 16.333 30.999 31s34.166 22 44.499 22
s15.5 -19.333 15.5 -58c0 -29.333 -2.33301 -54.666 -7 -75.999s-10.5 -46.333 -17.5 -75l-15.5 -64c-6.66699 -89.333 -10 -167.333 -10 -234c0 -18 2 -27 6 -27zM175.502 631.997c-9 6 -13.5 15.667 -13.5 29s6.16699 24 18.5 32s23.833 12 34.5 12s19.667 -3 27 -9
s11 -13.333 11 -22c0 -34 -17 -51 -51 -51c-8.66699 0 -17.5 3 -26.5 9zM319.502 631.997c-9 6 -13.501 15.667 -13.501 29s6.33301 24 19 32s24.334 12 35.001 12s19.5 -3 26.5 -9s10.5 -13.333 10.5 -22c0 -34 -16.667 -51 -50 -51c-9.33301 0 -18.5 3 -27.5 9z" />
    <glyph glyph-name="Yacute" unicode="&#xdd;" horiz-adv-x="519" 
d="M113 517c0 9.33301 -2.32812 14.0029 -6.99512 14.0029c-10.667 0 -22.834 -7.83301 -36.501 -23.5s-22.834 -39.834 -27.501 -72.501c-0.666992 -7.33301 -3.5 -13.833 -8.5 -19.5s-10.167 -8.5 -15.5 -8.5c-8 0 -12 6.66699 -12 20s6.66699 32.166 20 56.499
s30.833 46.5 52.5 66.5s42.834 30 63.501 30c24 0 35.833 -19.167 35.5 -57.5s-4.5 -94.166 -12.5 -167.499s-12 -128.333 -12 -165c0 -93.333 17.333 -140 52 -140c25.333 0 54.833 23.667 88.5 71s59.167 95.666 76.5 144.999c13.333 145.333 23.666 239 30.999 281
c1.33301 6 11.666 16.333 30.999 31s34.166 22 44.499 22s15.5 -15.667 15.5 -47c0 -36.667 -3.33301 -68.334 -10 -95.001l-34 -131c-8 -53.333 -13.667 -129 -17 -227c29.333 15.333 54.666 23 75.999 23c8 0 12 -2.83301 12 -8.5s-4 -10.167 -12 -13.5
c-27.333 -8.66699 -53.333 -21 -78 -37c0 -148.667 -10.167 -249.834 -30.5 -303.501s-63.833 -80.5 -130.5 -80.5c-73.333 0 -110 31 -110 93c0 46 17.833 93.167 53.5 141.5s83.5 93.833 143.5 136.5c2 42 4.66699 87 8 135c-26.667 -52.667 -56.5 -97.667 -89.5 -135
s-64.333 -56 -94 -56s-53.167 14.833 -70.5 44.5s-26 69.667 -26 120s5 113.333 15 189s15 131.834 15 168.501zM260.505 -91.4971c-23 -39 -34.5 -73.333 -34.5 -103s5.66699 -52 17 -67s24.333 -22.5 39 -22.5c20.667 0 36.5 22.167 47.5 66.5s18.5 119.833 22.5 226.5
c-38 -28 -68.5 -61.5 -91.5 -100.5zM312.005 719.003c0 5.33301 -1.66797 10.501 -5.00098 15.501s-5 9.16699 -5 12.5s5.83301 8 17.5 14s21.167 9 28.5 9s14.5 -4 21.5 -12s10.5 -19.333 10.5 -34c0 -22.667 -14.333 -44.667 -43 -66
c-13.333 -10 -28.833 -18.667 -46.5 -26s-30.667 -11 -39 -11s-12.5 3 -12.5 9c0 3.33301 4.66699 7.66602 14 12.999c38.667 18.667 58.334 44 59.001 76z" />
    <glyph glyph-name="Thorn" unicode="&#xde;" horiz-adv-x="537" 
d="M261 635c9.33301 0 14 -11.6709 14 -35.0039s-3.33301 -65.666 -10 -126.999c6 0.666992 18.833 1 38.5 1s42 -2.66699 67 -8s49.333 -13.666 73 -24.999s42.5 -28.333 56.5 -51s21 -49.334 21 -80.001c0 -49.333 -23.333 -90.166 -70 -122.499
s-101.334 -48.5 -164.001 -48.5h-30c-2 -110.667 -25 -166 -69 -166c-30.667 0 -46 13 -46 39c0 8 3 17.333 9 28c14.667 26 23.334 62.333 26.001 109c-26.667 6.66699 -40 16.334 -40 29.001c0 6.66699 2 12.334 6 17.001s9.5 7 16.5 7s13.833 -1 20.5 -3l10 233
c-35.333 -7.33301 -64.666 -19.666 -87.999 -36.999s-35 -37.333 -35 -60c0 -13.333 -3.5 -23.833 -10.5 -31.5s-15.833 -11.5 -26.5 -11.5c-20 0 -30 9.33301 -30 28c0 34.667 18.167 64.667 54.5 90s82.166 43.666 137.499 54.999c1.33301 47.333 8 87.5 20 120.5
s28.333 49.5 49 49.5zM446 286.996c0 50.667 -17.833 88.668 -53.5 114.001s-79.167 38.333 -130.5 39c-3.33301 -38.667 -5 -127.334 -5 -266.001c4.66699 -1.33301 11.667 -2 21 -2c56 0 98 11 126 33s42 49.333 42 82z" />
    <glyph glyph-name="germandbls" unicode="&#xdf;" horiz-adv-x="404" 
d="M129.5 565.5c29.667 23 62.167 34.501 97.5 34.501c70.667 0 106 -33 106 -99c0 -22.667 -6.33301 -48.334 -19 -77.001s-29.334 -53.667 -50.001 -75c63.333 -26.667 95 -80 95 -160c0 -54 -17.333 -99.833 -52 -137.5s-81 -56.5 -139 -56.5
c-15.333 0 -31.333 3.5 -48 10.5s-25 15.5 -25 25.5c0 16 6.33301 24 19 24c6.66699 0 17 -4.83301 31 -14.5s26.667 -14.5 38 -14.5c28.667 0 51.834 16.333 69.501 49s26.5 68 26.5 106c0 66 -19.667 110 -59 132c-21.333 -12.667 -43.333 -19 -66 -19s-34 9.33301 -34 28
c0 12 5 22.167 15 30.5s23.333 12.5 40 12.5s34 -1.66699 52 -5c14 16 24.333 35.333 31 58s10 45 10 67s-4.83301 40 -14.5 54s-22.834 21 -39.501 21c-48 0 -83.667 -49.5 -107 -148.5s-35.666 -228.833 -36.999 -389.5c-2 -115.333 -24 -173 -66 -173
c-30.667 0 -46.334 13 -47.001 39c0 8 2.66699 16.833 8 26.5s9.83301 18.667 13.5 27s6.66699 18 9 29l5.5 25.5c1.33301 6 2.5 16.167 3.5 30.5s1.5 23.5 1.5 27.5c2 22 3.66699 57.167 5 105.5s6.5 100.333 15.5 156s22.333 105.5 40 149.5s41.334 77.5 71.001 100.5z
" />
    <glyph glyph-name="agrave" unicode="&#xe0;" horiz-adv-x="383" 
d="M281 -5c-26 0 -45.666 5.33301 -58.999 16c-4.66699 4.66699 -7 16.5 -7 35.5s0.666992 44.5 2 76.5c-17.333 -43.333 -34.5 -75.5 -51.5 -96.5s-38.833 -31.5 -65.5 -31.5s-50 12.5 -70 37.5s-30 64.333 -30 118s15.167 101.167 45.5 142.5s70.166 62 119.499 62
c21.333 0 45.333 -14 72 -42c5.33301 7.33301 14.833 16.166 28.5 26.499s25.334 15.5 35.001 15.5s14.5 -12.667 14.5 -38c0 -6.66699 -1.83301 -19.667 -5.5 -39s-7.83398 -33.333 -12.501 -42c-6 -15.333 -9 -69.666 -9 -162.999c0 -18 2 -27 6 -27
c11.333 0.666992 27 14.834 47 42.501s39.833 63.167 59.5 106.5s31.667 65 36 65s6.5 -2.66699 6.5 -8c0 -18.667 -9.66699 -48.334 -29 -89.001c-52.667 -112 -97 -168 -133 -168zM159.001 315c-18.667 0 -38.5 -13.834 -59.5 -41.501s-31.5 -60.167 -31.5 -97.5
s5.5 -68 16.5 -92s25.5 -36 43.5 -36c22 0 54.333 55 97 165c0.666992 5.33301 1.5 14.5 2.5 27.5s1.83301 22.833 2.5 29.5c-6 10.667 -16.5 20.834 -31.5 30.501s-28.167 14.5 -39.5 14.5zM178.501 518.999c5 -12 8.83398 -19.9971 11.501 -23.9971
s5.16699 -7.5 7.5 -10.5s4.5 -5.5 6.5 -7.5s4.66699 -4.16699 8 -6.5l8 -5.5c2 -1.33301 5.16699 -3.16602 9.5 -5.49902s7.33301 -3.83301 9 -4.5s5.16699 -2.33398 10.5 -5.00098l10 -5c8.66699 -4.66699 13 -10.334 13 -17.001c0 -10 -5.83301 -15 -17.5 -15
s-26.834 3.16699 -45.501 9.5s-35 14.166 -49 23.499c-33.333 22.667 -50 46.667 -50 72c0 7.33301 5.33301 16.166 16 26.499s18.5 15.5 23.5 15.5s9.83301 -3.83301 14.5 -11.5s9.5 -17.5 14.5 -29.5z" />
    <glyph glyph-name="aacute" unicode="&#xe1;" horiz-adv-x="383" 
d="M281 -5c-26 0 -45.666 5.33301 -58.999 16c-4.66699 4.66699 -7 16.5 -7 35.5s0.666992 44.5 2 76.5c-17.333 -43.333 -34.5 -75.5 -51.5 -96.5s-38.833 -31.5 -65.5 -31.5s-50 12.5 -70 37.5s-30 64.333 -30 118s15.167 101.167 45.5 142.5s70.166 62 119.499 62
c21.333 0 45.333 -14 72 -42c5.33301 7.33301 14.833 16.166 28.5 26.499s25.334 15.5 35.001 15.5s14.5 -12.667 14.5 -38c0 -6.66699 -1.83301 -19.667 -5.5 -39s-7.83398 -33.333 -12.501 -42c-6 -15.333 -9 -69.666 -9 -162.999c0 -18 2 -27 6 -27
c11.333 0.666992 27 14.834 47 42.501s39.833 63.167 59.5 106.5s31.667 65 36 65s6.5 -2.66699 6.5 -8c0 -18.667 -9.66699 -48.334 -29 -89.001c-52.667 -112 -97 -168 -133 -168zM159.001 315c-18.667 0 -38.5 -13.834 -59.5 -41.501s-31.5 -60.167 -31.5 -97.5
s5.5 -68 16.5 -92s25.5 -36 43.5 -36c22 0 54.333 55 97 165c0.666992 5.33301 1.5 14.5 2.5 27.5s1.83301 22.833 2.5 29.5c-6 10.667 -16.5 20.834 -31.5 30.501s-28.167 14.5 -39.5 14.5zM204.001 508.999c0 5.33301 -1.66797 10.501 -5.00098 15.501s-5 9.16699 -5 12.5
s5.83301 8 17.5 14s21.167 9 28.5 9s14.5 -4 21.5 -12s10.5 -19.333 10.5 -34c0 -22.667 -14.333 -44.667 -43 -66c-13.333 -10 -28.833 -18.667 -46.5 -26s-30.667 -11 -39 -11s-12.5 3 -12.5 9c0 3.33301 4.66699 7.66602 14 12.999c38.667 18.667 58.334 44 59.001 76z
" />
    <glyph glyph-name="acircumflex" unicode="&#xe2;" horiz-adv-x="383" 
d="M281 -5c-26 0 -45.666 5.33301 -58.999 16c-4.66699 4.66699 -7 16.5 -7 35.5s0.666992 44.5 2 76.5c-17.333 -43.333 -34.5 -75.5 -51.5 -96.5s-38.833 -31.5 -65.5 -31.5s-50 12.5 -70 37.5s-30 64.333 -30 118s15.167 101.167 45.5 142.5s70.166 62 119.499 62
c21.333 0 45.333 -14 72 -42c5.33301 7.33301 14.833 16.166 28.5 26.499s25.334 15.5 35.001 15.5s14.5 -12.667 14.5 -38c0 -6.66699 -1.83301 -19.667 -5.5 -39s-7.83398 -33.333 -12.501 -42c-6 -15.333 -9 -69.666 -9 -162.999c0 -18 2 -27 6 -27
c11.333 0.666992 27 14.834 47 42.501s39.833 63.167 59.5 106.5s31.667 65 36 65s6.5 -2.66699 6.5 -8c0 -18.667 -9.66699 -48.334 -29 -89.001c-52.667 -112 -97 -168 -133 -168zM159.001 315c-18.667 0 -38.5 -13.834 -59.5 -41.501s-31.5 -60.167 -31.5 -97.5
s5.5 -68 16.5 -92s25.5 -36 43.5 -36c22 0 54.333 55 97 165c0.666992 5.33301 1.5 14.5 2.5 27.5s1.83301 22.833 2.5 29.5c-6 10.667 -16.5 20.834 -31.5 30.501s-28.167 14.5 -39.5 14.5zM287.001 419.999c-8 -5.33301 -14.002 -8.00488 -18.002 -8.00488
c-34.667 0 -63.667 23.667 -87 71c-8 -17.333 -22.333 -31.666 -43 -42.999s-35.834 -17 -45.501 -17s-14.834 3 -15.501 9c0 2.66699 2.83301 5.33398 8.5 8.00098s11.334 5.83398 17.001 9.50098s12.167 9 19.5 16l17 16c4 3.66699 7.33301 9 10 16
s4.33398 11.167 5.00098 12.5c3.33301 8.66699 5 18 5 28c0.666992 5.33301 6.83398 11.5 18.501 18.5s20.167 10.5 25.5 10.5c8 0 13 -6.5 15 -19.5s4.16699 -23.833 6.5 -32.5s7.83301 -19.667 16.5 -33c10.667 -17.333 24.334 -29.666 41.001 -36.999
c10.667 -4.66699 16 -8.66699 16 -12s-4 -7.66602 -12 -12.999z" />
    <glyph glyph-name="atilde" unicode="&#xe3;" horiz-adv-x="383" 
d="M281 -5c-26 0 -45.666 5.33301 -58.999 16c-4.66699 4.66699 -7 16.5 -7 35.5s0.666992 44.5 2 76.5c-17.333 -43.333 -34.5 -75.5 -51.5 -96.5s-38.833 -31.5 -65.5 -31.5s-50 12.5 -70 37.5s-30 64.333 -30 118s15.167 101.167 45.5 142.5s70.166 62 119.499 62
c21.333 0 45.333 -14 72 -42c5.33301 7.33301 14.833 16.166 28.5 26.499s25.334 15.5 35.001 15.5s14.5 -12.667 14.5 -38c0 -6.66699 -1.83301 -19.667 -5.5 -39s-7.83398 -33.333 -12.501 -42c-6 -15.333 -9 -69.666 -9 -162.999c0 -18 2 -27 6 -27
c11.333 0.666992 27 14.834 47 42.501s39.833 63.167 59.5 106.5s31.667 65 36 65s6.5 -2.66699 6.5 -8c0 -18.667 -9.66699 -48.334 -29 -89.001c-52.667 -112 -97 -168 -133 -168zM159.001 315c-18.667 0 -38.5 -13.834 -59.5 -41.501s-31.5 -60.167 -31.5 -97.5
s5.5 -68 16.5 -92s25.5 -36 43.5 -36c22 0 54.333 55 97 165c0.666992 5.33301 1.5 14.5 2.5 27.5s1.83301 22.833 2.5 29.5c-6 10.667 -16.5 20.834 -31.5 30.501s-28.167 14.5 -39.5 14.5zM204.501 519.499c33.667 -13.667 53.998 -20.5 60.998 -20.5
s14.167 5.5 21.5 16.5s13 16.5 17 16.5c8.66699 0 13 -7.16699 13 -21.5s-7.66699 -29.5 -23 -45.5s-31.666 -24 -48.999 -24s-38 7.16699 -62 21.5s-42.333 21.5 -55 21.5c-4.66699 0 -9.16699 -4.66699 -13.5 -14s-9.16602 -14 -14.499 -14c-11.333 0 -17 6.66699 -17 20
s4.83301 27.333 14.5 42s21.5 22 35.5 22s37.833 -6.83301 71.5 -20.5z" />
    <glyph glyph-name="adieresis" unicode="&#xe4;" horiz-adv-x="383" 
d="M281 -5c-26 0 -45.666 5.33301 -58.999 16c-4.66699 4.66699 -7 16.5 -7 35.5s0.666992 44.5 2 76.5c-17.333 -43.333 -34.5 -75.5 -51.5 -96.5s-38.833 -31.5 -65.5 -31.5s-50 12.5 -70 37.5s-30 64.333 -30 118s15.167 101.167 45.5 142.5s70.166 62 119.499 62
c21.333 0 45.333 -14 72 -42c5.33301 7.33301 14.833 16.166 28.5 26.499s25.334 15.5 35.001 15.5s14.5 -12.667 14.5 -38c0 -6.66699 -1.83301 -19.667 -5.5 -39s-7.83398 -33.333 -12.501 -42c-6 -15.333 -9 -69.666 -9 -162.999c0 -18 2 -27 6 -27
c11.333 0.666992 27 14.834 47 42.501s39.833 63.167 59.5 106.5s31.667 65 36 65s6.5 -2.66699 6.5 -8c0 -18.667 -9.66699 -48.334 -29 -89.001c-52.667 -112 -97 -168 -133 -168zM159.001 315c-18.667 0 -38.5 -13.834 -59.5 -41.501s-31.5 -60.167 -31.5 -97.5
s5.5 -68 16.5 -92s25.5 -36 43.5 -36c22 0 54.333 55 97 165c0.666992 5.33301 1.5 14.5 2.5 27.5s1.83301 22.833 2.5 29.5c-6 10.667 -16.5 20.834 -31.5 30.501s-28.167 14.5 -39.5 14.5zM97.501 456.999c-9 6 -13.5 15.667 -13.5 29s6.16699 24 18.5 32
s23.833 12 34.5 12s19.667 -3 27 -9s11 -13.333 11 -22c0 -34 -17 -51 -51 -51c-8.66699 0 -17.5 3 -26.5 9zM241.501 456.999c-9 6 -13.501 15.667 -13.501 29s6.33301 24 19 32s24.334 12 35.001 12s19.5 -3 26.5 -9s10.5 -13.333 10.5 -22c0 -34 -16.667 -51 -50 -51
c-9.33301 0 -18.5 3 -27.5 9z" />
    <glyph glyph-name="aring" unicode="&#xe5;" horiz-adv-x="383" 
d="M281 -5c-26 0 -45.666 5.33301 -58.999 16c-4.66699 4.66699 -7 16.5 -7 35.5s0.666992 44.5 2 76.5c-17.333 -43.333 -34.5 -75.5 -51.5 -96.5s-38.833 -31.5 -65.5 -31.5s-50 12.5 -70 37.5s-30 64.333 -30 118s15.167 101.167 45.5 142.5s70.166 62 119.499 62
c21.333 0 45.333 -14 72 -42c5.33301 7.33301 14.833 16.166 28.5 26.499s25.334 15.5 35.001 15.5s14.5 -12.667 14.5 -38c0 -6.66699 -1.83301 -19.667 -5.5 -39s-7.83398 -33.333 -12.501 -42c-6 -15.333 -9 -69.666 -9 -162.999c0 -18 2 -27 6 -27
c11.333 0.666992 27 14.834 47 42.501s39.833 63.167 59.5 106.5s31.667 65 36 65s6.5 -2.66699 6.5 -8c0 -18.667 -9.66699 -48.334 -29 -89.001c-52.667 -112 -97 -168 -133 -168zM159.001 315c-18.667 0 -38.5 -13.834 -59.5 -41.501s-31.5 -60.167 -31.5 -97.5
s5.5 -68 16.5 -92s25.5 -36 43.5 -36c22 0 54.333 55 97 165c0.666992 5.33301 1.5 14.5 2.5 27.5s1.83301 22.833 2.5 29.5c-6 10.667 -16.5 20.834 -31.5 30.501s-28.167 14.5 -39.5 14.5zM160.001 530.999c12 14 27 20.998 45 20.998s31.5 -5.16699 40.5 -15.5
s13.5 -23.666 13.5 -39.999s-6.16699 -30.666 -18.5 -42.999s-27.333 -18.5 -45 -18.5s-31 5 -40 15s-13.5 22.5 -13.5 37.5s6 29.5 18 43.5zM224.001 513.997c-4 5.33301 -9.5 8 -16.5 8s-13.333 -3 -19 -9s-8.5 -13 -8.5 -21c0 -18.667 7 -28 21 -28
c8 0 14.833 3.16699 20.5 9.5s8.5 13.333 8.5 21s-2 14.167 -6 19.5z" />
    <glyph glyph-name="ae" unicode="&#xe6;" horiz-adv-x="479" 
d="M350 47c35.333 0 67.001 17.999 95.001 53.999c28 36.667 52.333 78.334 73 125.001c4.66699 12 8.5 20.667 11.5 26s6.33301 8 10 8s5.5 -2.66699 5.5 -8c0 -33.333 -20.333 -83.333 -61 -150c-44 -71.333 -98.667 -107 -164 -107c-38 0 -67.333 16 -88 48
c-46 -32 -85.167 -48 -117.5 -48s-58.166 12.333 -77.499 37s-29 64 -29 118s15.167 101.667 45.5 143s70.166 62 119.499 62c12.667 0 26.667 -5 42 -15s28 -21.667 38 -35c27.333 33.333 64 50 110 50c16.667 0 30.167 -4.66699 40.5 -14s15.5 -26.166 15.5 -50.499
s-12.333 -56.333 -37 -96s-55.334 -74.834 -92.001 -105.501c13.333 -28 33.333 -42 60 -42zM208.001 133.999c0 59.333 9.00098 106.668 27.001 142.001c-19.333 26 -42 39 -68 39c-18.667 0 -38.5 -13.833 -59.5 -41.5s-31.5 -60.5 -31.5 -98.5s5 -68.667 15 -92
s26.667 -35 50 -35s48.666 8.33301 75.999 25c-6 19.333 -9 39.666 -9 60.999zM342.002 204.001c15.333 30.667 23 58.167 23 82.5s-6.66699 36.5 -20 36.5c-19.333 0 -35.5 -17.667 -48.5 -53s-19.5 -73.333 -19.5 -114c0 -10.667 1 -21.667 3 -33
c26 23.333 46.667 50.333 62 81z" />
    <glyph glyph-name="ccedilla" unicode="&#xe7;" horiz-adv-x="286" 
d="M179 243l7.99902 50.9961c0 7.33301 -2.33301 14 -7 20s-10.667 9 -18 9c-24.667 0 -46 -18.5 -64 -55.5s-27 -72.5 -27 -106.5s7 -61.5 21 -82.5s31.167 -31.5 51.5 -31.5s38.5 4.66699 54.5 14s30.667 22.666 44 39.999c28 36.667 52 78.334 72 125.001
c5.33301 12 9.5 20.667 12.5 26s6.33301 8 10 8s5.5 -2.66699 5.5 -8c0 -22 -10.667 -54.5 -32 -97.5s-46.166 -79.5 -74.499 -109.5s-63.833 -46.333 -106.5 -49c-2.66699 -2 -4 -4.66699 -4 -8s4 -7.66602 12 -12.999c24 -16 36 -33.667 36 -53
s-7.5 -36.166 -22.5 -50.499s-29.833 -21.5 -44.5 -21.5s-28.167 2.33301 -40.5 7s-18.5 10.667 -18.5 18c0 12 5.33301 18 16 18c2 0 5.33301 -1.5 10 -4.5s10.5 -4.5 17.5 -4.5s13.5 3.33301 19.5 10s9 16.334 9 29.001s-5.33301 24.334 -16 35.001s-16 18 -16 22
s2.33301 9.66699 7 17c-31.333 5.33301 -54.833 20.5 -70.5 45.5s-23.5 51.5 -23.5 79.5c0 76 16.5 133.833 49.5 173.5s74.833 59.5 125.5 59.5c21.333 0 38.166 -5.5 50.499 -16.5s18.5 -23.5 18.5 -37.5c0 -26 -4.66699 -45.333 -14 -58s-20.666 -19 -33.999 -19
c-11.333 0 -17 6.33301 -17 19z" />
    <glyph glyph-name="egrave" unicode="&#xe8;" horiz-adv-x="293" 
d="M122 -5c-37.333 0 -67.001 14.166 -89.001 42.499s-33 60.5 -33 96.5c0 72.667 15.333 127.667 46 165s70.334 56 119.001 56c22.667 0 41.334 -6.16699 56.001 -18.5s22 -29.166 22 -50.499c0 -40 -16.833 -73.5 -50.5 -100.5s-74.834 -41.167 -123.501 -42.5
c2.66699 -26 11.5 -48.5 26.5 -67.5s32.5 -28.5 52.5 -28.5s38 4.66699 54 14s30.667 22.666 44 39.999c28 36.667 52 78.334 72 125.001c5.33301 12 9.5 20.667 12.5 26s6.33301 8 10 8s5.5 -2.66699 5.5 -8c0 -33.333 -20.333 -83.333 -61 -150
c-44 -71.333 -98.333 -107 -163 -107zM68.999 166.999c39.333 6.66699 68.167 19.332 86.5 37.999s27.5 43 27.5 73s-9.66699 45 -29 45c-23.333 0 -43 -16.167 -59 -48.5s-24.667 -68.166 -26 -107.499zM161.5 518.997c5 -12 8.83398 -19.9971 11.501 -23.9971
s5.16699 -7.5 7.5 -10.5s4.5 -5.5 6.5 -7.5s4.66699 -4.16699 8 -6.5l8 -5.5c2 -1.33301 5.16699 -3.16602 9.5 -5.49902s7.33301 -3.83301 9 -4.5s5.16699 -2.33398 10.5 -5.00098l10 -5c8.66699 -4.66699 13 -10.334 13 -17.001c0 -10 -5.83301 -15 -17.5 -15
s-26.834 3.16699 -45.501 9.5s-35 14.166 -49 23.499c-33.333 22.667 -50 46.667 -50 72c0 7.33301 5.33301 16.166 16 26.499s18.5 15.5 23.5 15.5s9.83301 -3.83301 14.5 -11.5s9.5 -17.5 14.5 -29.5z" />
    <glyph glyph-name="eacute" unicode="&#xe9;" horiz-adv-x="293" 
d="M122 -5c-37.333 0 -67.001 14.166 -89.001 42.499s-33 60.5 -33 96.5c0 72.667 15.333 127.667 46 165s70.334 56 119.001 56c22.667 0 41.334 -6.16699 56.001 -18.5s22 -29.166 22 -50.499c0 -40 -16.833 -73.5 -50.5 -100.5s-74.834 -41.167 -123.501 -42.5
c2.66699 -26 11.5 -48.5 26.5 -67.5s32.5 -28.5 52.5 -28.5s38 4.66699 54 14s30.667 22.666 44 39.999c28 36.667 52 78.334 72 125.001c5.33301 12 9.5 20.667 12.5 26s6.33301 8 10 8s5.5 -2.66699 5.5 -8c0 -33.333 -20.333 -83.333 -61 -150
c-44 -71.333 -98.333 -107 -163 -107zM68.999 166.999c39.333 6.66699 68.167 19.332 86.5 37.999s27.5 43 27.5 73s-9.66699 45 -29 45c-23.333 0 -43 -16.167 -59 -48.5s-24.667 -68.166 -26 -107.499zM178 508.997c0 5.33301 -1.66797 10.501 -5.00098 15.501
s-5 9.16699 -5 12.5s5.83301 8 17.5 14s21.167 9 28.5 9s14.5 -4 21.5 -12s10.5 -19.333 10.5 -34c0 -22.667 -14.333 -44.667 -43 -66c-13.333 -10 -28.833 -18.667 -46.5 -26s-30.667 -11 -39 -11s-12.5 3 -12.5 9c0 3.33301 4.66699 7.66602 14 12.999
c38.667 18.667 58.334 44 59.001 76z" />
    <glyph glyph-name="ecircumflex" unicode="&#xea;" horiz-adv-x="293" 
d="M122 -5c-37.333 0 -67.001 14.166 -89.001 42.499s-33 60.5 -33 96.5c0 72.667 15.333 127.667 46 165s70.334 56 119.001 56c22.667 0 41.334 -6.16699 56.001 -18.5s22 -29.166 22 -50.499c0 -40 -16.833 -73.5 -50.5 -100.5s-74.834 -41.167 -123.501 -42.5
c2.66699 -26 11.5 -48.5 26.5 -67.5s32.5 -28.5 52.5 -28.5s38 4.66699 54 14s30.667 22.666 44 39.999c28 36.667 52 78.334 72 125.001c5.33301 12 9.5 20.667 12.5 26s6.33301 8 10 8s5.5 -2.66699 5.5 -8c0 -33.333 -20.333 -83.333 -61 -150
c-44 -71.333 -98.333 -107 -163 -107zM68.999 166.999c39.333 6.66699 68.167 19.332 86.5 37.999s27.5 43 27.5 73s-9.66699 45 -29 45c-23.333 0 -43 -16.167 -59 -48.5s-24.667 -68.166 -26 -107.499zM275 427.997c-8 -5.33301 -14.002 -8.00488 -18.002 -8.00488
c-34.667 0 -63.667 23.667 -87 71c-8 -17.333 -22.333 -31.666 -43 -42.999s-35.834 -17 -45.501 -17s-14.834 3 -15.501 9c0 2.66699 2.83301 5.33398 8.5 8.00098s11.334 5.83398 17.001 9.50098s12.167 9 19.5 16l17 16c4 3.66699 7.33301 9 10 16
s4.33398 11.167 5.00098 12.5c3.33301 8.66699 5 18 5 28c0.666992 5.33301 6.83398 11.5 18.501 18.5s20.167 10.5 25.5 10.5c8 0 13 -6.5 15 -19.5s4.16699 -23.833 6.5 -32.5s7.83301 -19.667 16.5 -33c10.667 -17.333 24.334 -29.666 41.001 -36.999
c10.667 -4.66699 16 -8.66699 16 -12s-4 -7.66602 -12 -12.999z" />
    <glyph glyph-name="edieresis" unicode="&#xeb;" horiz-adv-x="293" 
d="M122 -5c-37.333 0 -67.001 14.166 -89.001 42.499s-33 60.5 -33 96.5c0 72.667 15.333 127.667 46 165s70.334 56 119.001 56c22.667 0 41.334 -6.16699 56.001 -18.5s22 -29.166 22 -50.499c0 -40 -16.833 -73.5 -50.5 -100.5s-74.834 -41.167 -123.501 -42.5
c2.66699 -26 11.5 -48.5 26.5 -67.5s32.5 -28.5 52.5 -28.5s38 4.66699 54 14s30.667 22.666 44 39.999c28 36.667 52 78.334 72 125.001c5.33301 12 9.5 20.667 12.5 26s6.33301 8 10 8s5.5 -2.66699 5.5 -8c0 -33.333 -20.333 -83.333 -61 -150
c-44 -71.333 -98.333 -107 -163 -107zM68.999 166.999c39.333 6.66699 68.167 19.332 86.5 37.999s27.5 43 27.5 73s-9.66699 45 -29 45c-23.333 0 -43 -16.167 -59 -48.5s-24.667 -68.166 -26 -107.499zM66.5 456.997c-9 6 -13.5 15.667 -13.5 29s6.16699 24 18.5 32
s23.833 12 34.5 12s19.667 -3 27 -9s11 -13.333 11 -22c0 -34 -17 -51 -51 -51c-8.66699 0 -17.5 3 -26.5 9zM210.5 456.997c-9 6 -13.501 15.667 -13.501 29s6.33301 24 19 32s24.334 12 35.001 12s19.5 -3 26.5 -9s10.5 -13.333 10.5 -22c0 -34 -16.667 -51 -50 -51
c-9.33301 0 -18.5 3 -27.5 9z" />
    <glyph glyph-name="igrave" unicode="&#xec;" horiz-adv-x="175" 
d="M66 -5c-26 0 -45.6641 5.33203 -58.9971 15.999c-4.66699 4.66699 -7 21.334 -7 50.001s2.16699 76.5 6.5 143.5s8.16602 103.167 11.499 108.5s13.666 15.333 30.999 30s30.833 22 40.5 22s14.5 -12.667 14.5 -38c0 -6 -1.83301 -18.667 -5.5 -38
s-7.83398 -33.666 -12.501 -42.999c-8.66699 -18.667 -13 -76.334 -13 -173.001c0 -18 2 -27 6 -27c11.333 0.666992 27 14.834 47 42.501s39.833 63.167 59.5 106.5s31.667 65 36 65s6.5 -2.66699 6.5 -8c0 -18.667 -9.66699 -48.334 -29 -89.001
c-52.667 -112 -97 -168 -133 -168zM75.5029 521.999c5 -12 8.83398 -19.998 11.501 -23.998s5.16699 -7.5 7.5 -10.5s4.5 -5.5 6.5 -7.5s4.66699 -4.16699 8 -6.5l8 -5.5c2 -1.33301 5.16699 -3.16602 9.5 -5.49902s7.33301 -3.83301 9 -4.5s5.16699 -2.33398 10.5 -5.00098
l10 -5c8.66699 -4 13 -9.66699 13 -17c0 -10 -5.83301 -15 -17.5 -15s-26.834 3.16699 -45.501 9.5s-35 14.166 -49 23.499c-33.333 22.667 -50 46.667 -50 72c0 7.33301 5.33301 16.166 16 26.499s18.5 15.5 23.5 15.5s9.83301 -3.83301 14.5 -11.5s9.5 -17.5 14.5 -29.5z
" />
    <glyph glyph-name="iacute" unicode="&#xed;" horiz-adv-x="175" 
d="M66 -5c-26 0 -45.6641 5.33203 -58.9971 15.999c-4.66699 4.66699 -7 21.334 -7 50.001s2.16699 76.5 6.5 143.5s8.16602 103.167 11.499 108.5s13.666 15.333 30.999 30s30.833 22 40.5 22s14.5 -12.667 14.5 -38c0 -6 -1.83301 -18.667 -5.5 -38
s-7.83398 -33.666 -12.501 -42.999c-8.66699 -18.667 -13 -76.334 -13 -173.001c0 -18 2 -27 6 -27c11.333 0.666992 27 14.834 47 42.501s39.833 63.167 59.5 106.5s31.667 65 36 65s6.5 -2.66699 6.5 -8c0 -18.667 -9.66699 -48.334 -29 -89.001
c-52.667 -112 -97 -168 -133 -168zM90.0029 508.999c0 5.33301 -1.66797 10.501 -5.00098 15.501s-5 9.16699 -5 12.5s5.83301 8 17.5 14s21.167 9 28.5 9s14.5 -4 21.5 -12s10.5 -19.333 10.5 -34c0 -22.667 -14.333 -44.667 -43 -66
c-13.333 -10 -28.833 -18.667 -46.5 -26s-30.667 -11 -39 -11s-12.5 3 -12.5 9c0 3.33301 4.66699 7.66602 14 12.999c38.667 18.667 58.334 44 59.001 76z" />
    <glyph glyph-name="icircumflex" unicode="&#xee;" horiz-adv-x="175" 
d="M66 -5c-26 0 -45.6641 5.33203 -58.9971 15.999c-4.66699 4.66699 -7 21.334 -7 50.001s2.16699 76.5 6.5 143.5s8.16602 103.167 11.499 108.5s13.666 15.333 30.999 30s30.833 22 40.5 22s14.5 -12.667 14.5 -38c0 -6 -1.83301 -18.667 -5.5 -38
s-7.83398 -33.666 -12.501 -42.999c-8.66699 -18.667 -13 -76.334 -13 -173.001c0 -18 2 -27 6 -27c11.333 0.666992 27 14.834 47 42.501s39.833 63.167 59.5 106.5s31.667 65 36 65s6.5 -2.66699 6.5 -8c0 -18.667 -9.66699 -48.334 -29 -89.001
c-52.667 -112 -97 -168 -133 -168zM177.003 427.999c-8 -5.33301 -14.002 -8.00488 -18.002 -8.00488c-34.667 0 -63.667 23.667 -87 71c-8 -17.333 -22.333 -31.666 -43 -42.999s-35.834 -17 -45.501 -17s-14.834 3 -15.501 9c0 2.66699 2.83301 5.33398 8.5 8.00098
s11.334 5.83398 17.001 9.50098s12.167 9 19.5 16l17 16c4 3.66699 7.33301 9 10 16s4.33398 11.167 5.00098 12.5c3.33301 8.66699 5 18 5 28c0.666992 5.33301 6.83398 11.5 18.501 18.5s20.167 10.5 25.5 10.5c8 0 13 -6.5 15 -19.5s4.16699 -23.833 6.5 -32.5
s7.83301 -19.667 16.5 -33c10.667 -17.333 24.334 -29.666 41.001 -36.999c10.667 -4.66699 16 -8.66699 16 -12s-4 -7.66602 -12 -12.999z" />
    <glyph glyph-name="idieresis" unicode="&#xef;" horiz-adv-x="175" 
d="M66 -5c-26 0 -45.6641 5.33203 -58.9971 15.999c-4.66699 4.66699 -7 21.334 -7 50.001s2.16699 76.5 6.5 143.5s8.16602 103.167 11.499 108.5s13.666 15.333 30.999 30s30.833 22 40.5 22s14.5 -12.667 14.5 -38c0 -6 -1.83301 -18.667 -5.5 -38
s-7.83398 -33.666 -12.501 -42.999c-8.66699 -18.667 -13 -76.334 -13 -173.001c0 -18 2 -27 6 -27c11.333 0.666992 27 14.834 47 42.501s39.833 63.167 59.5 106.5s31.667 65 36 65s6.5 -2.66699 6.5 -8c0 -18.667 -9.66699 -48.334 -29 -89.001
c-52.667 -112 -97 -168 -133 -168zM-18.4971 456.999c-9 6 -13.5 15.667 -13.5 29s6.16699 24 18.5 32s23.833 12 34.5 12s19.667 -3 27 -9s11 -13.333 11 -22c0 -34 -17 -51 -51 -51c-8.66699 0 -17.5 3 -26.5 9zM115.503 456.999c-9 6 -13.501 15.667 -13.501 29
s6.33301 24 19 32s24.334 12 35.001 12s19.5 -3 26.5 -9s10.5 -13.333 10.5 -22c0 -34 -16.667 -51 -50 -51c-9.33301 0 -18.5 3 -27.5 9z" />
    <glyph glyph-name="eth" unicode="&#xf0;" horiz-adv-x="358" 
d="M276 501c17.333 11.333 28.332 19.999 32.999 25.999c8 10 17 15 27 15s20.167 -1.83301 30.5 -5.5s15.5 -9.5 15.5 -17.5c0 -22.667 -28.333 -45 -85 -67c17.333 -50 26 -101.667 26 -155c0 -147.333 -38.667 -241.666 -116 -282.999c-24.667 -12.667 -53 -19 -85 -19
s-60.333 14 -85 42s-37 68.167 -37 120.5s15.333 98.333 46 138s66.834 59.5 108.501 59.5s73.5 -13.333 95.5 -40c-1.33301 42 -6.33301 82.333 -15 121c-15.333 -2.66699 -32 -4 -50 -4c-45.333 0 -68 5.66699 -68 17c0 9.33301 11.167 14 33.5 14s46.5 4.33301 72.5 13
c-18 53.333 -43.333 80 -76 80c-4.66699 0 -12.167 -3 -22.5 -9s-20.166 -9 -29.499 -9s-17.5 2.33301 -24.5 7s-10.5 12 -10.5 22s8 18 24 24s30.667 9 44 9c63.333 0 112.666 -33 147.999 -99zM159.999 318.999c-24 0 -43.666 -13.999 -58.999 -41.999s-23 -64 -23 -108
c0 -89.333 21.333 -134 64 -134c18 0 33.833 6.66699 47.5 20s24.5 31 32.5 53c13.333 37.333 22.333 83.666 27 138.999c-18.667 48 -48.334 72 -89.001 72z" />
    <glyph glyph-name="ntilde" unicode="&#xf1;" horiz-adv-x="371" 
d="M78 54l1.00098 -31.001c0 -18.667 -5.33301 -28 -16 -28c-16 0 -31.333 2.16699 -46 6.5s-22 10.333 -22 18s1.83301 34 5.5 79s5.5 78.833 5.5 101.5v59c0 32 3.33301 51.333 10 58s18.5 16.334 35.5 29.001s29.333 19 37 19s12.5 -1.33301 14.5 -4s3 -7.66699 3 -15
c0 -35.333 -6.66699 -68.666 -20 -99.999c-3.33301 -38 -5 -64.333 -5 -79c2.66699 4 16.667 26.667 42 68s46.833 71.666 64.5 90.999s33.5 29 47.5 29s26.5 -4.66699 37.5 -14s16.5 -21 16.5 -35c0 -29.333 -3.16699 -72.5 -9.5 -129.5s-9.5 -93 -9.5 -108
s2 -22.5 6 -22.5c11.333 0.666992 27 14.834 47 42.501s39.833 63.167 59.5 106.5s31.667 65 36 65s6.5 -2.66699 6.5 -8c0 -18.667 -9.66699 -48.334 -29 -89.001c-52.667 -112 -97 -168 -133 -168c-26 0 -45.667 5.33301 -59 16c-4.66699 4.66699 -7 16.834 -7 36.501
s1.83301 51.667 5.5 96s5.5 77.5 5.5 99.5s-3.83301 33 -11.5 33s-27.834 -22.833 -60.501 -68.5s-50 -74.834 -52 -87.501c-4 -23.333 -6 -45.333 -6 -66zM189.501 534.499c33.667 -13.667 53.998 -20.5 60.998 -20.5s14.167 5.5 21.5 16.5s13 16.5 17 16.5
c8.66699 0 13 -7.16699 13 -21.5s-7.66699 -29.5 -23 -45.5s-31.666 -24 -48.999 -24s-38 7.16699 -62 21.5s-42.333 21.5 -55 21.5c-4.66699 0 -9.16699 -4.66699 -13.5 -14s-9.16602 -14 -14.499 -14c-11.333 0 -17 6.66699 -17 20s4.83301 27.333 14.5 42
s21.5 22 35.5 22s37.833 -6.83301 71.5 -20.5z" />
    <glyph glyph-name="ograve" unicode="&#xf2;" horiz-adv-x="364" 
d="M313 217c26.667 8.66699 45.1699 16.168 55.5029 22.501l23.5 14.5l12 7c3.33301 2 6 3 8 3c5.33301 0 8 -3 8 -9s-10.333 -16.5 -31 -31.5s-46.334 -28.5 -77.001 -40.5c-4.66699 -56 -22.334 -101.333 -53.001 -136s-74.334 -52 -131.001 -52
c-41.333 0 -73 16.5 -95 49.5s-33 71.667 -33 116s13.167 86.166 39.5 125.499s60.166 59 101.499 59c18.667 13.333 40.834 20 66.501 20s49.5 -13.667 71.5 -41s33.333 -63 34 -107zM248.003 166.001l-36 -1.99805c-30.667 0 -56.667 9.16699 -78 27.5s-32 38.5 -32 60.5
s3.66699 41 11 57c-28.667 -22.667 -43 -67.334 -43 -134.001c0 -32 6.66699 -62.5 20 -91.5s34.333 -43.5 63 -43.5s51 12.167 67 36.5s25.333 54.166 28 89.499zM186.003 332.003c-10.667 0 -19 -4.83398 -25 -14.501s-9 -20.167 -9 -31.5c0 -24.667 8.5 -44.667 25.5 -60
s36.833 -23 59.5 -23h12c-1.33301 32.667 -6.83301 62.334 -16.5 89.001s-25.167 40 -46.5 40zM179.503 519.002c5 -12 8.83398 -19.9971 11.501 -23.9971s5.16699 -7.5 7.5 -10.5s4.5 -5.5 6.5 -7.5s4.66699 -4.16699 8 -6.5l8 -5.5
c2 -1.33301 5.16699 -3.16602 9.5 -5.49902s7.33301 -3.83301 9 -4.5s5.16699 -2.33398 10.5 -5.00098l10 -5c8.66699 -4.66699 13 -10.334 13 -17.001c0 -10 -5.83301 -15 -17.5 -15s-26.834 3.16699 -45.501 9.5s-35 14.166 -49 23.499c-33.333 22.667 -50 46.667 -50 72
c0 7.33301 5.33301 16.166 16 26.499s18.5 15.5 23.5 15.5s9.83301 -3.83301 14.5 -11.5s9.5 -17.5 14.5 -29.5z" />
    <glyph glyph-name="oacute" unicode="&#xf3;" horiz-adv-x="364" 
d="M313 217c26.667 8.66699 45.1699 16.168 55.5029 22.501l23.5 14.5l12 7c3.33301 2 6 3 8 3c5.33301 0 8 -3 8 -9s-10.333 -16.5 -31 -31.5s-46.334 -28.5 -77.001 -40.5c-4.66699 -56 -22.334 -101.333 -53.001 -136s-74.334 -52 -131.001 -52
c-41.333 0 -73 16.5 -95 49.5s-33 71.667 -33 116s13.167 86.166 39.5 125.499s60.166 59 101.499 59c18.667 13.333 40.834 20 66.501 20s49.5 -13.667 71.5 -41s33.333 -63 34 -107zM248.003 166.001l-36 -1.99805c-30.667 0 -56.667 9.16699 -78 27.5s-32 38.5 -32 60.5
s3.66699 41 11 57c-28.667 -22.667 -43 -67.334 -43 -134.001c0 -32 6.66699 -62.5 20 -91.5s34.333 -43.5 63 -43.5s51 12.167 67 36.5s25.333 54.166 28 89.499zM186.003 332.003c-10.667 0 -19 -4.83398 -25 -14.501s-9 -20.167 -9 -31.5c0 -24.667 8.5 -44.667 25.5 -60
s36.833 -23 59.5 -23h12c-1.33301 32.667 -6.83301 62.334 -16.5 89.001s-25.167 40 -46.5 40zM200.003 509.002c0 5.33301 -1.66797 10.501 -5.00098 15.501s-5 9.16699 -5 12.5s5.83301 8 17.5 14s21.167 9 28.5 9s14.5 -4 21.5 -12s10.5 -19.333 10.5 -34
c0 -22.667 -14.333 -44.667 -43 -66c-13.333 -10 -28.833 -18.667 -46.5 -26s-30.667 -11 -39 -11s-12.5 3 -12.5 9c0 3.33301 4.66699 7.66602 14 12.999c38.667 18.667 58.334 44 59.001 76z" />
    <glyph glyph-name="ocircumflex" unicode="&#xf4;" horiz-adv-x="364" 
d="M313 217c26.667 8.66699 45.1699 16.168 55.5029 22.501l23.5 14.5l12 7c3.33301 2 6 3 8 3c5.33301 0 8 -3 8 -9s-10.333 -16.5 -31 -31.5s-46.334 -28.5 -77.001 -40.5c-4.66699 -56 -22.334 -101.333 -53.001 -136s-74.334 -52 -131.001 -52
c-41.333 0 -73 16.5 -95 49.5s-33 71.667 -33 116s13.167 86.166 39.5 125.499s60.166 59 101.499 59c18.667 13.333 40.834 20 66.501 20s49.5 -13.667 71.5 -41s33.333 -63 34 -107zM248.003 166.001l-36 -1.99805c-30.667 0 -56.667 9.16699 -78 27.5s-32 38.5 -32 60.5
s3.66699 41 11 57c-28.667 -22.667 -43 -67.334 -43 -134.001c0 -32 6.66699 -62.5 20 -91.5s34.333 -43.5 63 -43.5s51 12.167 67 36.5s25.333 54.166 28 89.499zM186.003 332.003c-10.667 0 -19 -4.83398 -25 -14.501s-9 -20.167 -9 -31.5c0 -24.667 8.5 -44.667 25.5 -60
s36.833 -23 59.5 -23h12c-1.33301 32.667 -6.83301 62.334 -16.5 89.001s-25.167 40 -46.5 40zM290.003 428.002c-8 -5.33301 -14.001 -8.00488 -18.001 -8.00488c-34.667 0 -63.667 23.667 -87 71c-8 -17.333 -22.333 -31.666 -43 -42.999s-35.834 -17 -45.501 -17
s-14.834 3 -15.501 9c0 2.66699 2.83301 5.33398 8.5 8.00098s11.334 5.83398 17.001 9.50098s12.167 9 19.5 16l17 16c4 3.66699 7.33301 9 10 16s4.33398 11.167 5.00098 12.5c3.33301 8.66699 5 18 5 28c0.666992 5.33301 6.83398 11.5 18.501 18.5
s20.167 10.5 25.5 10.5c8 0 13 -6.5 15 -19.5s4.16699 -23.833 6.5 -32.5s7.5 -19.667 15.5 -33c11.333 -17.333 25.333 -29.666 42 -36.999c10.667 -4.66699 16 -8.66699 16 -12s-4 -7.66602 -12 -12.999z" />
    <glyph glyph-name="otilde" unicode="&#xf5;" horiz-adv-x="364" 
d="M313 217c26.667 8.66699 45.1699 16.168 55.5029 22.501l23.5 14.5l12 7c3.33301 2 6 3 8 3c5.33301 0 8 -3 8 -9s-10.333 -16.5 -31 -31.5s-46.334 -28.5 -77.001 -40.5c-4.66699 -56 -22.334 -101.333 -53.001 -136s-74.334 -52 -131.001 -52
c-41.333 0 -73 16.5 -95 49.5s-33 71.667 -33 116s13.167 86.166 39.5 125.499s60.166 59 101.499 59c18.667 13.333 40.834 20 66.501 20s49.5 -13.667 71.5 -41s33.333 -63 34 -107zM248.003 166.001l-36 -1.99805c-30.667 0 -56.667 9.16699 -78 27.5s-32 38.5 -32 60.5
s3.66699 41 11 57c-28.667 -22.667 -43 -67.334 -43 -134.001c0 -32 6.66699 -62.5 20 -91.5s34.333 -43.5 63 -43.5s51 12.167 67 36.5s25.333 54.166 28 89.499zM186.003 332.003c-10.667 0 -19 -4.83398 -25 -14.501s-9 -20.167 -9 -31.5c0 -24.667 8.5 -44.667 25.5 -60
s36.833 -23 59.5 -23h12c-1.33301 32.667 -6.83301 62.334 -16.5 89.001s-25.167 40 -46.5 40zM185.503 529.502c33.667 -13.667 53.998 -20.5 60.998 -20.5s14.167 5.5 21.5 16.5s13 16.5 17 16.5c8.66699 0 13 -7.16699 13 -21.5s-7.66699 -29.5 -23 -45.5
s-31.666 -24 -48.999 -24s-38 7.16699 -62 21.5s-42.333 21.5 -55 21.5c-4.66699 0 -9.16699 -4.66699 -13.5 -14s-9.16602 -14 -14.499 -14c-11.333 0 -17 6.66699 -17 20s4.83301 27.333 14.5 42s21.5 22 35.5 22s37.833 -6.83301 71.5 -20.5z" />
    <glyph glyph-name="odieresis" unicode="&#xf6;" horiz-adv-x="364" 
d="M313 217c26.667 8.66699 45.1699 16.168 55.5029 22.501l23.5 14.5l12 7c3.33301 2 6 3 8 3c5.33301 0 8 -3 8 -9s-10.333 -16.5 -31 -31.5s-46.334 -28.5 -77.001 -40.5c-4.66699 -56 -22.334 -101.333 -53.001 -136s-74.334 -52 -131.001 -52
c-41.333 0 -73 16.5 -95 49.5s-33 71.667 -33 116s13.167 86.166 39.5 125.499s60.166 59 101.499 59c18.667 13.333 40.834 20 66.501 20s49.5 -13.667 71.5 -41s33.333 -63 34 -107zM248.003 166.001l-36 -1.99805c-30.667 0 -56.667 9.16699 -78 27.5s-32 38.5 -32 60.5
s3.66699 41 11 57c-28.667 -22.667 -43 -67.334 -43 -134.001c0 -32 6.66699 -62.5 20 -91.5s34.333 -43.5 63 -43.5s51 12.167 67 36.5s25.333 54.166 28 89.499zM186.003 332.003c-10.667 0 -19 -4.83398 -25 -14.501s-9 -20.167 -9 -31.5c0 -24.667 8.5 -44.667 25.5 -60
s36.833 -23 59.5 -23h12c-1.33301 32.667 -6.83301 62.334 -16.5 89.001s-25.167 40 -46.5 40zM87.5029 457.002c-9 6 -13.5 15.667 -13.5 29s6.16699 24 18.5 32s23.833 12 34.5 12s19.667 -3 27 -9s11 -13.333 11 -22c0 -34 -17 -51 -51 -51c-8.66699 0 -17.5 3 -26.5 9z
M231.503 457.002c-9 6 -13.501 15.667 -13.501 29s6.33301 24 19 32s24.334 12 35.001 12s19.5 -3 26.5 -9s10.5 -13.333 10.5 -22c0 -34 -16.667 -51 -50 -51c-9.33301 0 -18.5 3 -27.5 9z" />
    <glyph glyph-name="divide" unicode="&#xf7;" horiz-adv-x="384" 
d="M145 96.5c-9.33301 6.33301 -13.999 16.832 -13.999 31.499s6.66699 26.167 20 34.5s25.666 12.5 36.999 12.5s20.833 -3.16699 28.5 -9.5s11.5 -14.166 11.5 -23.499c0 -36.667 -18 -55 -54 -55c-10 0 -19.667 3.16699 -29 9.5zM160.001 317.499
c-9.33301 6.33301 -13.999 16.832 -13.999 31.499s6.66699 26.167 20 34.5s25.666 12.5 36.999 12.5s20.833 -3.16699 28.5 -9.5s11.5 -14.166 11.5 -23.499c0 -36.667 -18 -55 -54 -55c-10 0 -19.667 3.16699 -29 9.5zM121.502 267.998
c24.333 -2 58.8301 -3.00098 103.497 -3.00098s75.667 3.66699 93 11s29 11 35 11s9 -4.83301 9 -14.5s-4.66699 -22.167 -14 -37.5s-18.666 -23 -27.999 -23c-40 0 -76.333 1.5 -109 4.5s-59.667 4.5 -81 4.5s-40 -1 -56 -3s-24.333 -3 -25 -3c-14 0 -21 6.66699 -21 20
c0 8.66699 3.33301 17.834 10 27.501s13.334 14.5 20.001 14.5c0.666992 0 5.33398 -1 14.001 -3s25.167 -4 49.5 -6z" />
    <glyph glyph-name="oslash" unicode="&#xf8;" horiz-adv-x="364" 
d="M81 3c-25.333 11.333 -45.168 30.499 -59.501 57.499s-21.5 54.833 -21.5 83.5s3.33301 54.834 10 78.501s16.667 46.5 30 68.5s31.833 39.833 55.5 53.5s50.834 20.5 81.501 20.5l13 -1c9.33301 38 23 57 41 57c4.66699 0 7 -3.16699 7 -9.5s-3.66699 -23.5 -11 -51.5
c25.333 -4.66699 47 -19.667 65 -45s27 -53 27 -83c0 -62 -15.667 -115.333 -47 -160s-74.333 -69.667 -129 -75c-15.333 -39.333 -34 -59 -56 -59c-16 0 -24 7.66699 -24 23c0 10 6 24 18 42zM111.998 47.999c16 40.667 40.333 134.667 73 282c-4 1.33301 -9.33301 2 -16 2
c-29.333 0 -53 -18 -71 -54s-27 -69.333 -27 -100s3.66699 -58 11 -82s17.333 -40 30 -48zM223.998 92.499c18 36.333 27.001 69.833 27.001 100.5c0 72.667 -12.333 115.334 -37 128.001c-28.667 -130.667 -50.334 -225.334 -65.001 -284.001
c32 0.666992 57 19.167 75 55.5z" />
    <glyph glyph-name="ugrave" unicode="&#xf9;" horiz-adv-x="365" 
d="M0 87l5.99609 111.999c0 71.333 3.33301 110.333 10 117s18.5 16.5 35.5 29.5s29.333 19.5 37 19.5s12.5 -1.33301 14.5 -4s3 -8 3 -16c0 -28.667 -6.33301 -57.667 -19 -87c-10 -61.333 -15 -111.666 -15 -150.999s6.33301 -59 19 -59c15.333 0 33.333 13.333 54 40
s41.334 66.334 62.001 119.001c6 66.667 10.833 102.667 14.5 108s12.834 15 27.501 29s26.834 21 36.501 21s14.5 -12.667 14.5 -38c0 -6.66699 -1.83301 -19.667 -5.5 -39s-7.83398 -33.333 -12.501 -42c-7.33301 -18.667 -11 -76.334 -11 -173.001c0 -18 2 -27 6 -27
c11.333 0.666992 27 14.834 47 42.501s39.833 63.167 59.5 106.5s31.667 65 36 65s6.5 -2.66699 6.5 -8c0 -18.667 -9.66699 -48.334 -29 -89.001c-52.667 -112 -97 -168 -133 -168c-26 0 -45.667 5.33301 -59 16c-4.66699 4.66699 -7 19 -7 43s1 50.667 3 80
c-21.333 -45.333 -42.666 -79.833 -63.999 -103.5s-45.166 -35.5 -71.499 -35.5s-43.833 7 -52.5 21s-13 37.667 -13 71zM172.496 519.999c5 -12 8.83398 -19.998 11.501 -23.998s5.16699 -7.5 7.5 -10.5s4.5 -5.5 6.5 -7.5s4.66699 -4.16699 8 -6.5l8 -5.5
c2 -1.33301 5.16699 -3.16602 9.5 -5.49902s7.33301 -3.83301 9 -4.5s5.16699 -2.33398 10.5 -5.00098l10 -5c8.66699 -4 13 -9.66699 13 -17c0 -10 -5.83301 -15 -17.5 -15s-26.834 3.16699 -45.501 9.5s-35 14.166 -49 23.499c-33.333 22.667 -50 46.667 -50 72
c0 7.33301 5.33301 16.166 16 26.499s18.5 15.5 23.5 15.5s9.83301 -3.83301 14.5 -11.5s9.5 -17.5 14.5 -29.5z" />
    <glyph glyph-name="uacute" unicode="&#xfa;" horiz-adv-x="365" 
d="M0 87l5.99609 111.999c0 71.333 3.33301 110.333 10 117s18.5 16.5 35.5 29.5s29.333 19.5 37 19.5s12.5 -1.33301 14.5 -4s3 -8 3 -16c0 -28.667 -6.33301 -57.667 -19 -87c-10 -61.333 -15 -111.666 -15 -150.999s6.33301 -59 19 -59c15.333 0 33.333 13.333 54 40
s41.334 66.334 62.001 119.001c6 66.667 10.833 102.667 14.5 108s12.834 15 27.501 29s26.834 21 36.501 21s14.5 -12.667 14.5 -38c0 -6.66699 -1.83301 -19.667 -5.5 -39s-7.83398 -33.333 -12.501 -42c-7.33301 -18.667 -11 -76.334 -11 -173.001c0 -18 2 -27 6 -27
c11.333 0.666992 27 14.834 47 42.501s39.833 63.167 59.5 106.5s31.667 65 36 65s6.5 -2.66699 6.5 -8c0 -18.667 -9.66699 -48.334 -29 -89.001c-52.667 -112 -97 -168 -133 -168c-26 0 -45.667 5.33301 -59 16c-4.66699 4.66699 -7 19 -7 43s1 50.667 3 80
c-21.333 -45.333 -42.666 -79.833 -63.999 -103.5s-45.166 -35.5 -71.499 -35.5s-43.833 7 -52.5 21s-13 37.667 -13 71zM189.996 508.999c0 5.33301 -1.66797 10.501 -5.00098 15.501s-5 9.16699 -5 12.5s5.83301 8 17.5 14s21.167 9 28.5 9s14.5 -4 21.5 -12
s10.5 -19.333 10.5 -34c0 -22.667 -14.333 -44.667 -43 -66c-13.333 -10 -28.833 -18.667 -46.5 -26s-30.667 -11 -39 -11s-12.5 3 -12.5 9c0 3.33301 4.66699 7.66602 14 12.999c38.667 18.667 58.334 44 59.001 76z" />
    <glyph glyph-name="ucircumflex" unicode="&#xfb;" horiz-adv-x="365" 
d="M0 87l5.99609 111.999c0 71.333 3.33301 110.333 10 117s18.5 16.5 35.5 29.5s29.333 19.5 37 19.5s12.5 -1.33301 14.5 -4s3 -8 3 -16c0 -28.667 -6.33301 -57.667 -19 -87c-10 -61.333 -15 -111.666 -15 -150.999s6.33301 -59 19 -59c15.333 0 33.333 13.333 54 40
s41.334 66.334 62.001 119.001c6 66.667 10.833 102.667 14.5 108s12.834 15 27.501 29s26.834 21 36.501 21s14.5 -12.667 14.5 -38c0 -6.66699 -1.83301 -19.667 -5.5 -39s-7.83398 -33.333 -12.501 -42c-7.33301 -18.667 -11 -76.334 -11 -173.001c0 -18 2 -27 6 -27
c11.333 0.666992 27 14.834 47 42.501s39.833 63.167 59.5 106.5s31.667 65 36 65s6.5 -2.66699 6.5 -8c0 -18.667 -9.66699 -48.334 -29 -89.001c-52.667 -112 -97 -168 -133 -168c-26 0 -45.667 5.33301 -59 16c-4.66699 4.66699 -7 19 -7 43s1 50.667 3 80
c-21.333 -45.333 -42.666 -79.833 -63.999 -103.5s-45.166 -35.5 -71.499 -35.5s-43.833 7 -52.5 21s-13 37.667 -13 71zM285.996 427.999c-8 -5.33301 -14.001 -8.00488 -18.001 -8.00488c-34.667 0 -63.667 23.667 -87 71c-8 -17.333 -22.333 -31.666 -43 -42.999
s-35.834 -17 -45.501 -17s-14.834 3 -15.501 9c0 2.66699 2.83301 5.33398 8.5 8.00098s11.334 5.83398 17.001 9.50098s12.167 9 19.5 16l17 16c4 3.66699 7.33301 9 10 16s4.33398 11.167 5.00098 12.5c3.33301 8.66699 5 18 5 28
c0.666992 5.33301 6.83398 11.5 18.501 18.5s20.167 10.5 25.5 10.5c8 0 13 -6.5 15 -19.5s4.16699 -23.833 6.5 -32.5s7.5 -19.667 15.5 -33c11.333 -17.333 25.333 -29.666 42 -36.999c10.667 -4.66699 16 -8.66699 16 -12s-4 -7.66602 -12 -12.999z" />
    <glyph glyph-name="udieresis" unicode="&#xfc;" horiz-adv-x="365" 
d="M0 87l5.99609 111.999c0 71.333 3.33301 110.333 10 117s18.5 16.5 35.5 29.5s29.333 19.5 37 19.5s12.5 -1.33301 14.5 -4s3 -8 3 -16c0 -28.667 -6.33301 -57.667 -19 -87c-10 -61.333 -15 -111.666 -15 -150.999s6.33301 -59 19 -59c15.333 0 33.333 13.333 54 40
s41.334 66.334 62.001 119.001c6 66.667 10.833 102.667 14.5 108s12.834 15 27.501 29s26.834 21 36.501 21s14.5 -12.667 14.5 -38c0 -6.66699 -1.83301 -19.667 -5.5 -39s-7.83398 -33.333 -12.501 -42c-7.33301 -18.667 -11 -76.334 -11 -173.001c0 -18 2 -27 6 -27
c11.333 0.666992 27 14.834 47 42.501s39.833 63.167 59.5 106.5s31.667 65 36 65s6.5 -2.66699 6.5 -8c0 -18.667 -9.66699 -48.334 -29 -89.001c-52.667 -112 -97 -168 -133 -168c-26 0 -45.667 5.33301 -59 16c-4.66699 4.66699 -7 19 -7 43s1 50.667 3 80
c-21.333 -45.333 -42.666 -79.833 -63.999 -103.5s-45.166 -35.5 -71.499 -35.5s-43.833 7 -52.5 21s-13 37.667 -13 71zM73.4961 456.999c-9 6 -13.5 15.667 -13.5 29s6.16699 24 18.5 32s23.833 12 34.5 12s19.667 -3 27 -9s11 -13.333 11 -22c0 -34 -17 -51 -51 -51
c-8.66699 0 -17.5 3 -26.5 9zM217.496 456.999c-9 6 -13.501 15.667 -13.501 29s6.33301 24 19 32s24.334 12 35.001 12s19.5 -3 26.5 -9s10.5 -13.333 10.5 -22c0 -34 -16.667 -51 -50 -51c-9.33301 0 -18.5 3 -27.5 9z" />
    <glyph glyph-name="yacute" unicode="&#xfd;" horiz-adv-x="350" 
d="M0 87l6.00098 111.998c0 71.333 3.33301 110.333 10 117s18.5 16.5 35.5 29.5s29.333 19.5 37 19.5s12.5 -1.33301 14.5 -4s3 -8 3 -16c0 -28.667 -6.33301 -57.667 -19 -87c-10 -61.333 -15 -111.666 -15 -150.999s4.66699 -59 14 -59c16 0 34.5 14.167 55.5 42.5
s42.5 70.166 64.5 125.499c0.666992 14.667 1.33398 30.167 2.00098 46.5s1.33398 28.333 2.00098 36s1.16699 13.167 1.5 16.5s9.5 12.5 27.5 27.5s31.833 22.5 41.5 22.5s14.5 -12.667 14.5 -38c0 -6.66699 -1.83301 -19.667 -5.5 -39s-7.83398 -33.333 -12.501 -42
c-5.33301 -47.333 -9 -88.666 -11 -123.999c65.333 82.667 100.166 126.334 104.499 131.001s8.16602 7 11.499 7c6.66699 0 10 -3.33301 10 -10c0 -4 -1.33301 -8.33301 -4 -13c-21.333 -31.333 -63.333 -86.333 -126 -165c-4 -79.333 -6.66699 -133.333 -8 -162
c-3.33301 -84.667 -15.166 -144.167 -35.499 -178.5s-56.5 -51.5 -108.5 -51.5c-22.667 0 -43.834 6.83301 -63.501 20.5s-29.5 37.334 -29.5 71.001s12.833 68.167 38.5 103.5s72.5 89.666 140.5 162.999l6 109c-22.667 -50 -45 -87.833 -67 -113.5
s-46.333 -38.5 -73 -38.5s-43.667 6.66699 -51 20s-11 37.333 -11 72zM193.001 -9.00195c-76 -82 -114 -147.665 -114 -196.998c0 -22.667 4 -41.334 12 -56.001s19 -22 33 -22c21.333 0 36.333 11.667 45 35s15 70.666 19 141.999zM191.001 509
c0 5.33301 -1.66797 10.501 -5.00098 15.501s-5 9.16699 -5 12.5s5.83301 8 17.5 14s21.167 9 28.5 9s14.5 -4 21.5 -12s10.5 -19.333 10.5 -34c0 -22.667 -14.333 -44.667 -43 -66c-13.333 -10 -28.833 -18.667 -46.5 -26s-30.667 -11 -39 -11s-12.5 3 -12.5 9
c0 3.33301 4.66699 7.66602 14 12.999c38.667 18.667 58.334 44 59.001 76z" />
    <glyph glyph-name="thorn" unicode="&#xfe;" horiz-adv-x="352" 
d="M31 266.5c4 131.667 7.5 210.333 10.5 236s11.333 48.334 25 68.001s25.834 29.5 36.501 29.5s19.667 -1.5 27 -4.5s11 -7 11 -12s-4 -12.833 -12 -23.5s-14.833 -26.334 -20.5 -47.001s-12.167 -130 -19.5 -328c20.667 56.667 40.667 99.167 60 127.5
s43.166 42.5 71.499 42.5s52.833 -12.5 73.5 -37.5s31 -64.333 31 -118s-15.167 -101.167 -45.5 -142.5s-70.166 -62 -119.499 -62c-23.333 0 -48.333 9 -75 27c-2.66699 -139.333 -10.334 -235.333 -23.001 -288c-1.33301 -6 -10 -16.333 -26 -31s-28.667 -22 -38 -22
c-12.667 0 -19 23.333 -19 70s14 127.667 42 243c2.66699 50 6 140.833 10 272.5zM166 30.999c19.333 0 39.332 13.499 59.999 40.499s31 60.333 31 100s-5.5 71.334 -16.5 95.001s-25.833 35.5 -44.5 35.5c-32 0 -68.667 -66.667 -110 -200v-44
c18.667 -18 45.334 -27 80.001 -27z" />
    </font>
</defs>
</svg>
